<?xml version="1.0" encoding="UTF-8" standalone="no"?>
<!DOCTYPE svg PUBLIC "-//W3C//DTD SVG 1.1//EN" "http://www.w3.org/Graphics/SVG/1.1/DTD/svg11.dtd">
<svg width="100%" height="100%" viewBox="0 0 384 247" version="1.1" xmlns="http://www.w3.org/2000/svg" xmlns:xlink="http://www.w3.org/1999/xlink" xml:space="preserve" xmlns:serif="http://www.serif.com/" style="fill-rule:evenodd;clip-rule:evenodd;stroke-linejoin:round;">
    <g transform="matrix(1,0,0,1,-50.5724,-307.026)">
        <g transform="matrix(1,0,0,1,-7151.23,-3632.81)">
            <g id="path54" transform="matrix(-0.295733,0.885133,-0.885133,-0.295733,7631.68,4018.48)">
                <path d="M100.903,182.591L271.833,364.681" style="fill:none;fill-rule:nonzero;stroke:rgb(255,59,5);stroke-width:1.04px;stroke-dasharray:8.3,8.3;stroke-dashoffset:1.87;"/>
            </g>
        </g>
        <g transform="matrix(1,0,0,1,-7151.23,-3632.81)">
            <g id="path56" transform="matrix(-0.295733,0.885133,-0.885133,-0.295733,7631.68,4018.48)">
                <path d="M157.88,364.681L228.285,225.571" style="fill:none;fill-rule:nonzero;stroke:rgb(255,59,5);stroke-width:1.04px;stroke-dasharray:8.3,8.3;stroke-dashoffset:1.87;"/>
            </g>
        </g>
        <g transform="matrix(1,0,0,1,-7151.23,-3632.81)">
            <g id="path12" transform="matrix(-0.295733,0.885133,-0.885133,-0.295733,7631.68,4018.48)">
                <path d="M157.88,278.72C157.88,289.776 162.982,300.157 171.592,306.642C180.203,313.161 191.293,314.969 201.392,311.567" style="fill:none;fill-rule:nonzero;stroke:white;stroke-width:1.04px;"/>
            </g>
        </g>
        <g transform="matrix(1,0,0,1,-7151.23,-3632.81)">
            <g id="path14" transform="matrix(-0.295733,0.885133,-0.885133,-0.295733,7631.68,4018.48)">
                <path d="M201.392,311.567C207.663,309.441 212.553,304.339 214.608,297.854C216.628,291.37 215.529,284.248 211.667,278.72" style="fill:none;fill-rule:nonzero;stroke:white;stroke-width:1.04px;"/>
            </g>
        </g>
        <g transform="matrix(1,0,0,1,-7151.23,-3632.81)">
            <g id="path16" transform="matrix(-0.295733,0.885133,-0.885133,-0.295733,7631.68,4018.48)">
                <path d="M211.667,278.72C209.293,275.283 205.466,273.264 201.392,273.264C197.317,273.264 193.525,275.283 191.116,278.72" style="fill:none;fill-rule:nonzero;stroke:white;stroke-width:1.04px;"/>
            </g>
        </g>
        <g transform="matrix(1,0,0,1,-7151.23,-3632.81)">
            <g id="path30" transform="matrix(-0.295733,0.885133,-0.885133,-0.295733,7631.68,4018.48)">
                <path d="M43.927,364.681L157.88,0.5" style="fill:none;fill-rule:nonzero;stroke:white;stroke-width:1.04px;"/>
            </g>
        </g>
        <g transform="matrix(1,0,0,1,-7151.23,-3632.81)">
            <g id="path32" transform="matrix(-0.295733,0.885133,-0.885133,-0.295733,7631.68,4018.48)">
                <path d="M157.88,0.5L271.833,364.681" style="fill:none;fill-rule:nonzero;stroke:white;stroke-width:1.04px;"/>
            </g>
        </g>
        <g transform="matrix(1,0,0,1,-7151.23,-3632.81)">
            <g id="path34" transform="matrix(-0.295733,0.885133,-0.885133,-0.295733,7631.68,4018.48)">
                <path d="M271.833,364.681L43.927,364.681" style="fill:none;fill-rule:nonzero;stroke:white;stroke-width:1.04px;"/>
            </g>
        </g>
        <g transform="matrix(1,0,0,1,-7151.23,-3632.81)">
            <g id="path36" transform="matrix(-0.295733,0.885133,-0.885133,-0.295733,7631.68,4018.48)">
                <path d="M43.927,364.681L228.285,225.571" style="fill:none;fill-rule:nonzero;stroke:white;stroke-width:1.04px;"/>
            </g>
        </g>
        <g transform="matrix(1,0,0,1,-7151.23,-3632.81)">
            <g id="path38" transform="matrix(-0.295733,0.885133,-0.885133,-0.295733,7631.68,4018.48)">
                <path d="M228.285,225.571L201.392,311.567" style="fill:none;fill-rule:nonzero;stroke:white;stroke-width:1.04px;"/>
            </g>
        </g>
        <g transform="matrix(1,0,0,1,-7151.23,-3632.81)">
            <g id="path40" transform="matrix(-0.295733,0.885133,-0.885133,-0.295733,7631.68,4018.48)">
                <path d="M157.88,278.72L211.667,278.72" style="fill:none;fill-rule:nonzero;stroke:white;stroke-width:1.04px;"/>
            </g>
        </g>
        <g transform="matrix(1,0,0,1,-7151.23,-3632.81)">
            <g id="path42" transform="matrix(-0.295733,0.885133,-0.885133,-0.295733,7631.68,4018.48)">
                <path d="M191.116,278.72L201.392,311.567" style="fill:none;fill-rule:nonzero;stroke:white;stroke-width:1.04px;"/>
            </g>
        </g>
        <g transform="matrix(1,0,0,1,-7151.23,-3632.81)">
            <g id="path44" transform="matrix(-0.295733,0.885133,-0.885133,-0.295733,7631.68,4018.48)">
                <path d="M195.049,291.264L211.667,278.72" style="fill:none;fill-rule:nonzero;stroke:white;stroke-width:1.04px;"/>
            </g>
        </g>
        <g transform="matrix(1,0,0,1,-7151.23,-3632.81)">
            <g id="path46" transform="matrix(-0.295733,0.885133,-0.885133,-0.295733,7631.68,4018.48)">
                <path d="M191.116,278.72L201.392,286.48" style="fill:none;fill-rule:nonzero;stroke:white;stroke-width:1.04px;"/>
            </g>
        </g>
        <g transform="matrix(1,0,0,1,-7151.23,-3632.81)">
            <g id="path50" transform="matrix(-0.295733,0.885133,-0.885133,-0.295733,7631.68,4018.48)">
                <path d="M196.537,286.48L201.392,286.48" style="fill:none;fill-rule:nonzero;stroke:white;stroke-width:1.04px;"/>
            </g>
        </g>
        <g transform="matrix(1,0,0,1,-7151.23,-3632.81)">
            <g id="path52" transform="matrix(-0.295733,0.885133,-0.885133,-0.295733,7631.68,4018.48)">
                <path d="M157.88,278.72L271.833,364.681" style="fill:none;fill-rule:nonzero;stroke:white;stroke-width:1.04px;"/>
            </g>
        </g>
        <g transform="matrix(1,0,0,1,-7151.23,-3632.81)">
            <g id="path48" transform="matrix(-0.295733,0.885133,-0.885133,-0.295733,7631.68,4018.48)">
                <path d="M197.458,283.504L195.049,291.264" style="fill:none;fill-rule:nonzero;stroke:white;stroke-width:1.04px;"/>
            </g>
        </g>
        <g transform="matrix(1,0,0,1,-7151.23,-3632.81)">
            <g id="path20" transform="matrix(-0.295733,0.885133,-0.885133,-0.295733,7631.68,4018.48)">
                <path d="M195.049,291.264C196.537,291.76 198.132,291.476 199.407,290.555C200.647,289.598 201.392,288.075 201.392,286.48" style="fill:none;fill-rule:nonzero;stroke:white;stroke-width:1.04px;"/>
            </g>
        </g>
        <g transform="matrix(1,0,0,1,-7151.23,-3632.81)">
            <g id="path18" transform="matrix(-0.295733,0.885133,-0.885133,-0.295733,7631.68,4018.48)">
                <path d="M191.116,278.72C189.663,280.811 189.238,283.539 190.018,286.02C190.797,288.5 192.675,290.449 195.049,291.264" style="fill:none;fill-rule:nonzero;stroke:white;stroke-width:1.04px;"/>
            </g>
        </g>
        <g transform="matrix(1,0,0,1,-7151.23,-3632.81)">
            <g id="path24" transform="matrix(-0.295733,0.885133,-0.885133,-0.295733,7631.68,4018.48)">
                <path d="M197.458,283.504C196.927,283.681 196.466,284.142 196.289,284.744C196.112,285.346 196.183,285.984 196.537,286.48" style="fill:none;fill-rule:nonzero;stroke:white;stroke-width:1.04px;"/>
            </g>
        </g>
        <g transform="matrix(1,0,0,1,-7151.23,-3632.81)">
            <g id="path26" transform="matrix(-0.295733,0.885133,-0.885133,-0.295733,7631.68,4018.48)">
                <path d="M196.537,286.48C196.75,286.764 197.104,286.976 197.458,286.976C197.848,286.976 198.203,286.764 198.415,286.48" style="fill:none;fill-rule:nonzero;stroke:white;stroke-width:1.04px;"/>
            </g>
        </g>
        <g transform="matrix(1,0,0,1,-7151.23,-3632.81)">
            <g id="path22" transform="matrix(-0.295733,0.885133,-0.885133,-0.295733,7631.68,4018.48)">
                <path d="M201.392,286.48C201.392,285.488 200.931,284.532 200.151,283.965C199.372,283.362 198.38,283.185 197.458,283.504" style="fill:none;fill-rule:nonzero;stroke:white;stroke-width:1.04px;"/>
            </g>
        </g>
        <g transform="matrix(1,0,0,1,-7151.23,-3632.81)">
            <g id="path6" transform="matrix(-0.295733,0.885133,-0.885133,-0.295733,7631.68,4018.48)">
                <path d="M157.88,0.5C88.502,23.886 34.112,80.402 11.577,152.437C-10.994,224.508 1.053,303.417 43.927,364.681" style="fill:none;fill-rule:nonzero;stroke:white;stroke-width:1.04px;"/>
            </g>
        </g>
        <g transform="matrix(1,0,0,1,-7151.23,-3632.81)">
            <g id="path8" transform="matrix(-0.295733,0.885133,-0.885133,-0.295733,7631.68,4018.48)">
                <path d="M43.927,364.681C70.431,402.559 112.773,424.988 157.88,424.988C202.951,424.988 245.329,402.559 271.833,364.681" style="fill:none;fill-rule:nonzero;stroke:white;stroke-width:1.04px;"/>
            </g>
        </g>
        <g transform="matrix(1,0,0,1,-7151.23,-3632.81)">
            <g id="path28" transform="matrix(-0.295733,0.885133,-0.885133,-0.295733,7631.68,4018.48)">
                <path d="M271.833,364.681C288.203,341.295 292.809,311.142 284.199,283.61C275.588,256.114 254.789,234.535 228.285,225.571" style="fill:none;fill-rule:nonzero;stroke:white;stroke-width:1.04px;"/>
            </g>
        </g>
        <g transform="matrix(1,0,0,1,-7151.23,-3632.81)">
            <g id="path10" transform="matrix(-0.295733,0.885133,-0.885133,-0.295733,7631.68,4018.48)">
                <path d="M228.285,225.571C211.915,220.043 193.986,223.02 180.061,233.508C166.136,244.032 157.88,260.827 157.88,278.72" style="fill:none;fill-rule:nonzero;stroke:white;stroke-width:1.04px;"/>
            </g>
        </g>
    </g>
</svg>
