<svg viewBox="0 0 13668 9327" xmlns="http://www.w3.org/2000/svg" fill-rule="evenodd" clip-rule="evenodd" stroke-linecap="round" stroke-linejoin="round" stroke-miterlimit="1.5">
  <path fill="none" d="M0 0h13667.6v9326.44H0z"/>
  <path d="M4662.3 228.241c2467.54 42.956 4436 2081.16 4393.05 4548.71-42.956 2467.54-2081.16 4436-4548.71 4393.05-2467.54-42.955-4436-2081.16-4393.05-4548.71 42.955-2467.54 2081.16-4436 4548.71-4393.05z" fill="none" stroke="#555" stroke-width="31.25" stroke-dasharray="187.5,125,0,0"/>
  <path d="M9137.19 226.034c-1234.38-18.128-2360.01 466.529-3181.58 1264.31-821.567 797.784-1339.07 1908.7-1357.2 3143.08-18.128 1234.38 466.529 2360.01 1264.31 3181.58 797.784 821.567 1908.7 1339.07 3143.08 1357.2 1234.38 18.128 2360.01-466.529 3181.58-1264.31 821.567-797.784 1339.07-1908.7 1357.2-3143.08 18.128-1234.38-466.529-2360.01-1264.31-3181.58-797.784-821.567-1908.7-1339.07-3143.08-1357.2zm-.078 5.29c1232.92 18.107 2342.52 534.999 3139.36 1355.59 796.842 820.595 1280.93 1944.89 1262.82 3177.82-18.107 1232.92-534.999 2342.52-1355.59 3139.36-820.595 796.842-1944.89 1280.93-3177.82 1262.82-1232.92-18.107-2342.52-534.999-3139.36-1355.59-796.842-820.595-1280.93-1944.89-1262.82-3177.82 18.107-1232.92 534.999-2342.52 1355.59-3139.36 820.595-796.842 1944.89-1280.93 3177.82-1262.82z"/>
  <path d="M4706.61 4745.12c0 56.443-45.787 102.268-102.184 102.268s-102.184-45.825-102.184-102.268c0-56.444 45.787-102.268 102.184-102.268s102.184 45.824 102.184 102.268z"/>
  <path d="M4638.22 4838.34a98.486 98.486 0 01-29.6 5.843 3.127 3.127 0 00-2.992 3.253 3.128 3.128 0 003.253 2.992 104.764 104.764 0 0031.476-6.214 3.126 3.126 0 00-2.137-5.874zm-59.596 2.531a98.52 98.52 0 01-27.581-12.229 3.126 3.126 0 00-4.318.941 3.126 3.126 0 00.941 4.318 104.735 104.735 0 0029.331 13.004 3.125 3.125 0 001.627-6.034zm106.918-38.862a99.82 99.82 0 01-20.876 21.801 3.126 3.126 0 00-.574 4.382 3.127 3.127 0 004.382.573 106.05 106.05 0 0022.184-23.166 3.126 3.126 0 00-5.116-3.59zm-157.136 6.666a99.209 99.209 0 01-15.613-25.825 3.126 3.126 0 00-5.779 2.381 105.457 105.457 0 0016.597 27.452 3.126 3.126 0 004.402.394 3.127 3.127 0 00.393-4.402zm175.072-63.547c0-5.7-.481-11.288-1.405-16.726a3.126 3.126 0 016.161-1.048 105.81 105.81 0 011.488 16.639l.006 1.135c0 11.047-1.702 21.699-4.858 31.709a3.127 3.127 0 01-3.92 2.041 3.128 3.128 0 01-2.041-3.921 99.035 99.035 0 004.569-29.829zm-197.768 8.394c-.232-2.768-.35-5.567-.35-8.394 0-7.461.824-14.73 2.388-21.722a3.126 3.126 0 00-2.367-3.732 3.127 3.127 0 00-3.732 2.368 105.667 105.667 0 00-2.539 23.086c0 3.003.125 5.977.372 8.917a3.126 3.126 0 006.228-.523zm169.069-78.155a99.574 99.574 0 0117.741 24.417 3.127 3.127 0 004.209 1.347 3.128 3.128 0 001.346-4.21 105.787 105.787 0 00-18.855-25.951 3.125 3.125 0 00-4.441 4.397zm-156.012 19.952a99.689 99.689 0 0118.967-23.479 3.127 3.127 0 00.203-4.415 3.127 3.127 0 00-4.415-.203 105.937 105.937 0 00-20.156 24.952 3.126 3.126 0 005.401 3.145zm103.255-47.771a98.27 98.27 0 0128.521 9.832 3.125 3.125 0 002.918-5.526 104.518 104.518 0 00-30.333-10.458 3.126 3.126 0 00-1.106 6.152zm-59.165 7.571a98.243 98.243 0 0128.992-8.342 3.126 3.126 0 00-.787-6.201 104.485 104.485 0 00-30.834 8.874 3.125 3.125 0 002.629 5.669z" fill="#fff"/>
  <path d="M9148.93 4745.12c0 56.443-45.787 102.268-102.184 102.268s-102.185-45.825-102.185-102.268c0-56.444 45.788-102.268 102.185-102.268 56.397 0 102.184 45.824 102.184 102.268z"/>
  <path d="M9080.55 4838.34a98.492 98.492 0 01-29.6 5.843 3.127 3.127 0 00-2.992 3.253 3.127 3.127 0 003.253 2.992 104.752 104.752 0 0031.475-6.214 3.126 3.126 0 00-2.136-5.874zm-59.597 2.531a98.533 98.533 0 01-27.581-12.229 3.127 3.127 0 00-4.318.941 3.127 3.127 0 00.942 4.318 104.729 104.729 0 0029.33 13.004 3.126 3.126 0 001.627-6.034zm106.919-38.862a99.824 99.824 0 01-20.877 21.801 3.128 3.128 0 00-.574 4.382 3.127 3.127 0 004.382.573 106.03 106.03 0 0022.185-23.166 3.126 3.126 0 00-5.116-3.59zm-157.136 6.666a99.212 99.212 0 01-15.614-25.825 3.126 3.126 0 00-4.079-1.699 3.126 3.126 0 00-1.699 4.08 105.454 105.454 0 0016.596 27.452 3.126 3.126 0 004.796-4.008zm175.067-64.615a99.706 99.706 0 00-1.401-15.658 3.127 3.127 0 012.557-3.605 3.127 3.127 0 013.605 2.557 106.036 106.036 0 011.494 17.774c0 11.047-1.703 21.699-4.858 31.709a3.127 3.127 0 01-3.92 2.041 3.127 3.127 0 01-2.041-3.921 99.035 99.035 0 004.569-29.829l-.005-1.068zm-197.763 9.462a100.474 100.474 0 01-.351-8.394c0-7.461.825-14.73 2.389-21.722a3.128 3.128 0 00-2.368-3.732 3.128 3.128 0 00-3.732 2.368 105.667 105.667 0 00-2.539 23.086c0 3.003.126 5.977.373 8.917a3.125 3.125 0 006.228-.523zm169.068-78.155a99.548 99.548 0 0117.741 24.417 3.127 3.127 0 004.21 1.347 3.128 3.128 0 001.346-4.21 105.787 105.787 0 00-18.855-25.951 3.125 3.125 0 00-4.442 4.397zm-156.012 19.952a99.714 99.714 0 0118.967-23.479 3.125 3.125 0 00-4.211-4.618 105.941 105.941 0 00-20.157 24.952 3.126 3.126 0 005.401 3.145zm103.256-47.771a98.264 98.264 0 0128.52 9.832 3.125 3.125 0 002.919-5.526 104.518 104.518 0 00-30.333-10.458 3.128 3.128 0 00-3.629 2.523 3.127 3.127 0 002.523 3.629zm-59.165 7.571a98.237 98.237 0 0128.991-8.342 3.128 3.128 0 002.707-3.494 3.127 3.127 0 00-3.494-2.707 104.494 104.494 0 00-30.834 8.874 3.127 3.127 0 00-1.52 4.149 3.126 3.126 0 004.15 1.52z" fill="#fff"/>
  <path d="M6901.13 835.701c0 56.443-45.788 102.268-102.185 102.268-56.397 0-102.184-45.825-102.184-102.268 0-56.444 45.787-102.268 102.184-102.268s102.185 45.824 102.185 102.268z"/>
  <path d="M6832.74 928.913a98.486 98.486 0 01-29.6 5.843 3.125 3.125 0 00.262 6.244 104.726 104.726 0 0031.475-6.213 3.126 3.126 0 00-2.137-5.874zm-59.596 2.531a98.533 98.533 0 01-27.581-12.229 3.126 3.126 0 00-4.318.941 3.126 3.126 0 00.941 4.318 104.747 104.747 0 0029.331 13.004 3.126 3.126 0 001.627-6.034zm106.918-38.862a99.82 99.82 0 01-20.876 21.801 3.126 3.126 0 00-.574 4.382 3.127 3.127 0 004.382.573 106.071 106.071 0 0022.184-23.166 3.126 3.126 0 00-5.116-3.59zm-157.135 6.666a99.185 99.185 0 01-15.614-25.825 3.127 3.127 0 00-4.08-1.699 3.127 3.127 0 00-1.699 4.08 105.457 105.457 0 0016.597 27.452 3.126 3.126 0 004.796-4.008zm175.066-64.615a99.587 99.587 0 00-1.4-15.658 3.126 3.126 0 012.557-3.605 3.126 3.126 0 013.604 2.557 105.929 105.929 0 011.489 16.639l.006 1.135c0 11.047-1.703 21.699-4.859 31.709a3.125 3.125 0 01-5.96-1.88 99.067 99.067 0 004.569-29.829l-.006-1.068zm-197.763 9.462c-.232-2.768-.35-5.567-.35-8.394 0-7.461.825-14.73 2.388-21.722a3.126 3.126 0 00-2.367-3.732 3.127 3.127 0 00-3.732 2.368 105.667 105.667 0 00-2.539 23.086c0 3.003.126 5.977.372 8.916a3.125 3.125 0 006.228-.522zm169.069-78.155a99.548 99.548 0 0117.741 24.417 3.125 3.125 0 005.555-2.863 105.81 105.81 0 00-18.854-25.951 3.126 3.126 0 00-4.442 4.397zm-156.012 19.952a99.689 99.689 0 0118.967-23.479 3.127 3.127 0 00.203-4.415 3.127 3.127 0 00-4.415-.203 105.937 105.937 0 00-20.156 24.952 3.126 3.126 0 005.401 3.145zm103.256-47.771a98.274 98.274 0 0128.52 9.832 3.127 3.127 0 004.223-1.304 3.126 3.126 0 00-1.304-4.222 104.528 104.528 0 00-30.333-10.458 3.126 3.126 0 00-1.106 6.152zm-59.165 7.571a98.268 98.268 0 0128.991-8.343 3.125 3.125 0 00-.787-6.2 104.523 104.523 0 00-30.834 8.873 3.126 3.126 0 002.63 5.67z" fill="#fff"/>
  <path d="M6901.13 8535.76c0 56.443-45.788 102.268-102.185 102.268-56.397 0-102.184-45.825-102.184-102.268 0-56.444 45.787-102.268 102.184-102.268s102.185 45.824 102.185 102.268z"/>
  <path d="M6832.74 8628.97a98.486 98.486 0 01-29.6 5.843 3.126 3.126 0 00.262 6.245 104.758 104.758 0 0031.475-6.214 3.126 3.126 0 00-2.137-5.874zm-59.596 2.531a98.533 98.533 0 01-27.581-12.229 3.126 3.126 0 00-4.318.941 3.126 3.126 0 00.941 4.318 104.747 104.747 0 0029.331 13.004 3.126 3.126 0 003.831-2.204 3.126 3.126 0 00-2.204-3.83zm106.918-38.862a99.82 99.82 0 01-20.876 21.801 3.126 3.126 0 00-.574 4.382 3.127 3.127 0 004.382.573 106.05 106.05 0 0022.184-23.166 3.126 3.126 0 00-5.116-3.59zm-157.135 6.666a99.185 99.185 0 01-15.614-25.825 3.127 3.127 0 00-4.08-1.699 3.127 3.127 0 00-1.699 4.08 105.457 105.457 0 0016.597 27.452 3.126 3.126 0 004.796-4.008zm175.072-63.547c0-5.7-.482-11.288-1.406-16.726a3.127 3.127 0 012.557-3.605 3.126 3.126 0 013.604 2.557 105.93 105.93 0 011.495 17.774c0 11.047-1.703 21.699-4.859 31.709a3.127 3.127 0 01-3.92 2.041 3.127 3.127 0 01-2.04-3.921 99.067 99.067 0 004.569-29.829zm-197.769 8.394c-.232-2.768-.35-5.567-.35-8.394 0-7.461.825-14.73 2.388-21.722a3.126 3.126 0 00-2.367-3.732 3.127 3.127 0 00-3.732 2.368 105.667 105.667 0 00-2.539 23.086c0 3.003.126 5.977.372 8.917a3.126 3.126 0 006.228-.523zm169.069-78.155a99.548 99.548 0 0117.741 24.417 3.127 3.127 0 004.209 1.347 3.128 3.128 0 001.346-4.21 105.81 105.81 0 00-18.854-25.951 3.126 3.126 0 00-4.442 4.397zm-156.012 19.952a99.689 99.689 0 0118.967-23.479 3.127 3.127 0 00.203-4.415 3.127 3.127 0 00-4.415-.203 105.937 105.937 0 00-20.156 24.952 3.126 3.126 0 005.401 3.145zm103.256-47.771a98.274 98.274 0 0128.52 9.832 3.127 3.127 0 004.223-1.304 3.126 3.126 0 00-1.304-4.222 104.528 104.528 0 00-30.333-10.458 3.126 3.126 0 00-1.106 6.152zm-59.165 7.571a98.237 98.237 0 0128.991-8.342 3.126 3.126 0 00-.787-6.201 104.494 104.494 0 00-30.834 8.874 3.125 3.125 0 002.63 5.669z" fill="#fff"/>
  <path d="M8678.1 4245.89l-9.48-19.583 19.812-9.591 9.59 19.812-4.875 2.36 8.581 7.385-14.356 16.684-13.766-11.845 4.494-5.222zm-87.918-66.56l16.685 14.357 14.356-16.685-16.685-14.357-14.356 16.685zm112.925 1.681l-.734-21.999-21.999.734.734 21.999 21.999-.734zm-82.439-53.764l9.59 19.812 19.812-9.591-9.59-19.812-19.812 9.591zm-113.91-19.699l16.685 14.357 14.356-16.685-16.685-14.357-14.356 16.685zm192.679-36.531l-.734-21.999-21.999.734.734 21.999 21.999-.734zm-276.103-35.251l16.685 14.356 14.356-16.684-16.684-14.357-14.357 16.685zm149.382-7.579l9.59 19.811 19.812-9.59-9.59-19.812-19.812 9.591zm-232.806-64.203l16.685 14.357 14.356-16.685-16.684-14.357-14.357 16.685zm355.858-2.961l-.734-21.999-21.999.734.734 21.999 21.999-.734zm-171.004-31.896l9.591 19.812 19.812-9.59-9.591-19.813-19.812 9.591zm-268.278-36.925l16.685 14.356 14.356-16.685-16.685-14.356-14.356 16.685zm80.338-68.957l-19.812 9.591 9.59 19.812 19.812-9.591-9.59-19.812zm355.275 27.784l-.734-22-21.999.734.734 21.999 21.999-.733zm-215.287-20.962a95327.74 95327.74 0 019.59 19.812l19.812-9.591-9.59-19.812-19.812 9.591zm-40.928-54.774l-19.812 9.591 9.59 19.812 19.812-9.591-9.59-19.812zm99.06-47.952l-19.812 9.591 9.59 19.812 19.812-9.591-9.59-19.812zm-106.083 3.666l9.59 19.812 19.812-9.59-9.59-19.812-19.812 9.59zm259.568 10.027l-.733-21.999-21.999.734.734 21.999 21.998-.734zm-54.425-61.644l-19.812 9.59 9.59 19.812 19.812-9.59-9.59-19.812zm-253.095-47.443l9.59 19.812 19.812-9.591-9.59-19.811-19.812 9.59zm-47.952-99.059l9.59 19.812 19.812-9.591-9.59-19.811-19.812 9.59zm-47.952-99.06l9.59 19.812 19.812-9.591-9.59-19.811-19.812 9.59zm-47.951-99.058l9.59 19.81 19.812-9.59-9.59-19.811-19.812 9.591zm-47.953-99.062l9.591 19.813 19.812-9.59-9.591-19.813-19.812 9.59zm-47.951-99.058l9.59 19.811 19.812-9.59-9.59-19.812-19.812 9.591zm-47.952-99.061l9.59 19.812 19.812-9.591-9.59-19.811-19.812 9.59zm-47.951-99.059l9.59 19.812 19.812-9.59-9.59-19.812-19.812 9.59zm-47.952-99.06l9.59 19.813 19.812-9.591-9.59-19.812-19.812 9.59zm-47.953-99.061l9.591 19.812 19.812-9.59-9.591-19.812-19.812 9.59zm-47.951-99.059l9.59 19.812 19.812-9.591-9.59-19.811-19.812 9.59zm-47.953-99.061l9.591 19.813 19.812-9.59-9.591-19.814-19.812 9.591zm-47.953-99.063l9.591 19.813 19.812-9.591-9.591-19.812-19.812 9.59zm-47.952-99.06l9.59 19.81 19.812-9.59-9.59-19.81-19.812 9.59zm-47.953-99.062l9.592 19.814 19.812-9.59-9.592-19.815-19.812 9.591zm-47.953-99.062l9.591 19.813 19.812-9.59-9.591-19.814-19.812 9.591zm-47.953-99.063l9.591 19.813 19.812-9.591-9.591-19.812-19.812 9.59zm-47.952-99.06l9.591 19.813 19.812-9.59-9.591-19.813-19.812 9.59zm-47.953-99.062l9.591 19.814 19.812-9.591-9.591-19.813-19.812 9.59zm-47.952-99.06l9.592 19.814 19.812-9.59-9.592-19.814-19.812 9.59zm-47.951-99.058l9.591 19.812 19.812-9.59-9.591-19.812-19.812 9.59zm-47.952-99.061l9.59 19.812 19.812-9.59-9.59-19.813-19.812 9.591zm-47.953-99.061l9.591 19.812 19.812-9.59-9.591-19.812-19.812 9.59zm-47.952-99.061l9.59 19.811 19.812-9.59-9.59-19.812-19.812 9.591zm-47.951-99.059l9.59 19.812 19.812-9.59-9.59-19.812-19.812 9.59z"/>
  <path d="M7260.8 7159.19l-264.072 149.748m0 0l434.867 159.765m-453.033-621.438l18.166 461.673m-18.166-461.673L7260.8 7159.19m181.041-463.89l-463.279 151.965m463.279-151.965l-182.436-2.473m0 0l-280.843 154.438m463.279-151.965L7260.8 7159.19m468.891-51.436l-298.096 360.949M7260.8 7159.19l170.795 309.513m10.246-773.403l205.608 130.192m0 0l82.242 282.262M7260.8 7159.19l468.891-51.436m-287.85-412.454l287.85 412.454M6482.44 1723.95l392.432 336.918m-1.857-750.188l-390.575 413.27 390.575-413.27zm0 0l356.96 378.481-356.96-378.481zm0 0l112.083 493-112.083-493zm356.96 378.481l-355.103 371.707 355.103-371.707zm0 0l-244.877 114.519 244.877-114.519zm-244.877 114.519l-110.226 257.188 110.226-257.188zm-502.658-79.73l502.658 79.73-502.658-79.73zM2546.27 5222.89l305.778-44.421m0 0l123.965-75.411m-630.931-109.145l201.188 228.977m327.382-337.459c-2.754 5.51-21.604 293.038-21.604 293.038m-555.498-323.571l48.532 139.015m176.145-237.034l352.425 128.552m153.923-206.938l39.345 164.24m-90.907 260.325l90.907-260.325m-39.345-164.24l-153.923 206.938m-352.425-128.552c-2.755 5.509-176.145 237.034-176.145 237.034m478.078-522.024l204.415 206.604m-493.847-180.904l289.432-25.7m-427.505 125.87l138.073-100.17m-12.501 259.29l12.501-259.29m-138.073 100.17l-99.105 257.139" fill="none" stroke="#000" stroke-width="5.45" stroke-miterlimit="4"/>
  <g fill="none" stroke="#000" stroke-linecap="butt">
    <path d="M5538.7 4820.94l313.146 308.143M5538.7 4820.94l-85.846-528.46m-480.001 744.511L5538.7 4820.94" stroke-width="5.45" stroke-linejoin="miter" stroke-miterlimit="4"/>
    <path d="M5454.02 4292.48s-487.653 748.328-480.082 748.328c7.571 0 882.841 93.038 882.841 93.038L5454.02 4292.48z" stroke-opacity=".5" stroke-width="8.75" stroke-miterlimit="1.414"/>
  </g>
  <path d="M10279.6 4534.48l-285.898 87.274m-426.339-72.944l426.339 72.944m-100.459-131.986l-325.88 59.042m325.88-59.042l386.357 44.712m0 0l-30.667 448.572m0 0l-262.47 199.316m7.239-560.614l-7.239 560.614m-386.14-159.21l-32.96-474.348m419.1 633.558l-386.14-159.21" fill="none" stroke="#000" stroke-width="5.45" stroke-linejoin="bevel" stroke-miterlimit="4"/>
  <text x="1741.03" y="4955.13" font-family="'LucidaGrande','Lucida Grande',sans-serif" font-weight="500" font-size="512.5">
    0
  </text>
  <text x="7623.53" y="1107.65" font-family="'LucidaGrande','Lucida Grande',sans-serif" font-weight="500" font-size="512.5">
    3
  </text>
  <text x="9241.15" y="4304.97" font-family="'LucidaGrande','Lucida Grande',sans-serif" font-weight="500" font-size="512.5">
    4
  </text>
  <text x="6642.45" y="7935.87" font-family="'LucidaGrande','Lucida Grande',sans-serif" font-weight="500" font-size="512.5">
    2
  </text>
  <text x="3931.65" y="4960.64" font-family="'LucidaGrande','Lucida Grande',sans-serif" font-weight="500" font-size="512.5">
    1
  </text>
</svg>