<svg
  viewBox="0 0 13668 9327"
  xmlns="http://www.w3.org/2000/svg"
  fill-rule="evenodd"
  clip-rule="evenodd"
  stroke-linecap="square"
  stroke-miterlimit="1.5"
>
  <path fill="none" d="M0 0h13667.6v9326.44H0z" />
  <path
    d="M9053.15 212.451l-4444.34 8901.56"
    fill="none"
    stroke="#4efc0e"
    stroke-width="58.33"
  />
  <path
    d="M9053.15 212.451l-4455.71 4492.41"
    fill="none"
    stroke="#00ebbb"
    stroke-width="58.33"
  />
  <path
    d="M6845.74 818.901l-18.717 7688.65"
    fill="none"
    stroke="#fc3333"
    stroke-width="58.33"
  />
  <path
    d="M4628.88 278.637l-20.032 8824.89M9068.44 278.637l-20.032 8824.89"
    fill="none"
    stroke="#888787"
    stroke-width="29.17"
  />
  <path
    d="M4615.06 4735.36l-4446-30.501"
    fill="none"
    stroke="#ff1ee1"
    stroke-width="58.33"
    stroke-dasharray="58.33,175,0,0"
  />
  <text
    x="7039.68"
    y="6418.61"
    font-family="'Montserrat-Regular','Montserrat'"
    font-size="328.468"
  >
    √<tspan x="7317.56" y="6418.61">3</tspan>
  </text>
  <text
    x="5673.52"
    y="5222.37"
    font-family="'Montserrat-Regular','Montserrat'"
    font-size="328.468"
  >
    √<tspan x="5951.4" y="5222.37">5</tspan>
  </text>
  <text
    x="2157.45"
    y="5434.69"
    font-family="'Montserrat-Regular','Montserrat'"
    font-size="328.468"
  >
    1
  </text>
  <text
    x="5673.52"
    y="2556.87"
    font-family="'Montserrat-Regular','Montserrat'"
    font-size="328.468"
  >
    √<tspan x="5951.4" y="2556.87">2</tspan>
  </text>
  <path
    d="M4598.05 9099.42a4502.68 4502.68 0 01-145.332-2.487c-8.044-.267-14.793 6.046-15.06 14.091-.268 8.044 6.046 14.792 14.09 15.06a4534.938 4534.938 0 00146.273 2.503c8.048.008 14.59-6.52 14.598-14.569.008-8.049-6.521-14.59-14.569-14.598zm290.524-9.084a4484.682 4484.682 0 01-145.19 6.89c-8.045.251-14.373 6.986-14.121 15.031.251 8.045 6.986 14.372 15.031 14.121a4511.144 4511.144 0 00146.135-6.935c8.033-.512 14.139-7.449 13.627-15.481-.512-8.032-7.449-14.138-15.482-13.626zm-581.031-.591a4456.38 4456.38 0 01-144.861-11.908c-8.01-.79-15.154 5.071-15.945 13.081-.79 8.01 5.072 15.155 13.081 15.945a4486.141 4486.141 0 00145.809 11.986c8.032.528 14.981-5.563 15.51-13.594.529-8.032-5.563-14.981-13.594-15.51zm870.348-27.344a4441.318 4441.318 0 01-144.429 16.33c-8.012.773-13.888 7.905-13.115 15.917.774 8.012 7.906 13.888 15.917 13.115a4473.693 4473.693 0 00145.378-16.437c7.982-1.035 13.622-8.356 12.587-16.338-1.035-7.982-8.356-13.622-16.338-12.587zm-1159.6-1.2a4423.281 4423.281 0 01-143.773-21.366c-7.941-1.313-15.455 4.067-16.769 12.008-1.313 7.941 4.067 15.454 12.008 16.768a4449.405 4449.405 0 00144.722 21.506c7.979 1.052 15.312-4.572 16.364-12.552 1.052-7.979-4.572-15.312-12.552-16.364zm1446.46-45.627a4416.245 4416.245 0 01-143.043 25.772c-7.944 1.297-13.341 8.798-12.044 16.742 1.297 7.944 8.799 13.34 16.742 12.044a4445.932 4445.932 0 00143.989-25.943c7.897-1.557 13.043-9.233 11.486-17.129-1.558-7.897-9.233-13.044-17.13-11.486zm-1733.22-1.82a4405.921 4405.921 0 01-142.044-30.781c-7.837-1.834-15.689 3.04-17.523 10.877-1.834 7.837 3.039 15.688 10.876 17.522a4432.912 4432.912 0 00142.985 30.985c7.894 1.574 15.58-3.555 17.155-11.449 1.574-7.893-3.555-15.58-11.449-17.154zm2016.36-63.796a4401.785 4401.785 0 01-141.032 35.144c-7.841 1.817-12.731 9.658-10.914 17.499 1.817 7.841 9.658 12.732 17.499 10.915a4433.403 4433.403 0 00141.966-35.377c7.777-2.075 12.406-10.073 10.331-17.85-2.075-7.777-10.073-12.406-17.85-10.331zm-2299.36-2.437a4400.217 4400.217 0 01-139.709-40.09c-7.699-2.348-15.856 1.997-18.203 9.696-2.348 7.698 1.997 15.855 9.696 18.202a4428.405 4428.405 0 00140.636 40.357c7.772 2.091 15.78-2.52 17.872-10.292 2.092-7.772-2.519-15.781-10.292-17.873zm2577.56-81.725a4400.257 4400.257 0 01-138.404 44.379c-7.704 2.331-12.067 10.478-9.736 18.181 2.331 7.704 10.477 12.067 18.181 9.736a4427.421 4427.421 0 00139.322-44.674c7.623-2.583 11.714-10.87 9.13-18.493-2.584-7.622-10.87-11.713-18.493-9.129zm-2855.57-3.046a4400.042 4400.042 0 01-136.755-49.226c-7.527-2.85-15.952.947-18.803 8.474-2.851 7.527.946 15.952 8.473 18.803a4433.034 4433.034 0 00137.662 49.551c7.617 2.601 15.912-1.472 18.513-9.089 2.6-7.617-1.473-15.913-9.09-18.513zm3127.61-99.297a4406.681 4406.681 0 01-135.173 53.416c-7.533 2.834-11.349 11.251-8.514 18.784 2.834 7.534 11.251 11.349 18.784 8.515a4436.894 4436.894 0 00136.068-53.77c7.436-3.082 10.971-11.62 7.89-19.056-3.081-7.435-11.619-10.971-19.055-7.889zm-3399.42-3.64a4413.347 4413.347 0 01-133.215-58.135c-7.323-3.34-15.98-.107-19.32 7.216-3.341 7.323-.107 15.98 7.216 19.321a4442.18 4442.18 0 00134.095 58.518c7.429 3.098 15.975-.419 19.072-7.848 3.098-7.429-.419-15.975-7.848-19.072zm3664.12-116.409a4416.85 4416.85 0 01-131.365 62.204c-7.33 3.325-10.582 11.975-7.257 19.305 3.324 7.33 11.974 10.582 19.304 7.258a4448.022 4448.022 0 00132.232-62.615c7.217-3.564 10.183-12.317 6.619-19.533-3.564-7.217-12.317-10.183-19.533-6.619zm-3928.57-4.215a4421.816 4421.816 0 01-129.106-66.768c-7.088-3.815-15.939-1.157-19.753 5.93-3.814 7.088-1.157 15.939 5.931 19.753a4454.029 4454.029 0 00129.957 67.209c7.209 3.58 15.968.633 19.547-6.576 3.579-7.209.633-15.968-6.576-19.548zm4184.81-132.972a4427.9 4427.9 0 01-126.995 70.697c-7.096 3.799-9.772 12.645-5.973 19.74 3.799 7.096 12.644 9.773 19.74 5.974a4463.778 4463.778 0 00127.831-71.163c6.967-4.03 9.352-12.958 5.323-19.926-4.03-6.967-12.958-9.352-19.926-5.322zm-4440.76-4.764a4440.315 4440.315 0 01-124.451-75.087c-6.823-4.271-15.829-2.198-20.099 4.624-4.27 6.823-2.198 15.829 4.624 20.099a4471.342 4471.342 0 00125.269 75.581c6.959 4.044 15.892 1.678 19.937-5.281 4.045-6.958 1.679-15.892-5.28-19.936zm4687.46-148.918a4442.873 4442.873 0 01-122.094 78.86c-6.832 4.256-8.923 13.257-4.667 20.089 4.255 6.832 13.257 8.923 20.089 4.667a4475.553 4475.553 0 00122.895-79.377c6.689-4.477 8.485-13.542 4.008-20.231-4.477-6.689-13.542-8.485-20.231-4.008zm-4933.84-5.288a4454.356 4454.356 0 01-119.283-83.062c-6.529-4.707-15.651-3.227-20.357 3.302-4.707 6.529-3.227 15.651 3.302 20.358a4480.617 4480.617 0 00120.064 83.606c6.68 4.491 15.748 2.714 20.239-3.965 4.491-6.679 2.715-15.748-3.965-20.239zm5169.98-164.183a4460.925 4460.925 0 01-116.691 86.664c-6.539 4.693-8.038 13.812-3.345 20.351 4.692 6.539 13.811 8.037 20.35 3.345a4485.472 4485.472 0 00117.455-87.232c6.383-4.903 7.583-14.066 2.68-20.449-4.904-6.382-14.067-7.583-20.449-2.679zm-5405.78-5.787a4464.7 4464.7 0 01-113.615-90.659c-6.208-5.122-15.407-4.239-20.529 1.969-5.122 6.209-4.24 15.408 1.969 20.53a4494.724 4494.724 0 00114.357 91.251c6.373 4.917 15.538 3.736 20.455-2.637 4.917-6.372 3.736-15.537-2.637-20.454zm5630.38-178.712a4463.106 4463.106 0 01-110.797 94.077c-6.219 5.109-7.121 14.306-2.012 20.526 5.109 6.219 14.306 7.121 20.526 2.012a4493.212 4493.212 0 00111.521-94.692c6.05-5.308 6.651-14.53 1.343-20.58-5.309-6.05-14.531-6.651-20.581-1.343zm-5854.6-6.256a4469.138 4469.138 0 01-107.476-97.857c-5.863-5.515-15.1-5.233-20.615.63-5.514 5.862-5.232 15.099.63 20.614a4497.372 4497.372 0 00108.178 98.496c6.039 5.322 15.262 4.739 20.583-1.3 5.322-6.039 4.739-15.261-1.3-20.583zm6066.72-192.462a4468.147 4468.147 0 01-104.448 101.085c-5.874 5.503-6.176 14.739-.673 20.613 5.503 5.874 14.739 6.176 20.613.673a4498.504 4498.504 0 00105.13-101.745c5.692-5.691 5.693-14.932.002-20.624-5.691-5.692-14.932-5.693-20.624-.002zm-6278.43-6.694a4467.893 4467.893 0 01-100.887-104.636c-5.492-5.884-14.728-6.203-20.612-.712-5.884 5.492-6.203 14.728-.711 20.612a4496.176 4496.176 0 00101.545 105.319c5.68 5.702 14.921 5.721 20.624.041 5.702-5.681 5.721-14.922.041-20.624zm6477.19-205.391a4466.762 4466.762 0 01-97.653 107.658c-5.504 5.873-5.205 15.109.668 20.613s15.11 5.204 20.613-.669a4497.053 4497.053 0 0098.291-108.36c5.31-6.049 4.71-15.271-1.339-20.581-6.048-5.309-15.27-4.71-20.58 1.339zm-6675.51-7.11a4464.82 4464.82 0 01-93.869-110.975c-5.097-6.229-14.292-7.148-20.521-2.05-6.229 5.097-7.148 14.292-2.051 20.521a4495.224 4495.224 0 0094.482 111.7c5.298 6.06 14.518 6.679 20.578 1.382 6.06-5.298 6.679-14.518 1.381-20.578zm6860.06-217.458a4460.113 4460.113 0 01-90.446 113.787c-5.11 6.218-4.21 15.416 2.008 20.526 6.219 5.11 15.416 4.211 20.526-2.008a4490.142 4490.142 0 0091.037-114.53c4.905-6.382 3.706-15.545-2.675-20.45-6.382-4.905-15.545-3.706-20.45 2.675zm-7044.14-7.491a4455.902 4455.902 0 01-86.443-116.852c-4.681-6.548-13.797-8.064-20.345-3.384-6.548 4.681-8.064 13.797-3.383 20.345a4483.79 4483.79 0 0087.009 117.617c4.891 6.392 14.052 7.61 20.444 2.718 6.391-4.891 7.609-14.052 2.718-20.444zm7213.66-228.618a4453.286 4453.286 0 01-82.838 119.44c-4.694 6.538-3.197 15.657 3.341 20.351 6.538 4.695 15.657 3.198 20.352-3.34a4481.896 4481.896 0 0083.38-120.223c4.478-6.688 2.684-15.753-4.004-20.232-6.687-4.478-15.753-2.684-20.231 4.004zm-7382.69-7.844a4445.562 4445.562 0 01-78.63-122.245c-4.242-6.84-13.24-8.948-20.08-4.705-6.839 4.243-8.948 13.24-4.705 20.08a4474.39 4474.39 0 0079.146 123.047c4.464 6.697 13.526 8.51 20.223 4.046 6.698-4.464 8.511-13.526 4.046-20.223zm7536.43-238.828a4438.834 4438.834 0 01-74.852 124.593c-4.257 6.831-2.168 15.833 4.663 20.09 6.83 4.258 15.832 2.169 20.09-4.662a4468.371 4468.371 0 0075.343-125.412c4.032-6.966 1.649-15.895-5.318-19.927-6.966-4.031-15.895-1.648-19.926 5.318zm-7689.64-8.17a4432.387 4432.387 0 01-70.456-127.128c-3.785-7.103-12.625-9.797-19.728-6.011-7.103 3.786-9.797 12.626-6.011 19.729a4459.594 4459.594 0 0070.92 127.965c4.016 6.975 12.94 9.376 19.915 5.36 6.975-4.017 9.377-12.94 5.36-19.915zm7826.89-248.037a4422.207 4422.207 0 01-66.522 129.229c-3.801 7.095-1.126 15.941 5.969 19.742 7.094 3.801 15.94 1.126 19.741-5.969a4454.423 4454.423 0 0066.961-130.081c3.565-7.216.602-15.969-6.614-19.535-7.216-3.565-15.969-.602-19.535 6.614zm-7963.59-8.467a4416.157 4416.157 0 01-61.955-131.483c-3.31-7.336-11.954-10.605-19.291-7.294-7.336 3.31-10.605 11.954-7.294 19.291a4444.692 4444.692 0 0062.364 132.351c3.55 7.223 12.297 10.206 19.52 6.656 7.224-3.55 10.206-12.297 6.656-19.521zm8083.71-256.208a4411.04 4411.04 0 01-57.88 133.324c-3.327 7.33-.077 15.981 7.252 19.307 7.329 3.326 15.98.076 19.307-7.253a4439.994 4439.994 0 0058.263-134.206c3.083-7.434-.45-15.974-7.885-19.057-7.435-3.083-15.974.45-19.057 7.885zm-8203.26-8.725a4408.007 4408.007 0 01-53.159-135.276c-2.819-7.539-11.229-11.37-18.768-8.55-7.538 2.819-11.37 11.229-8.55 18.768a4434.608 4434.608 0 0053.511 136.171c3.067 7.442 11.598 10.994 19.04 7.927 7.442-3.067 10.993-11.599 7.926-19.04zm8305.68-263.276a4401.49 4401.49 0 01-48.963 136.844c-2.836 7.533.976 15.951 8.509 18.787 7.532 2.836 15.951-.976 18.787-8.509a4430.216 4430.216 0 0049.287-137.751c2.586-7.622-1.502-15.91-9.124-18.496-7.622-2.586-15.91 1.503-18.496 9.125zm-8407.5-8.957a4397.66 4397.66 0 01-44.115-138.489c-2.316-7.708-10.455-12.086-18.163-9.77-7.709 2.316-12.087 10.454-9.771 18.162a4428.312 4428.312 0 0044.408 139.408c2.569 7.627 10.848 11.734 18.475 9.165 7.628-2.57 11.735-10.848 9.166-18.476zm8491.74-269.217a4399.134 4399.134 0 01-39.823 139.782c-2.333 7.703 2.027 15.851 9.731 18.184 7.703 2.333 15.851-2.027 18.184-9.73a4428.026 4428.026 0 0040.086-140.709c2.078-7.776-2.549-15.775-10.325-17.852-7.777-2.078-15.776 2.549-17.853 10.325zm-8575.37-9.143a4404.244 4404.244 0 01-34.875-141.099c-1.802-7.845-9.633-12.75-17.478-10.948-7.844 1.802-12.75 9.633-10.948 17.478a4433.23 4433.23 0 0035.106 142.034c2.06 7.781 10.05 12.425 17.83 10.365 7.781-2.06 12.426-10.049 10.365-17.83zm8641.07-273.986a4405.037 4405.037 0 01-30.51 142.103c-1.819 7.841 3.069 15.683 10.91 17.502 7.84 1.82 15.683-3.069 17.502-10.909a4437.975 4437.975 0 0030.712-143.044c1.559-7.896-3.585-15.573-11.482-17.133-7.896-1.559-15.573 3.585-17.132 11.481zm-8706.14-9.286a4415.825 4415.825 0 01-25.499-143.092c-1.282-7.946-8.773-13.357-16.719-12.075-7.947 1.281-13.357 8.773-12.076 16.719a4445.438 4445.438 0 0025.668 144.037c1.543 7.9 9.208 13.061 17.108 11.518 7.899-1.542 13.061-9.208 11.518-17.107zm8753.04-277.558a4424.416 4424.416 0 01-21.091 143.809c-1.299 7.944 4.096 15.447 12.039 16.746 7.943 1.298 15.447-4.096 16.745-12.039a4454.504 4454.504 0 0021.231-144.758c1.037-7.981-4.601-15.303-12.583-16.34-7.982-1.037-15.304 4.601-16.341 12.582zm-8799.33-9.389a4443.818 4443.818 0 01-16.057-144.46c-.758-8.013-7.879-13.903-15.892-13.145-8.013.758-13.903 7.879-13.145 15.892 4.609 48.702 10 97.176 16.162 145.409 1.02 7.984 8.33 13.638 16.314 12.618 7.984-1.02 13.638-8.33 12.618-16.314zm8827.32-279.922a4458.309 4458.309 0 01-11.635 144.888c-.776 8.011 5.099 15.145 13.111 15.92 8.011.775 15.145-5.1 15.92-13.111a4485.256 4485.256 0 0011.711-145.836c.514-8.032-5.591-14.971-13.623-15.484-8.032-.514-14.971 5.591-15.484 13.623zm-8854.71-9.448a4483.76 4483.76 0 01-6.618-145.203c-.236-8.046-6.96-14.386-15.005-14.149-8.045.236-14.385 6.96-14.149 15.005A4513.154 4513.154 0 00146 4942.424c.497 8.034 7.422 14.153 15.455 13.656 8.034-.497 14.153-7.422 13.656-15.456zm8863.84-281.078c.042 48.631-.701 97.082-2.216 145.34-.253 8.045 6.074 14.782 14.118 15.034 8.045.253 14.782-6.074 15.034-14.118a4534.32 4534.32 0 002.23-146.282c-.006-8.048-6.547-14.577-14.595-14.57-8.049.007-14.578 6.547-14.571 14.596zm-8872.39-9.465a4504.139 4504.139 0 012.759-145.336c.283-8.043-6.018-14.804-14.062-15.086-8.044-.283-14.804 6.018-15.087 14.062a4533.509 4533.509 0 00-2.776 146.277c-.023 8.049 6.493 14.602 14.542 14.625 8.048.023 14.602-6.493 14.624-14.542zm8862.76-281.044a4485.36 4485.36 0 017.162 145.177c.266 8.045 7.013 14.359 15.057 14.093 8.045-.266 14.36-7.014 14.093-15.058a4512.092 4512.092 0 00-7.208-146.122c-.527-8.032-7.476-14.124-15.507-13.597-8.032.527-14.124 7.475-13.597 15.507zm-8852.54-9.454a4454.468 4454.468 0 0112.183-144.845c.805-8.009-5.043-15.164-13.051-15.97-8.008-.805-15.164 5.043-15.969 13.051a4481.425 4481.425 0 00-12.263 145.793c-.543 8.031 5.535 14.992 13.565 15.536 8.031.543 14.992-5.535 15.535-13.565zm8824.06-279.81a4442.319 4442.319 0 0116.603 144.399c.788 8.01 7.932 13.873 15.942 13.084 8.01-.788 13.873-7.932 13.084-15.942a4469.388 4469.388 0 00-16.712-145.347c-1.05-7.979-8.381-13.606-16.361-12.555-7.98 1.05-13.606 8.381-12.556 16.361zm-8794.97-9.395a4423.371 4423.371 0 0121.638-143.725c1.329-7.938-4.037-15.462-11.975-16.791-7.938-1.328-15.462 4.037-16.791 11.976a4452.535 4452.535 0 00-21.781 144.672c-1.067 7.978 4.543 15.321 12.521 16.388 7.978 1.068 15.321-4.542 16.388-12.52zm8747.59-277.373a4414.402 4414.402 0 0126.045 142.993c1.311 7.942 8.823 13.324 16.765 12.012 7.941-1.312 13.323-8.824 12.011-16.765a4443.535 4443.535 0 00-26.216-143.938c-1.573-7.894-9.258-13.026-17.151-11.454-7.894 1.573-13.026 9.258-11.454 17.152zm-8699.6-9.291a4406.252 4406.252 0 0131.052-141.985c1.849-7.833-3.009-15.694-10.843-17.543-7.833-1.85-15.694 3.009-17.543 10.842a4433.204 4433.204 0 00-31.258 142.925c-1.59 7.89 3.526 15.587 11.416 17.176 7.89 1.59 15.586-3.525 17.176-11.415zm8633.44-273.731a4400.038 4400.038 0 0135.414 140.965c1.832 7.838 9.682 12.714 17.52 10.882 7.837-1.832 12.713-9.683 10.881-17.52a4428.326 4428.326 0 00-35.648-141.899c-2.09-7.773-10.097-12.387-17.87-10.297-7.772 2.09-12.386 10.097-10.297 17.869zm-8566.67-9.137a4398.03 4398.03 0 0140.356-139.625c2.362-7.694-1.967-15.859-9.661-18.221-7.695-2.362-15.859 1.967-18.222 9.661a4432.142 4432.142 0 00-40.623 140.55c-2.106 7.769 2.49 15.786 10.258 17.893 7.768 2.106 15.785-2.49 17.892-10.258zm8481.98-268.899a4401.121 4401.121 0 0144.644 138.319c2.345 7.7 10.5 12.047 18.2 9.701 7.699-2.345 12.046-10.5 9.701-18.2a4429.078 4429.078 0 00-44.94-139.236c-2.599-7.618-10.893-11.693-18.511-9.095-7.617 2.599-11.692 10.893-9.094 18.511zm-8396.67-8.945a4406.262 4406.262 0 0149.488-136.664c2.865-7.521-.915-15.954-8.437-18.819-7.521-2.865-15.954.916-18.819 8.438a4433.073 4433.073 0 00-49.816 137.569c-2.615 7.612 1.442 15.915 9.054 18.53 7.612 2.615 15.915-1.442 18.53-9.054zm8293.81-262.895a4406.524 4406.524 0 0153.674 135.072c2.849 7.528 11.273 11.327 18.801 8.478 7.528-2.848 11.327-11.272 8.478-18.8a4435.23 4435.23 0 00-54.03-135.967c-3.095-7.43-11.64-10.949-19.07-7.853-7.43 3.095-10.949 11.64-7.853 19.07zm-8190.35-8.725a4413.007 4413.007 0 0158.389-133.104c3.354-7.316.137-15.979-7.179-19.334-7.317-3.354-15.98-.137-19.334 7.179a4439.371 4439.371 0 00-58.775 133.984c-3.112 7.423.389 15.975 7.812 19.087 7.423 3.111 15.975-.389 19.087-7.812zm8069.8-255.749a4417.556 4417.556 0 0162.454 131.244c3.338 7.323 11.994 10.559 19.318 7.221 7.324-3.339 10.56-11.995 7.221-19.319a4444.877 4444.877 0 00-62.866-132.11c-3.577-7.21-12.335-10.159-19.545-6.582-7.21 3.578-10.159 12.336-6.582 19.546zm-7948.67-8.462a4426.241 4426.241 0 0167.015-128.98c3.828-7.081 1.187-15.937-5.893-19.764-7.08-3.828-15.936-1.187-19.764 5.893a4454.775 4454.775 0 00-67.457 129.83c-3.593 7.202-.663 15.967 6.539 19.56 7.203 3.593 15.967.663 19.56-6.539zm7811-247.521a4431.097 4431.097 0 0170.939 126.863c3.813 7.088 12.663 9.748 19.751 5.936 7.089-3.813 9.749-12.663 5.936-19.752a4460.726 4460.726 0 00-71.406-127.698c-4.043-6.959-12.976-9.327-19.935-5.285-6.96 4.043-9.328 12.976-5.285 19.936zm-7672.77-8.17a4438.403 4438.403 0 0175.323-124.307c4.283-6.814 2.228-15.824-4.587-20.107-6.814-4.283-15.824-2.228-20.107 4.586a4467.881 4467.881 0 00-75.817 125.123c-4.058 6.951-1.709 15.889 5.242 19.947 6.951 4.058 15.889 1.709 19.946-5.242zm7518.62-238.247a4443.438 4443.438 0 0179.091 121.946c4.269 6.824 13.275 8.898 20.098 4.63 6.824-4.269 8.898-13.275 4.629-20.098a4472.247 4472.247 0 00-79.61-122.746c-4.489-6.681-13.558-8.459-20.238-3.97-6.681 4.49-8.459 13.558-3.97 20.238zm-7363.95-7.837a4451.336 4451.336 0 0183.285-119.123c4.719-6.521 3.257-15.645-3.264-20.364-6.52-4.719-15.645-3.257-20.364 3.263a4481.584 4481.584 0 00-83.831 119.904c-4.504 6.67-2.744 15.743 3.927 20.246 6.671 4.504 15.743 2.744 20.247-3.926zm7194.03-227.988a4455.622 4455.622 0 0186.884 116.527c4.705 6.53 13.827 8.012 20.357 3.307 6.53-4.705 8.012-13.827 3.307-20.357a4484.102 4484.102 0 00-87.453-117.29c-4.916-6.374-14.081-7.557-20.454-2.641-6.373 4.915-7.557 14.08-2.641 20.454zm-7023.62-7.481a4461.224 4461.224 0 0190.871-113.441c5.133-6.199 4.268-15.4-1.931-20.534-6.199-5.133-15.4-4.268-20.533 1.931a4489.033 4489.033 0 00-91.464 114.182c-4.929 6.363-3.765 15.531 2.598 20.46 6.363 4.929 15.53 3.765 20.459-2.598zm6838.7-216.775a4466.03 4466.03 0 0194.288 110.623c5.12 6.209 14.319 7.094 20.529 1.973 6.21-5.121 7.094-14.32 1.973-20.529a4493.94 4493.94 0 00-94.903-111.346c-5.32-6.039-14.543-6.624-20.583-1.304-6.04 5.32-6.624 14.543-1.304 20.583zm-6653.31-7.094a4467.623 4467.623 0 0198.061-107.292c5.526-5.853 5.261-15.09-.591-20.616s-15.09-5.261-20.615.591a4495.675 4495.675 0 00-98.701 107.993c-5.333 6.029-4.768 15.253 1.261 20.585 6.029 5.333 15.253 4.768 20.585-1.261zm6454.19-204.656a4470.06 4470.06 0 01101.279 104.255c5.513 5.863 14.75 6.148 20.614.634 5.863-5.514 6.148-14.751.634-20.614a4500.35 4500.35 0 00-101.94-104.936c-5.702-5.681-14.943-5.665-20.624.037-5.681 5.701-5.665 14.943.037 20.624zm-6254.63-6.682a4465.782 4465.782 0 01104.826-100.689c5.894-5.481 6.231-14.716.75-20.611-5.48-5.894-14.716-6.231-20.61-.75a4494.115 4494.115 0 00-105.51 101.347c-5.714 5.669-5.749 14.91-.08 20.623 5.669 5.714 14.911 5.749 20.624.08zm6042.17-191.679a4470.618 4470.618 0 01107.843 97.453c5.883 5.492 15.119 5.175 20.612-.708 5.493-5.883 5.176-15.119-.707-20.612a4499.024 4499.024 0 00-108.548-98.088c-6.059-5.299-15.279-4.681-20.578 1.377-5.298 6.059-4.681 15.28 1.378 20.578zm-5829.3-6.237a4466.692 4466.692 0 01111.155-93.662c6.238-5.085 7.175-14.279 2.089-20.517-5.085-6.239-14.279-7.175-20.518-2.09a4496.768 4496.768 0 00-111.881 94.274c-6.069 5.286-6.706 14.505-1.42 20.575 5.286 6.07 14.505 6.706 20.575 1.42zm5604.39-177.887a4463.362 4463.362 0 01113.958 90.231c6.228 5.099 15.424 4.182 20.522-2.046 5.099-6.228 4.182-15.424-2.046-20.522a4491.732 4491.732 0 00-114.703-90.822c-6.391-4.893-15.552-3.677-20.445 2.714-4.893 6.391-3.677 15.552 2.714 20.445zm-5379.09-5.767a4458.854 4458.854 0 01117.015-86.221c6.557-4.668 8.09-13.781 3.422-20.338-4.668-6.557-13.781-8.09-20.338-3.422a4485.078 4485.078 0 00-117.781 86.786c-6.401 4.879-7.636 14.038-2.757 20.439 4.88 6.401 14.038 7.636 20.439 2.756zm5142.66-163.309a4454.674 4454.674 0 01119.59 82.607c6.547 4.682 15.663 3.168 20.345-3.379 4.682-6.547 3.168-15.663-3.379-20.345a4480.988 4480.988 0 00-120.374-83.148c-6.696-4.466-15.758-2.655-20.224 4.041-4.466 6.697-2.655 15.759 4.042 20.224zm-4905.88-5.269a4445.157 4445.157 0 01122.395-78.399c6.848-4.229 8.973-13.223 4.743-20.071-4.229-6.847-13.223-8.973-20.071-4.743a4475.493 4475.493 0 00-123.198 78.913c-6.706 4.452-8.536 13.51-4.084 20.216 4.451 6.706 13.509 8.536 20.215 4.084zm4658.91-148.003a4438.724 4438.724 0 01124.734 74.616c6.839 4.244 15.837 2.138 20.081-4.701 4.245-6.839 2.138-15.837-4.7-20.081a4468.28 4468.28 0 00-125.554-75.106c-6.974-4.018-15.899-1.618-19.917 5.356-4.018 6.974-1.618 15.898 5.356 19.916zm-4411.63-4.744a4428.337 4428.337 0 01127.263-70.215c7.11-3.772 9.82-12.607 6.048-19.717-3.772-7.11-12.607-9.821-19.717-6.049a4456.66 4456.66 0 00-128.101 70.678c-6.983 4.003-9.401 12.922-5.398 19.904 4.003 6.983 12.922 9.402 19.905 5.399zm4155.15-132.023a4423.196 4423.196 0 01129.361 66.279c7.102 3.787 15.943 1.096 19.73-6.006 3.787-7.102 1.096-15.943-6.006-19.73a4452.943 4452.943 0 00-130.214-66.716c-7.222-3.552-15.97-.572-19.522 6.651-3.552 7.223-.572 15.97 6.651 19.522zm-3898.39-4.19a4416.489 4416.489 0 01131.599-61.703c7.343-3.296 10.628-11.934 7.331-19.277-3.296-7.342-11.934-10.627-19.276-7.331a4443.93 4443.93 0 00-132.469 62.111c-7.23 3.536-10.229 12.277-6.693 19.507 3.537 7.231 12.278 10.23 19.508 6.693zm3633.5-115.422a4411.257 4411.257 0 01133.432 57.626c7.336 3.312 15.981.046 19.293-7.29 3.313-7.335.046-15.98-7.289-19.293a4441.303 4441.303 0 00-134.315-58.006c-7.441-3.069-15.974.48-19.043 7.921-3.068 7.441.481 15.973 7.922 19.042zm-3368.34-3.616a4404.618 4404.618 0 01135.377-52.9c7.544-2.805 11.391-11.207 8.586-18.751-2.805-7.545-11.208-11.392-18.752-8.586a4432.248 4432.248 0 00-136.273 53.25c-7.448 3.052-11.015 11.577-7.963 19.025 3.053 7.447 11.578 11.015 19.025 7.962zm3096.13-98.284a4402.862 4402.862 0 01136.943 48.703c7.538 2.822 15.949-1.007 18.77-8.545 2.822-7.538-1.007-15.949-8.545-18.771a4432.315 4432.315 0 00-137.85-49.026c-7.627-2.571-15.907 1.533-18.478 9.16-2.572 7.627 1.533 15.907 9.16 18.479zm-2823.7-3.018a4400.25 4400.25 0 01138.573-43.85c7.713-2.301 12.107-10.431 9.805-18.144-2.301-7.713-10.431-12.106-18.144-9.805a4429.012 4429.012 0 00-139.491 44.14c-7.633 2.555-11.755 10.826-9.201 18.458 2.555 7.633 10.826 11.756 18.458 9.201zm2545.38-80.689a4396.854 4396.854 0 01139.854 39.554c7.707 2.318 15.847-2.058 18.165-9.765 2.318-7.708-2.057-15.848-9.765-18.166a4427.628 4427.628 0 00-140.781-39.816c-7.78-2.062-15.771 2.58-17.833 10.36-2.062 7.78 2.58 15.771 10.36 17.833zm-2266.86-2.409a4400.718 4400.718 0 01141.166-34.605c7.848-1.787 12.769-9.61 10.982-17.458-1.787-7.847-9.61-12.768-17.458-10.981a4433.01 4433.01 0 00-142.101 34.834c-7.785 2.046-12.445 10.026-10.4 17.811 2.045 7.784 10.026 12.444 17.811 10.399zm1983.61-62.745a4407.973 4407.973 0 01142.161 30.239c7.844 1.804 15.677-3.1 17.481-10.943 1.804-7.844-3.099-15.677-10.943-17.482a4434.91 4434.91 0 00-143.102-30.438c-7.899-1.545-15.566 3.614-17.111 11.514-1.544 7.899 3.615 15.566 11.514 17.11zm-1700.21-1.789a4415.432 4415.432 0 01143.141-25.226c7.949-1.267 13.374-8.748 12.107-16.697-1.266-7.948-8.747-13.373-16.696-12.107a4444.555 4444.555 0 00-144.086 25.394c-7.903 1.527-13.078 9.183-11.551 17.085 1.527 7.903 9.183 13.079 17.085 11.551zm1413.28-44.566a4426.677 4426.677 0 01143.843 20.817c7.946 1.284 15.439-4.125 16.723-12.071 1.283-7.945-4.126-15.438-12.071-16.722a4456.353 4456.353 0 00-144.792-20.955c-7.984-1.022-15.295 4.63-16.317 12.614-1.022 7.984 4.63 15.295 12.614 16.317zm-1126.25-1.169a4445.664 4445.664 0 01144.49-15.782c8.015-.743 13.918-7.853 13.175-15.868-.743-8.014-7.853-13.917-15.867-13.174a4469.74 4469.74 0 00-145.44 15.886c-7.985 1.004-13.653 8.304-12.648 16.289 1.005 7.986 8.304 13.654 16.29 12.649zm836.891-26.282a4457.052 4457.052 0 01144.901 11.361c8.013.76 15.136-5.128 15.896-13.141.76-8.013-5.129-15.135-13.142-15.895a4486.587 4486.587 0 00-145.849-11.436c-8.033-.498-14.96 5.619-15.458 13.652-.498 8.034 5.619 14.96 13.652 15.459zm-547.47-.558a4485.792 4485.792 0 01145.215-6.345c8.046-.222 14.399-6.933 14.178-14.979-.222-8.046-6.933-14.398-14.979-14.177a4518.24 4518.24 0 00-146.16 6.386c-8.034.482-14.166 7.396-13.684 15.43.481 8.035 7.395 14.166 15.43 13.685zm256.926-8.031a4507.1 4507.1 0 01145.349 1.945c8.045.237 14.769-6.101 15.007-14.147.238-8.045-6.101-14.77-14.146-15.007a4539.365 4539.365 0 00-146.289-1.958c-8.049.022-14.566 6.574-14.544 14.623.022 8.049 6.574 14.566 14.623 14.544z"
  />
  <path
    d="M9060.54 9099.42c-48.63-.048-97.078-.881-145.332-2.487l-.97 29.151a4534.938 4534.938 0 00146.273 2.503l.029-29.167zm290.524-9.084a4484.609 4484.609 0 01-145.191 6.89l.911 29.152a4511.144 4511.144 0 00146.135-6.935l-1.855-29.107zm-581.031-.591a4456.38 4456.38 0 01-144.861-11.908l-2.864 29.026a4485.91 4485.91 0 00145.809 11.986l1.916-29.104zm870.348-27.344a4441.633 4441.633 0 01-144.429 16.33l2.802 29.032a4473.693 4473.693 0 00145.378-16.437l-3.751-28.925zm-1159.6-1.2a4423.75 4423.75 0 01-143.774-21.366l-4.76 28.776a4449.752 4449.752 0 00144.721 21.506l3.813-28.916zm1446.46-45.627a4415.815 4415.815 0 01-143.044 25.772l4.699 28.786a4445.932 4445.932 0 00143.989-25.943l-5.644-28.615zm-1733.22-1.82a4405.981 4405.981 0 01-142.045-30.781l-6.646 28.399a4432.912 4432.912 0 00142.985 30.985l5.706-28.603zm2016.36-63.796a4401.785 4401.785 0 01-141.032 35.144l6.585 28.414a4433.403 4433.403 0 00141.966-35.377l-7.519-28.181zm-2299.36-2.437a4399.459 4399.459 0 01-139.709-40.09l-8.507 27.898a4428.405 4428.405 0 00140.636 40.357l7.58-28.165zm2577.56-81.725a4400.257 4400.257 0 01-138.404 44.379l8.445 27.917a4428.26 4428.26 0 00139.322-44.674l-9.363-27.622zm-2855.57-3.046a4400.042 4400.042 0 01-136.755-49.226l-10.33 27.277a4433.91 4433.91 0 00137.661 49.551l9.424-27.602zm3127.61-99.297a4406.681 4406.681 0 01-135.173 53.416l10.27 27.299a4436.894 4436.894 0 00136.068-53.77l-11.165-26.945zm-3399.42-3.64a4412.24 4412.24 0 01-133.215-58.135l-12.105 26.537a4443.343 4443.343 0 00134.096 58.518l11.224-26.92zm3664.12-116.409a4415.61 4415.61 0 01-131.364 62.204l12.047 26.563a4448.022 4448.022 0 00132.232-62.615l-12.915-26.152zm-3928.57-4.215a4424.368 4424.368 0 01-129.106-66.768l-13.821 25.683a4454.029 4454.029 0 00129.957 67.209l12.97-26.124zm4184.81-132.972a4429.253 4429.253 0 01-126.995 70.697l13.766 25.714a4462.475 4462.475 0 00127.832-71.163l-14.603-25.248zm-4440.76-4.764a4440.315 4440.315 0 01-124.451-75.087l-15.475 24.723a4471.342 4471.342 0 00125.269 75.581l14.657-25.217zm4687.46-148.918a4442.873 4442.873 0 01-122.094 78.86l15.421 24.756a4474.082 4474.082 0 00122.896-79.377l-16.223-24.239zm-4933.84-5.288a4452.747 4452.747 0 01-119.283-83.062l-17.055 23.66a4480.617 4480.617 0 00120.064 83.606l16.274-24.204zm5169.98-164.183a4459.29 4459.29 0 01-116.692 86.664l17.006 23.696a4487.154 4487.154 0 00117.455-87.232l-17.769-23.128zm-5405.78-5.787a4464.7 4464.7 0 01-113.615-90.659l-18.56 22.499a4492.959 4492.959 0 00114.357 91.251l17.818-23.091zm5630.38-178.712a4463.106 4463.106 0 01-110.797 94.077l18.514 22.538a4493.212 4493.212 0 00111.521-94.692l-19.238-21.923zm-5854.6-6.256a4467.23 4467.23 0 01-107.476-97.857l-19.985 21.244a4497.372 4497.372 0 00108.178 98.496l19.283-21.883zm6066.72-192.462a4470.12 4470.12 0 01-104.448 101.085l19.94 21.286a4500.477 4500.477 0 00105.13-101.745l-20.622-20.626zm-6278.44-6.694a4471.977 4471.977 0 01-100.887-104.636l-21.323 19.9a4498.259 4498.259 0 00101.546 105.319l20.664-20.583zm6477.19-205.391a4468.902 4468.902 0 01-97.654 107.658l21.282 19.944a4497.053 4497.053 0 0098.291-108.36l-21.919-19.242zm-6675.51-7.11a4464.82 4464.82 0 01-93.869-110.975l-22.572 18.471a4493.063 4493.063 0 0094.482 111.7l21.959-19.196zm6860.06-217.458a4462.325 4462.325 0 01-90.446 113.787l22.534 18.518a4492.355 4492.355 0 0091.037-114.53l-23.125-17.775zm-7044.14-7.491a4455.902 4455.902 0 01-86.443-116.852l-23.728 16.961a4483.79 4483.79 0 0087.009 117.617l23.162-17.726zm7213.66-228.618a4453.286 4453.286 0 01-82.838 119.44l23.693 17.011a4481.896 4481.896 0 0083.38-120.223l-24.235-16.228zm-7382.69-7.844a4445.562 4445.562 0 01-78.63-122.245l-24.785 15.375a4474.39 4474.39 0 0079.146 123.047l24.269-16.177zm7536.43-238.828a4438.834 4438.834 0 01-74.852 124.593l24.752 15.428a4466.004 4466.004 0 0075.344-125.412l-25.244-14.609zm-7689.64-8.17a4432.387 4432.387 0 01-70.456-127.128l-25.739 13.718a4457.158 4457.158 0 0070.92 127.965l25.275-14.555zm7826.89-248.037a4422.207 4422.207 0 01-66.522 129.229l25.71 13.773a4454.423 4454.423 0 0066.961-130.081l-26.149-12.921zm-7963.59-8.467a4416.157 4416.157 0 01-61.955-131.483l-26.586 11.997a4447.222 4447.222 0 0062.365 132.351l26.176-12.865zm8083.71-256.208a4411.062 4411.062 0 01-57.881 133.324l26.56 12.054a4439.994 4439.994 0 0058.263-134.206l-26.942-11.172zm-8203.26-8.725a4408.007 4408.007 0 01-53.159-135.276l-27.318 10.218a4434.608 4434.608 0 0053.511 136.171l26.966-11.113zm8305.68-263.276a4401.49 4401.49 0 01-48.963 136.844l27.296 10.278a4430.216 4430.216 0 0049.287-137.751l-27.62-9.371zm-8407.5-8.957a4400.278 4400.278 0 01-44.115-138.489l-27.933 8.392a4428.312 4428.312 0 0044.408 139.408l27.64-9.311zm8491.74-269.217a4401.778 4401.778 0 01-39.823 139.782l27.915 8.454a4428.026 4428.026 0 0040.086-140.709l-28.178-7.527zm-8575.37-9.143a4404.244 4404.244 0 01-34.875-141.099l-28.426 6.53a4430.557 4430.557 0 0035.106 142.034l28.195-7.465zm8641.07-273.986a4407.733 4407.733 0 01-30.51 142.103l28.412 6.593a4437.975 4437.975 0 0030.712-143.044l-28.614-5.652zm-8706.14-9.286a4413.102 4413.102 0 01-25.499-143.092l-28.795 4.644a4445.438 4445.438 0 0025.668 144.037l28.626-5.589zm8753.04-277.558a4424.416 4424.416 0 01-21.091 143.809l28.784 4.707a4454.504 4454.504 0 0021.231-144.758l-28.924-3.758zm-8799.33-9.389a4443.818 4443.818 0 01-16.057-144.46l-29.037 2.747c4.609 48.702 10 97.176 16.162 145.409l28.932-3.696zm8827.32-279.922a4455.497 4455.497 0 01-11.636 144.888l29.032 2.809a4485.256 4485.256 0 0011.711-145.836l-29.107-1.861zm-8854.71-9.448a4483.76 4483.76 0 01-6.618-145.203l-29.154.856a4513.154 4513.154 0 006.661 146.147l29.111-1.8zm8863.84-281.078c.042 48.631-.701 97.082-2.216 145.34l29.152.916a4534.32 4534.32 0 002.23-146.282l-29.166.026zm-8872.39-9.465a4504.139 4504.139 0 012.759-145.336l-29.149-1.024a4533.509 4533.509 0 00-2.776 146.277l29.166.083zm8862.76-281.044a4479.662 4479.662 0 017.162 145.177l29.151-.965a4512.092 4512.092 0 00-7.208-146.122l-29.105 1.91zm-8852.54-9.454a4454.468 4454.468 0 0112.183-144.845l-29.021-2.919a4484.232 4484.232 0 00-12.262 145.793l29.1 1.971zm8824.06-279.81a4442.319 4442.319 0 0116.603 144.399l29.026-2.858a4469.388 4469.388 0 00-16.712-145.347l-28.917 3.806zm-8794.97-9.395a4423.371 4423.371 0 0121.638-143.725l-28.766-4.815a4449.79 4449.79 0 00-21.781 144.672l28.909 3.868zm8747.59-277.373a4411.675 4411.675 0 0126.044 142.993l28.777-4.753a4443.535 4443.535 0 00-26.216-143.938l-28.605 5.698zm-8699.6-9.291a4406.252 4406.252 0 0131.052-141.985l-28.387-6.701a4435.888 4435.888 0 00-31.257 142.925l28.592 5.761zm8633.44-273.731a4400.038 4400.038 0 0135.414 140.965l28.401-6.638a4430.992 4430.992 0 00-35.648-141.899l-28.167 7.572zm-8566.67-9.137a4398.03 4398.03 0 0140.356-139.625l-27.883-8.56a4429.5 4429.5 0 00-40.623 140.55l28.15 7.635zm8481.98-268.899a4403.74 4403.74 0 0144.644 138.319l27.901-8.499a4431.695 4431.695 0 00-44.94-139.236l-27.605 9.416zm-8396.67-8.945a4403.672 4403.672 0 0149.488-136.664l-27.256-10.381a4433.073 4433.073 0 00-49.816 137.569l27.584 9.476zm8293.81-262.895a4403.983 4403.983 0 0153.675 135.072l27.279-10.322a4435.23 4435.23 0 00-54.03-135.967l-26.924 11.217zm-8190.35-8.725a4410.476 4410.476 0 0158.389-133.104l-26.514-12.155a4441.88 4441.88 0 00-58.774 133.984l26.899 11.275zm8069.8-255.749a4417.556 4417.556 0 0162.454 131.244l26.539-12.098a4444.877 4444.877 0 00-62.866-132.11l-26.127 12.964zm-7948.67-8.462a4426.241 4426.241 0 0167.015-128.98l-25.657-13.871a4454.775 4454.775 0 00-67.457 129.83l26.099 13.021zm7811-247.521a4431.097 4431.097 0 0170.939 126.863l25.687-13.816a4460.726 4460.726 0 00-71.406-127.698l-25.22 14.651zm-7672.77-8.17a4438.403 4438.403 0 0175.323-124.307l-24.694-15.521a4467.881 4467.881 0 00-75.817 125.123l25.188 14.705zm7518.62-238.247a4445.791 4445.791 0 0179.091 121.946l24.727-15.468a4472.247 4472.247 0 00-79.61-122.746l-24.208 16.268zm-7363.95-7.837a4451.37 4451.37 0 0183.286-119.123l-23.628-17.101a4481.584 4481.584 0 00-83.831 119.904l24.173 16.32zm7194.03-227.988a4457.882 4457.882 0 0186.884 116.527l23.664-17.05a4484.102 4484.102 0 00-87.453-117.29l-23.095 17.813zm-7023.62-7.481a4461.224 4461.224 0 0190.871-113.441l-22.464-18.603a4491.276 4491.276 0 00-91.465 114.182l23.058 17.862zm6838.7-216.775a4466.03 4466.03 0 0194.288 110.623l22.502-18.556a4493.98 4493.98 0 00-94.904-111.346l-21.886 19.279zm-6653.31-7.094a4467.623 4467.623 0 0198.061-107.292l-21.207-20.025a4497.726 4497.726 0 00-98.7 107.993l21.846 19.324zm6454.19-204.656a4468.07 4468.07 0 01101.28 104.255l21.248-19.98a4500.35 4500.35 0 00-101.94-104.936l-20.588 20.661zm-6254.63-6.682a4465.782 4465.782 0 01104.826-100.689l-19.86-21.361a4494.115 4494.115 0 00-105.51 101.347l20.544 20.703zm6042.17-191.679a4468.762 4468.762 0 01107.844 97.453l19.904-21.32a4498.978 4498.978 0 00-108.547-98.088l-19.201 21.955zm-5829.3-6.237a4466.692 4466.692 0 01111.155-93.662l-18.429-22.607a4496.768 4496.768 0 00-111.881 94.274l19.155 21.995zm5604.39-177.887a4463.362 4463.362 0 01113.958 90.231l18.475-22.568a4489.929 4489.929 0 00-114.702-90.822l-17.731 23.159zm-5379.09-5.767a4458.854 4458.854 0 01117.015-86.221l-16.916-23.76a4483.406 4483.406 0 00-117.781 86.786l17.682 23.195zm5142.66-163.309a4456.276 4456.276 0 01119.59 82.607l16.966-23.724a4482.588 4482.588 0 00-120.374-83.148l-16.182 24.265zm-4905.88-5.269a4443.645 4443.645 0 01122.395-78.399l-15.328-24.814a4475.493 4475.493 0 00-123.198 78.913l16.131 24.3zm4658.91-148.003a4437.342 4437.342 0 01124.735 74.616l15.381-24.782a4466.898 4466.898 0 00-125.555-75.106l-14.561 25.272zm-4411.63-4.744a4428.337 4428.337 0 01127.263-70.215l-13.669-25.766a4456.66 4456.66 0 00-128.101 70.678l14.507 25.303zm4155.15-132.023a4424.463 4424.463 0 01129.361 66.279l13.724-25.736a4452.943 4452.943 0 00-130.214-66.716l-12.871 26.173zm-3898.39-4.19a4415.314 4415.314 0 01131.599-61.703l-11.946-26.608a4445.05 4445.05 0 00-132.468 62.111l12.815 26.2zm3633.49-115.422a4410.219 4410.219 0 01133.433 57.626l12.004-26.583a4441.303 4441.303 0 00-134.315-58.006l-11.122 26.963zm-3368.34-3.616a4403.616 4403.616 0 01135.377-52.9l-10.166-27.337a4431.246 4431.246 0 00-136.273 53.25l11.062 26.987zm3096.13-98.284a4401.998 4401.998 0 01136.944 48.703l10.225-27.316a4433.238 4433.238 0 00-137.85-49.026l-9.319 27.639zm-2823.7-3.018a4400.25 4400.25 0 01138.573-43.85l-8.339-27.949a4428.183 4428.183 0 00-139.491 44.14l9.257 27.659zm2545.38-80.689a4396.048 4396.048 0 01139.853 39.554l8.401-27.931a4428.376 4428.376 0 00-140.781-39.816l-7.473 28.193zm-2266.86-2.409a4401.433 4401.433 0 01141.167-34.605l-6.476-28.439a4433.726 4433.726 0 00-142.102 34.834l7.411 28.21zm1983.61-62.745a4407.973 4407.973 0 01142.161 30.239l6.538-28.425a4434.91 4434.91 0 00-143.102-30.438l-5.597 28.624zm-1700.21-1.789a4415.432 4415.432 0 01143.141-25.226l-4.589-28.804a4444.555 4444.555 0 00-144.086 25.394l5.534 28.636zm1413.28-44.566a4426.677 4426.677 0 01143.843 20.817l4.651-28.793a4456.292 4456.292 0 00-144.791-20.955l-3.703 28.931zm-1126.25-1.169a4445.726 4445.726 0 01144.491-15.782l-2.692-29.042a4469.74 4469.74 0 00-145.44 15.886l3.641 28.938zm836.892-26.282a4457.273 4457.273 0 01144.901 11.361l2.754-29.036a4486.808 4486.808 0 00-145.849-11.436l-1.806 29.111zm-547.47-.558a4485.792 4485.792 0 01145.215-6.345l-.801-29.156a4518.115 4518.115 0 00-146.16 6.386l1.746 29.115zm256.926-8.031c48.633-.133 97.087.52 145.348 1.945l.861-29.154a4539.303 4539.303 0 00-146.288-1.958l.079 29.167z"
  />
</svg>
