<svg
  viewBox="0 0 170 170"
  xmlns="http://www.w3.org/2000/svg"
  fill-rule="evenodd"
  clip-rule="evenodd"
  stroke-linejoin="round"
  stroke-miterlimit="2"
>
  <path
    d="M126.97 41.972c-11.867 0-22.618 4.817-30.403 12.602S83.962 73.111 83.962 84.98c0 11.869 4.82 22.62 12.605 30.406 7.785 7.785 18.536 12.602 30.403 12.602 11.87 0 22.621-4.817 30.406-12.602s12.6-18.537 12.6-30.406c0-11.868-4.815-22.62-12.6-30.405-7.785-7.785-18.536-12.602-30.406-12.602zm0 2.115c11.285 0 21.509 4.581 28.908 11.983 7.403 7.402 11.985 17.625 11.985 28.91 0 11.284-4.582 21.507-11.985 28.909-7.4 7.401-17.623 11.982-28.908 11.982-11.282 0-21.506-4.58-28.909-11.982-7.403-7.402-11.981-17.625-11.981-28.91 0-11.284 4.578-21.507 11.981-28.909 7.403-7.402 17.627-11.983 28.909-11.983z"
  />
  <path
    d="M84.976 41.972c-11.867 0-22.618 4.817-30.403 12.602S41.968 73.111 41.968 84.98c0 11.869 4.82 22.62 12.605 30.406 7.785 7.785 18.536 12.602 30.403 12.602 11.87 0 22.621-4.817 30.406-12.602s12.6-18.537 12.6-30.406c0-11.868-4.815-22.62-12.6-30.405-7.785-7.785-18.536-12.602-30.406-12.602zm0 2.115c11.285 0 21.509 4.581 28.908 11.983 7.403 7.402 11.985 17.625 11.985 28.91 0 11.284-4.582 21.507-11.985 28.909-7.4 7.401-17.623 11.982-28.908 11.982-11.282 0-21.506-4.58-28.909-11.982-7.403-7.402-11.981-17.625-11.981-28.91 0-11.284 4.578-21.507 11.981-28.909 7.403-7.402 17.627-11.983 28.909-11.983z"
  />
  <path
    d="M43.008 41.972c-11.867 0-22.618 4.817-30.403 12.602S0 73.111 0 84.98c0 11.869 4.82 22.62 12.605 30.406 7.785 7.785 18.536 12.602 30.403 12.602 11.87 0 22.621-4.817 30.406-12.602s12.6-18.537 12.6-30.406c0-11.868-4.815-22.62-12.6-30.405-7.785-7.785-18.536-12.602-30.406-12.602zm0 2.115c11.285 0 21.509 4.581 28.908 11.983 7.403 7.402 11.985 17.625 11.985 28.91 0 11.284-4.582 21.507-11.985 28.909-7.4 7.401-17.623 11.982-28.908 11.982-11.282 0-21.506-4.58-28.909-11.982-7.403-7.402-11.981-17.625-11.981-28.91 0-11.284 4.578-21.507 11.981-28.909 7.403-7.402 17.627-11.983 28.909-11.983z"
  />
  <path
    d="M84.981 0C61.531 0 40.283 9.52 24.9 24.903 9.523 40.285.004 61.53.004 84.983c0 23.452 9.52 44.697 24.895 60.08 15.384 15.383 36.632 24.902 60.082 24.902 23.45 0 44.698-9.519 60.082-24.902 15.384-15.383 24.903-36.628 24.903-60.08 0-23.452-9.52-44.698-24.903-60.08C129.679 9.52 108.431 0 84.981 0zm0 2.116c22.87 0 43.59 9.283 58.583 24.283 15.002 14.999 24.284 35.716 24.284 58.584 0 22.867-9.282 43.584-24.284 58.584-14.993 15-35.714 24.283-58.583 24.283s-43.582-9.283-58.583-24.283c-15.001-15-24.283-35.717-24.283-58.584 0-22.868 9.282-43.585 24.283-58.584 15.001-15 35.714-24.283 58.583-24.283z"
  />
</svg>
