<svg
  viewBox="0 0 170 170"
  xmlns="http://www.w3.org/2000/svg"
  fill-rule="evenodd"
  clip-rule="evenodd"
  stroke-linejoin="round"
  stroke-miterlimit="2"
>
  <circle
    cx="15135.5"
    cy="3089.34"
    r="1097.64"
    transform="matrix(.03822 0 0 .03822 -451.514 -33.09)"
  />
  <circle
    cx="15135.5"
    cy="3089.34"
    r="1097.64"
    transform="matrix(.03822 0 0 .03822 -535.452 -33.09)"
  />
  <path
    d="M84.977 0C61.527 0 40.28 9.52 24.895 24.903 9.52 40.285 0 61.53 0 84.983c0 23.452 9.52 44.697 24.895 60.08 15.384 15.383 36.632 24.902 60.082 24.902 23.45 0 44.698-9.519 60.082-24.902 15.384-15.383 24.903-36.628 24.903-60.08 0-23.452-9.52-44.698-24.903-60.08C129.675 9.52 108.427 0 84.977 0zm0 2.116c22.87 0 43.59 9.283 58.583 24.283 15.002 14.999 24.284 35.716 24.284 58.584 0 22.867-9.282 43.584-24.284 58.584-14.993 15-35.714 24.283-58.583 24.283s-43.582-9.283-58.583-24.283c-15.001-15-24.283-35.717-24.283-58.584 0-22.868 9.282-43.585 24.283-58.584 15.001-15 35.714-24.283 58.583-24.283z"
  />
</svg>
