<svg
  viewBox="0 0 169 169"
  xmlns="http://www.w3.org/2000/svg"
  fill-rule="evenodd"
  clip-rule="evenodd"
  stroke-linejoin="round"
  stroke-miterlimit="2"
>
  <path
    d="M84.34-.002c-23.274 0-44.362 9.449-59.63 24.717C9.44 39.982-.004 61.07-.004 84.346c0 23.277 9.443 44.364 24.712 59.632 15.27 15.267 36.357 24.716 59.63 24.716 23.283 0 44.37-9.449 59.632-24.716 15.268-15.268 24.719-36.355 24.719-59.632 0-23.276-9.45-44.364-24.72-59.631C128.71 9.447 107.623-.002 84.34-.002zm0 .846c23.045 0 43.918 9.354 59.034 24.47 15.116 15.114 24.467 35.989 24.467 59.032s-9.35 43.919-24.467 59.033c-15.116 15.115-35.99 24.469-59.034 24.469-23.037 0-43.918-9.354-59.034-24.469C10.197 128.265.839 107.39.839 84.346s9.358-43.918 24.467-59.033C40.422 10.198 61.303.844 84.34.844z"
  />
</svg>
