<svg
  viewBox="0 0 1415 322"
  xmlns="http://www.w3.org/2000/svg"
  fill-rule="evenodd"
  clip-rule="evenodd"
  stroke-linejoin="round"
  stroke-miterlimit="2"
>
  <text
    x="104015"
    y="105598"
    font-family="'Montserrat-Light','Montserrat'"
    font-weight="300"
    font-size="30"
    fill="#0d0000"
    transform="matrix(1 0 0 1 -103717.548 -105276.715)"
  >
    D<tspan
      x="104041px 104051px 104071px 104094px 104116px 104139px 104165px 104175px"
      y="105598px 105598px 105598px 105598px 105598px 105598px 105598px 105598px"
    >ISCERNIR</tspan>
  </text>
  <text
    x="104027"
    y="105598"
    font-family="'Montserrat-Light','Montserrat'"
    font-weight="300"
    font-size="30"
    fill="#0d0000"
    transform="matrix(1 0 0 1 -103384.599 -105276.715)"
  >
    P<tspan
      x="104050px 104072px 104095px 104118px 104128px 104152px 104162px"
      y="105598px 105598px 105598px 105598px 105598px 105598px 105598px"
    >ERCIBIR</tspan>
  </text>
  <text
    x="104047"
    y="105598"
    font-family="'Montserrat-Light','Montserrat'"
    font-weight="300"
    font-size="30"
    fill="#0d0000"
    transform="matrix(1 0 0 1 -103130.034 -105276.715)"
  >
    T<tspan
      x="104065px 104088px 104111px 104131px 104154px 104175px 104201px 104227px 104249px"
      y="105598px 105598px 105598px 105598px 105598px 105598px 105598px 105598px 105598px"
    >RASCENDER</tspan>
  </text>
  <text
    x="104048"
    y="105598"
    font-family="'Montserrat-Light','Montserrat'"
    font-weight="300"
    font-size="30"
    fill="#0d0000"
    transform="matrix(1 0 0 1 -102776.444 -105276.715)"
  >
    H<tspan
      x="104074px 104097px 104120px 104141px"
      y="105598px 105598px 105598px 105598px"
    >ACER</tspan>
  </text>
  <text
    x="104041"
    y="105604"
    font-family="'Montserrat-Light','Montserrat'"
    font-weight="300"
    font-size="48"
    fill="#0d0000"
    transform="matrix(1 0 0 1 -103664.473 -105334.754)"
  >
    1
  </text>
  <text
    x="104034"
    y="105604"
    font-family="'Montserrat-Light','Montserrat'"
    font-weight="300"
    font-size="48"
    fill="#0d0000"
    transform="matrix(1 0 0 1 -103966.953 -105334.754)"
  >
    0
  </text>
  <text
    x="104036"
    y="105604"
    font-family="'Montserrat-Light','Montserrat'"
    font-weight="300"
    font-size="48"
    fill="#0d0000"
    transform="matrix(1 0 0 1 -103332.26 -105334.754)"
  >
    2
  </text>
  <text
    x="104036"
    y="105604"
    font-family="'Montserrat-Light','Montserrat'"
    font-weight="300"
    font-size="48"
    fill="#0d0000"
    transform="matrix(1 0 0 1 -103023.392 -105334.754)"
  >
    3
  </text>
  <text
    x="104034"
    y="105604"
    font-family="'Montserrat-Light','Montserrat'"
    font-weight="300"
    font-size="48"
    fill="#0d0000"
    transform="matrix(1 0 0 1 -102721.403 -105334.754)"
  >
    4
  </text>
  <path
    d="M1328.173 1.439c-23.45 0-44.698 9.52-60.082 24.902-15.376 15.383-24.895 36.63-24.895 60.08 0 23.452 9.519 44.698 24.895 60.081 15.384 15.383 36.632 24.902 60.082 24.902 23.45 0 44.698-9.519 60.082-24.902 15.383-15.383 24.902-36.629 24.902-60.08 0-23.452-9.519-44.698-24.902-60.08-15.384-15.383-36.632-24.903-60.082-24.903zm0 2.116c22.869 0 43.59 9.283 58.583 24.283 15.001 14.999 24.283 35.715 24.283 58.584 0 22.867-9.282 43.584-24.283 58.584-14.994 15-35.714 24.283-58.583 24.283-22.87 0-43.582-9.283-58.583-24.283-15.002-15-24.284-35.717-24.284-58.584 0-22.869 9.282-43.585 24.284-58.584 15-15 35.714-24.283 58.583-24.283z"
  />
  <circle
    cx="15135.5"
    cy="3089.34"
    r="1097.64"
    transform="matrix(.01911 0 0 .01911 1101.803 27.36)"
  />
  <circle
    cx="15135.5"
    cy="3089.34"
    r="1097.64"
    transform="matrix(.01911 0 0 .01911 1059.835 27.36)"
  />
  <circle
    cx="15135.5"
    cy="3089.34"
    r="1097.64"
    transform="matrix(.01911 0 0 .01911 1017.866 27.36)"
  />
  <circle
    cx="15135.5"
    cy="3089.34"
    r="1097.64"
    transform="matrix(.01911 0 0 .01911 975.897 27.36)"
  />
  <path
    d="M720.608 1.439c-23.45 0-44.698 9.52-60.082 24.902-15.376 15.383-24.895 36.63-24.895 60.08 0 23.452 9.52 44.698 24.895 60.081 15.384 15.383 36.632 24.902 60.082 24.902 23.45 0 44.698-9.519 60.082-24.902 15.383-15.383 24.903-36.629 24.903-60.08 0-23.452-9.52-44.698-24.903-60.08-15.384-15.383-36.632-24.903-60.082-24.903zm0 2.116c22.869 0 43.59 9.283 58.583 24.283 15.002 14.999 24.284 35.715 24.284 58.584 0 22.867-9.282 43.584-24.284 58.584-14.994 15-35.714 24.283-58.583 24.283s-43.582-9.283-58.583-24.283c-15.002-15-24.284-35.717-24.284-58.584 0-22.869 9.282-43.585 24.284-58.584 15.001-15 35.714-24.283 58.583-24.283zM1026.282 1.439c-23.45 0-44.698 9.52-60.081 24.902-15.376 15.383-24.896 36.63-24.896 60.08 0 23.452 9.52 44.698 24.896 60.081 15.383 15.383 36.631 24.902 60.081 24.902 23.45 0 44.699-9.519 60.082-24.902 15.384-15.383 24.903-36.629 24.903-60.08 0-23.452-9.52-44.698-24.903-60.08-15.383-15.383-36.631-24.903-60.082-24.903zm0 2.116c22.87 0 43.59 9.283 58.584 24.283 15.001 14.999 24.283 35.715 24.283 58.584 0 22.867-9.282 43.584-24.283 58.584-14.994 15-35.715 24.283-58.584 24.283s-43.581-9.283-58.583-24.283c-15.001-15-24.283-35.717-24.283-58.584 0-22.869 9.282-43.585 24.283-58.584 15.002-15 35.714-24.283 58.583-24.283z"
  />
  <circle
    cx="15135.5"
    cy="3089.34"
    r="1097.64"
    transform="matrix(.03822 0 0 .03822 100.18 -31.652)"
  />
  <path
    d="M984.308 43.41c-11.867 0-22.618 4.818-30.403 12.603-7.785 7.784-12.604 18.537-12.604 30.405 0 11.868 4.82 22.62 12.604 30.406 7.785 7.784 18.536 12.602 30.403 12.602 11.87 0 22.622-4.818 30.407-12.602 7.785-7.786 12.6-18.538 12.6-30.406 0-11.868-4.815-22.62-12.6-30.405-7.785-7.785-18.536-12.603-30.407-12.603zm0 2.116c11.286 0 21.51 4.58 28.908 11.983 7.403 7.402 11.986 17.625 11.986 28.91 0 11.283-4.583 21.507-11.986 28.908-7.399 7.402-17.622 11.983-28.908 11.983-11.282 0-21.505-4.581-28.908-11.983-7.403-7.401-11.982-17.625-11.982-28.909 0-11.284 4.579-21.507 11.982-28.91 7.403-7.401 17.626-11.982 28.908-11.982z"
  />
  <path
    d="M1026.277 43.41c-11.867 0-22.618 4.818-30.403 12.603-7.785 7.784-12.604 18.537-12.604 30.405 0 11.868 4.819 22.62 12.604 30.406 7.785 7.784 18.536 12.602 30.403 12.602 11.87 0 22.621-4.818 30.406-12.602 7.785-7.786 12.601-18.538 12.601-30.406 0-11.868-4.816-22.62-12.6-30.405-7.786-7.785-18.537-12.603-30.407-12.603zm0 2.116c11.286 0 21.51 4.58 28.908 11.983 7.403 7.402 11.986 17.625 11.986 28.91 0 11.283-4.583 21.507-11.986 28.908-7.399 7.402-17.622 11.983-28.908 11.983-11.282 0-21.506-4.581-28.909-11.983-7.402-7.401-11.981-17.625-11.981-28.909 0-11.284 4.579-21.507 11.981-28.91 7.403-7.401 17.627-11.982 28.909-11.982zM1328.167 43.41c-11.867 0-22.617 4.818-30.403 12.603-7.785 7.784-12.604 18.537-12.604 30.405 0 11.868 4.82 22.62 12.604 30.406 7.786 7.784 18.536 12.602 30.403 12.602 11.87 0 22.622-4.818 30.407-12.602 7.785-7.786 12.6-18.538 12.6-30.406 0-11.868-4.815-22.62-12.6-30.405-7.785-7.785-18.536-12.603-30.407-12.603zm0 2.116c11.286 0 21.51 4.58 28.909 11.983 7.403 7.402 11.985 17.625 11.985 28.91 0 11.283-4.582 21.507-11.985 28.908-7.4 7.402-17.623 11.983-28.909 11.983-11.282 0-21.505-4.581-28.908-11.983-7.403-7.401-11.982-17.625-11.982-28.909 0-11.284 4.579-21.507 11.982-28.91 7.403-7.401 17.626-11.982 28.908-11.982z"
  />
  <circle
    cx="15135.5"
    cy="3089.34"
    r="1097.64"
    transform="matrix(.03822 0 0 .03822 184.117 -31.652)"
  />
  <path
    d="M1068.27 43.41c-11.867 0-22.617 4.818-30.403 12.603-7.785 7.784-12.604 18.537-12.604 30.405 0 11.868 4.82 22.62 12.604 30.406 7.786 7.784 18.536 12.602 30.403 12.602 11.87 0 22.622-4.818 30.407-12.602 7.785-7.786 12.6-18.538 12.6-30.406 0-11.868-4.815-22.62-12.6-30.405-7.785-7.785-18.536-12.603-30.407-12.603zm0 2.116c11.286 0 21.51 4.58 28.909 11.983 7.403 7.402 11.985 17.625 11.985 28.91 0 11.283-4.582 21.507-11.985 28.908-7.4 7.402-17.623 11.983-28.909 11.983-11.282 0-21.505-4.581-28.908-11.983-7.403-7.401-11.982-17.625-11.982-28.909 0-11.284 4.579-21.507 11.982-28.91 7.403-7.401 17.626-11.982 28.908-11.982z"
  />
  <circle
    cx="15135.5"
    cy="3089.34"
    r="1097.64"
    transform="matrix(.07646 0 0 .07646 -767.528 -149.788)"
  />
  <path
    d="M84.884 2.073c-23.274 0-44.362 9.449-59.63 24.717C9.983 42.058.54 63.145.54 86.422c0 23.276 9.443 44.363 24.712 59.631 15.27 15.268 36.357 24.717 59.63 24.717 23.283 0 44.37-9.45 59.631-24.717 15.27-15.268 24.72-36.355 24.72-59.631 0-23.277-9.45-44.364-24.72-59.632-15.26-15.268-36.348-24.717-59.63-24.717zm0 .847c23.045 0 43.918 9.354 59.034 24.469 15.116 15.114 24.467 35.99 24.467 59.033 0 23.042-9.35 43.918-24.467 59.033-15.116 15.114-35.99 24.468-59.034 24.468-23.037 0-43.918-9.354-59.035-24.468-15.108-15.115-24.467-35.99-24.467-59.033 0-23.044 9.36-43.919 24.467-59.033 15.117-15.115 35.998-24.47 59.035-24.47z"
  />
</svg>
