<svg viewBox="0 0 27408 4540" xmlns="http://www.w3.org/2000/svg" fill-rule="evenodd" clip-rule="evenodd" stroke-linecap="square" stroke-miterlimit="1.5">
  <path fill="none" d="M0 0h27407.4v4539.29H0z"/>
  <clipPath id="a">
    <path d="M0 0h27407.4v4539.29H0z"/>
  </clipPath>
  <g clip-path="url(#a)">
    <path d="M6603.74 3955.51c-829.623 2.257-1505-669.459-1507.26-1499.08-2.258-829.623 669.458-1505 1499.08-1507.26 829.623-2.257 1505.01 669.459 1507.26 1499.08 2.258 829.623-669.458 1505-1499.08 1507.26zM11097.1 3955.51c-829.623 2.257-1505.01-669.459-1507.26-1499.08-2.258-829.623 669.458-1505 1499.08-1507.26 829.623-2.257 1505.01 669.459 1507.26 1499.08 2.258 829.623-669.458 1505-1499.08 1507.26zM16950.5 3946.35c-829.623 2.258-1505-669.458-1507.26-1499.08-2.258-829.623 669.458-1505.01 1499.08-1507.26 829.623-2.258 1505.01 669.458 1507.26 1499.08 2.258 829.623-669.458 1505.01-1499.08 1507.26zM22743.8 3939.1c-829.623 2.258-1505-669.458-1507.26-1499.08-2.257-829.623 669.459-1505.01 1499.08-1507.26 829.623-2.258 1505 669.458 1507.26 1499.08 2.257 829.623-669.459 1505.01-1499.08 1507.26z" fill="#727272"/>
    <path d="M12607.7 3959.03c415.785-1.131 792.001-170.938 1063.99-444.408 271.986-273.471 439.743-650.605 438.611-1066.39-1.131-415.785-170.938-792-444.408-1063.99-273.471-271.986-650.605-439.743-1066.39-438.611-415.785 1.131-792 170.938-1063.99 444.408-271.986 273.471-439.743 650.605-438.611 1066.39 1.131 415.785 170.938 792 444.409 1063.99 273.47 271.986 650.604 439.743 1066.39 438.611zm-.019-7.053c-413.838 1.126-789.206-165.846-1061.4-436.559-272.19-270.713-441.203-645.167-442.329-1059.01-1.126-413.839 165.846-789.207 436.559-1061.4 270.713-272.19 645.167-441.203 1059.01-442.329 413.839-1.126 789.207 165.846 1061.4 436.559 272.19 270.713 441.203 645.167 442.329 1059.01 1.126 413.838-165.846 789.207-436.559 1061.4-270.713 272.19-645.167 441.203-1059.01 442.329z"/>
    <text x="12715.4" y="2674.64" font-family="'LucidaGrande','Lucida Grande',sans-serif" font-weight="500" font-size="600">
      1
    </text>
    <circle cx="12603.6" cy="2452.33" r="42.516" fill="#fff"/>
    <text x="13116.7" y="2690.75" font-family="'Montserrat-Light','Montserrat'" font-weight="300" font-size="600">
      +
    </text>
    <path d="M2527.26 3955.51c-829.623 2.257-1505.01-669.459-1507.26-1499.08-2.258-829.623 669.458-1505 1499.08-1507.26 829.623-2.257 1505.01 669.459 1507.26 1499.08 2.258 829.623-669.458 1505-1499.08 1507.26z" fill="#727272"/>
    <text x="8250.72" y="2674.64" font-family="'LucidaGrande','Lucida Grande',sans-serif" font-weight="500" font-size="600">
      1
    </text>
    <circle cx="8110.3" cy="2452.33" r="42.516" fill="#fff"/>
    <text x="530.423" y="2670.02" font-family="'LucidaGrande','Lucida Grande',sans-serif" font-weight="500" font-size="600">
      0
    </text>
    <text x="4628.84" y="2693.65" font-family="'LucidaGrande','Lucida Grande',sans-serif" font-weight="500" font-size="600">
      0
    </text>
    <text x="9192.11" y="2674.64" font-family="'LucidaGrande','Lucida Grande',sans-serif" font-weight="500" font-size="600">
      0
    </text>
    <text x="10597" y="2649.76" font-family="'LucidaGrande','Lucida Grande',sans-serif" font-weight="500" font-size="600">
      2
    </text>
    <text x="10695.1" y="3113.7" font-family="'Montserrat-Light','Montserrat'" font-weight="300" font-size="600">
      -
    </text>
    <g fill="none" stroke="#ff7ae3" stroke-width="33.33">
      <path d="M5104.47 2468.15h3006.36M11128.4 2468.15h1475.76M16981.8 2458.99h1475.76M22775.2 2451.74h1475.76M17709.8 1157.85L16937.225 2459M23503.2 1150.6v2598.8"/>
    </g>
    <path d="M18461.1 3949.88c415.785-1.131 792.001-170.938 1063.99-444.409 271.987-273.47 439.743-650.604 438.612-1066.39-1.132-415.785-170.938-792.001-444.409-1063.99-273.47-271.986-650.605-439.743-1066.39-438.612-415.785 1.132-792.001 170.938-1063.99 444.409-271.987 273.471-439.743 650.605-438.612 1066.39 1.132 415.784 170.938 792 444.409 1063.99 273.47 271.987 650.605 439.743 1066.39 438.612zm-.019-7.053c-413.838 1.126-789.206-165.846-1061.4-436.559-272.191-270.713-441.204-645.167-442.33-1059.01-1.126-413.838 165.847-789.206 436.56-1061.4 270.713-272.191 645.166-441.203 1059.01-442.33 413.838-1.126 789.206 165.847 1061.4 436.56 272.191 270.713 441.204 645.167 442.33 1059.01 1.126 413.838-165.847 789.206-436.56 1061.4-270.713 272.19-645.166 441.203-1059.01 442.329z"/>
    <path d="M24254.5 3939.1c-829.623 2.258-1505-669.458-1507.26-1499.08-2.258-829.623 669.458-1505.01 1499.08-1507.26 829.623-2.258 1505.01 669.458 1507.26 1499.08 2.258 829.623-669.458 1505.01-1499.08 1507.26z" fill="url(#_Linear2)"/>
    <path d="M24254.5 3942.63c415.785-1.132 792-170.938 1063.99-444.409 271.987-273.471 439.743-650.605 438.612-1066.39-1.131-415.784-170.938-792-444.409-1063.99-273.47-271.987-650.604-439.743-1066.39-438.612-415.785 1.132-792.001 170.938-1063.99 444.409-271.986 273.47-439.743 650.605-438.612 1066.39 1.132 415.785 170.939 792.001 444.409 1063.99 273.471 271.986 650.605 439.743 1066.39 438.612zm-.019-7.053c-413.839 1.126-789.207-165.847-1061.4-436.56-272.19-270.713-441.203-645.167-442.329-1059.01-1.127-413.838 165.846-789.206 436.559-1061.4 270.713-272.191 645.167-441.204 1059.01-442.33 413.838-1.126 789.206 165.847 1061.4 436.56 272.19 270.713 441.203 645.166 442.329 1059.01 1.126 413.838-165.846 789.206-436.559 1061.4-270.713 272.191-645.167 441.203-1059.01 442.33z"/>
    <text x="26034.1" y="2658.23" font-family="'LucidaGrande','Lucida Grande',sans-serif" font-weight="500" font-size="600">
      4
    </text>
    <text x="18568.8" y="2665.48" font-family="'LucidaGrande','Lucida Grande',sans-serif" font-weight="500" font-size="600">
      1
    </text>
    <text x="24362.2" y="2658.23" font-family="'LucidaGrande','Lucida Grande',sans-serif" font-weight="500" font-size="600">
      1
    </text>
    <circle cx="18457" cy="2443.18" r="42.516" fill="#fff"/>
    <circle cx="24250.4" cy="2435.93" r="42.516" fill="#fff"/>
    <text x="15052.1" y="2665.48" font-family="'LucidaGrande','Lucida Grande',sans-serif" font-weight="500" font-size="600">
      0
    </text>
    <text x="20812.4" y="2658.23" font-family="'LucidaGrande','Lucida Grande',sans-serif" font-weight="500" font-size="600">
      0
    </text>
    <text x="17882.1" y="871.031" font-family="'LucidaGrande','Lucida Grande',sans-serif" font-weight="500" font-size="600">
      3
    </text>
    <text x="23306.1" y="863.782" font-family="'LucidaGrande','Lucida Grande',sans-serif" font-weight="500" font-size="600">
      3
    </text>
    <text x="16400.6" y="2613.13" font-family="'LucidaGrande','Lucida Grande',sans-serif" font-weight="500" font-size="600">
      2
    </text>
    <text x="22114.1" y="2476.39" font-family="'LucidaGrande','Lucida Grande',sans-serif" font-weight="500" font-size="600">
      2
    </text>
    <text x="17437.5" y="805.624" font-family="'Montserrat-Light','Montserrat'" font-weight="300" font-size="600">
      +
    </text>
    <text x="22893.7" y="802.165" font-family="'Montserrat-Light','Montserrat'" font-weight="300" font-size="600">
      +
    </text>
    <text x="18970.1" y="2681.59" font-family="'Montserrat-Light','Montserrat'" font-weight="300" font-size="600">
      +
    </text>
    <text x="24763.4" y="2674.35" font-family="'Montserrat-Light','Montserrat'" font-weight="300" font-size="600">
      +
    </text>
    <text x="16479.3" y="3173.38" font-family="'Montserrat-Light','Montserrat'" font-weight="300" font-size="600">
      -
    </text>
    <text x="22192.8" y="3036.64" font-family="'Montserrat-Light','Montserrat'" font-weight="300" font-size="600">
      -
    </text>
    <path d="M22747.4 3945.28h1503.52M22743.8 1130.65v3479.52M24224.7 1130.65v3479.52M25748.3 1130.65v3479.52" fill="none" stroke="#d98a8a" stroke-width="8.33" stroke-dasharray="66.67,41.67,0,0"/>
    <text x="26511.9" y="2718.77" font-family="'Montserrat-Light','Montserrat'" font-weight="300" font-size="600">
      -
    </text>
  </g>
  <defs>
    <linearGradient id="_Linear2" x1="0" y1="0" x2="1" y2="0" gradientUnits="userSpaceOnUse" gradientTransform="matrix(-1491.98 0 0 -1491.98 25723.4 2451.75)">
      <stop offset="0"/>
      <stop offset=".47" stop-color="#c5c5c5" stop-opacity=".33"/>
      <stop offset="1" stop-color="#fff" stop-opacity=".13"/>
    </linearGradient>
  </defs>
</svg>