<svg
  viewBox="0 0 1135 822"
  xmlns="http://www.w3.org/2000/svg"
  fill-rule="evenodd"
  clip-rule="evenodd"
  stroke-linejoin="round"
  stroke-miterlimit="1.5"
>
  <path
    d="M1048.551 600.46c-23.443 0-44.685 9.516-60.064 24.894-15.371 15.378-24.895 36.619-24.895 60.063 0 23.445 9.524 44.685 24.895 60.063 15.38 15.378 36.62 24.896 60.064 24.896 23.443 0 44.685-9.518 60.064-24.896 15.38-15.378 24.895-36.618 24.895-60.063 0-23.444-9.516-44.685-24.895-60.063-15.38-15.378-36.62-24.895-60.064-24.895zm0 2.115c22.862 0 43.577 9.28 58.566 24.276 14.997 14.995 24.276 35.706 24.276 58.566 0 22.861-9.28 43.572-24.276 58.567-14.99 14.995-35.704 24.276-58.566 24.276-22.862 0-43.569-9.281-58.566-24.276s-24.276-35.706-24.276-58.567c0-22.86 9.28-43.571 24.276-58.566 14.997-14.996 35.704-24.276 58.566-24.276z"
  />
  <path
    d="M2357.14 1411.86h-166.19"
    fill="none"
    stroke="#000"
    stroke-width="2"
    transform="matrix(1 0 0 1 -1226.288 -726.449)"
  />
  <path
    d="M737.332 600.456c-23.444 0-44.685 9.517-60.065 24.895-15.37 15.378-24.895 36.618-24.895 60.063 0 23.444 9.524 44.684 24.895 60.062 15.38 15.378 36.621 24.896 60.065 24.896 23.443 0 44.684-9.518 60.064-24.896 15.379-15.378 24.895-36.618 24.895-60.062 0-23.445-9.516-44.685-24.895-60.063-15.38-15.378-36.621-24.895-60.064-24.895zm0 2.116c22.862 0 43.576 9.28 58.565 24.275 14.997 14.996 24.277 35.706 24.277 58.567 0 22.86-9.28 43.571-24.277 58.566-14.989 14.995-35.703 24.276-58.565 24.276-22.863 0-43.57-9.281-58.566-24.276-14.997-14.995-24.277-35.706-24.277-58.566s9.28-43.571 24.277-58.567c14.997-14.995 35.703-24.275 58.566-24.275z"
  />
  <path
    d="M695.374 642.405c-11.867 0-22.618 4.817-30.404 12.603-7.785 7.785-12.605 18.537-12.605 30.406s4.82 22.621 12.605 30.407c7.786 7.784 18.537 12.602 30.404 12.602 11.87 0 22.622-4.818 30.407-12.602 7.786-7.786 12.601-18.538 12.601-30.407s-4.815-22.621-12.6-30.406c-7.786-7.786-18.537-12.603-30.408-12.603zm0 2.116c11.286 0 21.51 4.58 28.91 11.983 7.402 7.402 11.985 17.625 11.985 28.91s-4.583 21.508-11.986 28.91c-7.4 7.402-17.623 11.983-28.91 11.983-11.282 0-21.505-4.58-28.908-11.983-7.404-7.402-11.982-17.625-11.982-28.91s4.578-21.508 11.982-28.91c7.403-7.402 17.626-11.983 28.909-11.983z"
  />
  <path
    d="M779.287 642.405c-11.867 0-22.618 4.817-30.404 12.603-7.785 7.785-12.605 18.537-12.605 30.406s4.82 22.621 12.605 30.407c7.786 7.784 18.537 12.602 30.404 12.602 11.87 0 22.622-4.818 30.407-12.602 7.786-7.786 12.601-18.538 12.601-30.407s-4.815-22.621-12.6-30.406c-7.786-7.786-18.537-12.603-30.408-12.603zm0 2.116c11.286 0 21.51 4.58 28.91 11.983 7.402 7.402 11.985 17.625 11.985 28.91s-4.583 21.508-11.986 28.91c-7.4 7.402-17.623 11.983-28.91 11.983-11.282 0-21.505-4.58-28.908-11.983-7.404-7.402-11.982-17.625-11.982-28.91s4.578-21.508 11.982-28.91c7.403-7.402 17.626-11.983 28.909-11.983z"
  />
  <path
    d="M800.26 663.382a21.962 21.962 0 00-15.575 6.456 21.966 21.966 0 00-6.457 15.577c0 6.08 2.469 11.588 6.457 15.577a21.961 21.961 0 0015.576 6.456c6.08 0 11.59-2.468 15.578-6.456a21.964 21.964 0 006.455-15.577c0-6.08-2.467-11.589-6.455-15.577a21.967 21.967 0 00-15.578-6.456zm0 2.116a19.86 19.86 0 0114.082 5.836 19.86 19.86 0 015.836 14.081 19.859 19.859 0 01-5.836 14.08 19.859 19.859 0 01-14.081 5.837 19.85 19.85 0 01-14.08-5.837 19.85 19.85 0 01-5.836-14.08c0-5.496 2.23-10.475 5.836-14.08a19.851 19.851 0 0114.08-5.837z"
  />
  <path
    d="M810.736 673.867a11.513 11.513 0 00-8.163 3.384 11.511 11.511 0 00-3.383 8.163c0 3.186 1.293 6.073 3.383 8.163a11.513 11.513 0 008.163 3.383 11.51 11.51 0 008.164-3.383 11.512 11.512 0 003.383-8.163c0-3.187-1.293-6.073-3.383-8.163a11.51 11.51 0 00-8.164-3.384zm0 2.116a9.4 9.4 0 016.667 2.764 9.4 9.4 0 012.765 6.667 9.4 9.4 0 01-2.765 6.667 9.399 9.399 0 01-6.667 2.763 9.402 9.402 0 01-6.667-2.763 9.403 9.403 0 01-2.763-6.667 9.403 9.403 0 012.763-6.667 9.403 9.403 0 016.667-2.764zM663.92 673.867a11.513 11.513 0 00-8.164 3.384 11.511 11.511 0 00-3.383 8.163c0 3.186 1.293 6.073 3.383 8.163a11.513 11.513 0 008.163 3.383 11.51 11.51 0 008.164-3.383 11.512 11.512 0 003.383-8.163c0-3.187-1.294-6.073-3.383-8.163a11.51 11.51 0 00-8.164-3.384zm0 2.116a9.4 9.4 0 016.666 2.764 9.4 9.4 0 012.765 6.667 9.4 9.4 0 01-2.765 6.667 9.399 9.399 0 01-6.667 2.763 9.402 9.402 0 01-6.667-2.763 9.403 9.403 0 01-2.763-6.667 9.403 9.403 0 012.763-6.667 9.403 9.403 0 016.667-2.764z"
  />
  <path
    d="M818.624 681.726a3.67 3.67 0 00-2.602 1.078 3.67 3.67 0 00-1.079 2.603 3.67 3.67 0 001.079 2.602 3.67 3.67 0 002.602 1.079 3.67 3.67 0 002.603-1.079 3.67 3.67 0 001.078-2.602 3.67 3.67 0 00-1.078-2.603 3.67 3.67 0 00-2.603-1.078zm0 2.116c.432 0 .823.175 1.107.459a1.56 1.56 0 010 2.212 1.56 1.56 0 01-2.213 0 1.56 1.56 0 010-2.212 1.56 1.56 0 011.106-.46zM656.057 681.726a3.67 3.67 0 00-2.603 1.078 3.67 3.67 0 00-1.078 2.603 3.67 3.67 0 001.078 2.602 3.67 3.67 0 002.603 1.079 3.67 3.67 0 002.602-1.079 3.67 3.67 0 001.079-2.602 3.67 3.67 0 00-1.079-2.603 3.67 3.67 0 00-2.602-1.078zm0 2.116c.431 0 .823.175 1.106.459a1.56 1.56 0 010 2.212 1.56 1.56 0 01-2.213 0 1.56 1.56 0 010-2.212 1.56 1.56 0 011.107-.46z"
  />
  <path
    d="M815.998 679.112a6.281 6.281 0 00-4.454 1.846 6.28 6.28 0 00-1.846 4.455 6.28 6.28 0 001.846 4.454 6.281 6.281 0 004.454 1.846 6.28 6.28 0 004.455-1.846 6.281 6.281 0 001.846-4.454 6.281 6.281 0 00-1.846-4.455 6.28 6.28 0 00-4.455-1.846zm0 2.116c1.155 0 2.201.469 2.959 1.226a4.171 4.171 0 011.226 2.959c0 1.154-.469 2.2-1.226 2.958a4.172 4.172 0 01-2.959 1.226 4.17 4.17 0 01-2.958-1.226 4.171 4.171 0 01-1.226-2.958c0-1.155.469-2.201 1.226-2.959a4.17 4.17 0 012.958-1.226zM658.689 679.112a6.281 6.281 0 00-4.454 1.846 6.28 6.28 0 00-1.847 4.455 6.28 6.28 0 001.847 4.454 6.281 6.281 0 004.454 1.846 6.28 6.28 0 004.454-1.846 6.281 6.281 0 001.847-4.454 6.281 6.281 0 00-1.847-4.455 6.28 6.28 0 00-4.454-1.846zm0 2.116c1.155 0 2.201.469 2.959 1.226a4.171 4.171 0 011.226 2.959c0 1.154-.469 2.2-1.226 2.958a4.172 4.172 0 01-2.959 1.226 4.17 4.17 0 01-2.958-1.226 4.171 4.171 0 01-1.227-2.958c0-1.155.47-2.201 1.227-2.959a4.17 4.17 0 012.958-1.226z"
  />
  <path
    d="M674.404 663.382a21.962 21.962 0 00-15.576 6.456 21.966 21.966 0 00-6.457 15.577c0 6.08 2.469 11.588 6.457 15.577a21.961 21.961 0 0015.576 6.456c6.08 0 11.59-2.468 15.577-6.456a21.964 21.964 0 006.456-15.577c0-6.08-2.467-11.589-6.456-15.577a21.967 21.967 0 00-15.577-6.456zm0 2.116a19.86 19.86 0 0114.081 5.836 19.86 19.86 0 015.836 14.081 19.859 19.859 0 01-5.836 14.08 19.859 19.859 0 01-14.081 5.837 19.85 19.85 0 01-14.08-5.837 19.85 19.85 0 01-5.836-14.08c0-5.496 2.23-10.475 5.836-14.08a19.851 19.851 0 0114.08-5.837z"
  />
  <path
    d="M435.736 600.456c-23.443 0-44.685 9.517-60.064 24.895-15.371 15.378-24.895 36.618-24.895 60.063 0 23.444 9.524 44.684 24.895 60.062 15.38 15.378 36.62 24.896 60.064 24.896 23.443 0 44.685-9.518 60.064-24.896 15.38-15.378 24.896-36.618 24.896-60.062 0-23.445-9.517-44.685-24.896-60.063-15.379-15.378-36.62-24.895-60.064-24.895zm0 2.116c22.862 0 43.577 9.28 58.566 24.275 14.997 14.996 24.276 35.706 24.276 58.567 0 22.86-9.28 43.571-24.276 58.566-14.99 14.995-35.704 24.276-58.566 24.276-22.862 0-43.569-9.281-58.566-24.276s-24.276-35.706-24.276-58.566 9.28-43.571 24.276-58.567c14.997-14.995 35.704-24.275 58.566-24.275z"
    fill-opacity=".13"
  />
  <path
    d="M100.895 600.456c-23.443 0-44.685 9.517-60.064 24.895-15.372 15.378-24.896 36.618-24.896 60.063 0 23.444 9.524 44.684 24.896 60.062 15.379 15.378 36.62 24.896 60.064 24.896 23.443 0 44.685-9.518 60.064-24.896 15.379-15.378 24.895-36.618 24.895-60.062 0-23.445-9.516-44.685-24.895-60.063-15.38-15.378-36.621-24.895-60.064-24.895zm0 2.116c22.862 0 43.576 9.28 58.566 24.275 14.997 14.996 24.276 35.706 24.276 58.567 0 22.86-9.28 43.571-24.276 58.566-14.99 14.995-35.704 24.276-58.566 24.276-22.862 0-43.57-9.281-58.566-24.276-14.997-14.995-24.276-35.706-24.276-58.566s9.279-43.571 24.276-58.567c14.997-14.995 35.704-24.275 58.566-24.275z"
  />
  <path
    d="M477.691 642.405c-11.867 0-22.618 4.817-30.403 12.603-7.786 7.785-12.605 18.537-12.605 30.406s4.82 22.621 12.605 30.407c7.785 7.784 18.536 12.602 30.403 12.602 11.871 0 22.623-4.818 30.408-12.602 7.785-7.786 12.601-18.538 12.601-30.407s-4.816-22.621-12.601-30.406c-7.785-7.786-18.537-12.603-30.408-12.603zm0 2.116c11.287 0 21.51 4.58 28.91 11.983 7.403 7.402 11.985 17.625 11.985 28.91s-4.582 21.508-11.985 28.91c-7.4 7.402-17.623 11.983-28.91 11.983-11.282 0-21.506-4.58-28.909-11.983-7.403-7.402-11.982-17.625-11.982-28.91s4.579-21.508 11.982-28.91c7.403-7.402 17.627-11.983 28.91-11.983z"
    fill-opacity=".13"
  />
  <path
    d="M142.85 642.405c-11.867 0-22.618 4.817-30.404 12.603-7.785 7.785-12.604 18.537-12.604 30.406s4.82 22.621 12.604 30.407c7.786 7.784 18.537 12.602 30.404 12.602 11.871 0 22.622-4.818 30.408-12.602 7.785-7.786 12.6-18.538 12.6-30.407s-4.815-22.621-12.6-30.406c-7.786-7.786-18.537-12.603-30.408-12.603zm0 2.116c11.286 0 21.51 4.58 28.91 11.983 7.403 7.402 11.985 17.625 11.985 28.91s-4.582 21.508-11.986 28.91c-7.399 7.402-17.623 11.983-28.909 11.983-11.282 0-21.506-4.58-28.91-11.983-7.402-7.402-11.981-17.625-11.981-28.91s4.579-21.508 11.982-28.91c7.403-7.402 17.627-11.983 28.91-11.983z"
  />
  <path
    d="M163.824 663.382a21.962 21.962 0 00-15.576 6.456 21.966 21.966 0 00-6.457 15.577c0 6.08 2.47 11.588 6.457 15.577a21.961 21.961 0 0015.576 6.456c6.08 0 11.59-2.468 15.578-6.456a21.964 21.964 0 006.455-15.577c0-6.08-2.467-11.589-6.455-15.577a21.967 21.967 0 00-15.578-6.456zm0 2.116a19.86 19.86 0 0114.082 5.836 19.86 19.86 0 015.836 14.081 19.859 19.859 0 01-5.836 14.08 19.859 19.859 0 01-14.082 5.837 19.85 19.85 0 01-14.08-5.837 19.85 19.85 0 01-5.835-14.08c0-5.496 2.23-10.475 5.836-14.08a19.851 19.851 0 0114.08-5.837z"
  />
  <path
    d="M174.3 673.867a11.513 11.513 0 00-8.164 3.384 11.511 11.511 0 00-3.382 8.163c0 3.186 1.292 6.073 3.382 8.163a11.513 11.513 0 008.164 3.383 11.51 11.51 0 008.163-3.383 11.512 11.512 0 003.384-8.163c0-3.187-1.294-6.073-3.384-8.163a11.51 11.51 0 00-8.163-3.384zm0 2.116a9.4 9.4 0 016.667 2.764 9.4 9.4 0 012.764 6.667 9.4 9.4 0 01-2.764 6.667 9.399 9.399 0 01-6.667 2.763 9.402 9.402 0 01-6.667-2.763 9.403 9.403 0 01-2.764-6.667 9.403 9.403 0 012.764-6.667 9.403 9.403 0 016.667-2.764z"
  />
  <path
    d="M153.34 673.867a11.513 11.513 0 00-8.164 3.384 11.511 11.511 0 00-3.382 8.163c0 3.186 1.293 6.073 3.382 8.163a11.513 11.513 0 008.164 3.383 11.51 11.51 0 008.163-3.383 11.512 11.512 0 003.384-8.163c0-3.187-1.294-6.073-3.384-8.163a11.51 11.51 0 00-8.163-3.384zm0 2.116a9.4 9.4 0 016.667 2.764 9.4 9.4 0 012.764 6.667 9.4 9.4 0 01-2.764 6.667 9.399 9.399 0 01-6.667 2.763 9.402 9.402 0 01-6.667-2.763 9.403 9.403 0 01-2.764-6.667 9.403 9.403 0 012.764-6.667 9.403 9.403 0 016.667-2.764z"
  />
  <path
    d="M148.085 679.112a6.281 6.281 0 00-4.455 1.846 6.28 6.28 0 00-1.846 4.455 6.28 6.28 0 001.846 4.454 6.281 6.281 0 004.455 1.846 6.28 6.28 0 004.454-1.846 6.281 6.281 0 001.847-4.454 6.281 6.281 0 00-1.847-4.455 6.28 6.28 0 00-4.454-1.846zm0 2.116c1.155 0 2.2.469 2.958 1.226a4.171 4.171 0 011.227 2.959c0 1.154-.469 2.2-1.227 2.958a4.172 4.172 0 01-2.958 1.226 4.17 4.17 0 01-2.958-1.226 4.171 4.171 0 01-1.227-2.958c0-1.155.47-2.201 1.227-2.959a4.17 4.17 0 012.958-1.226zM169.07 679.112a6.281 6.281 0 00-4.455 1.846 6.28 6.28 0 00-1.846 4.455 6.28 6.28 0 001.846 4.454 6.281 6.281 0 004.454 1.846 6.28 6.28 0 004.455-1.846 6.281 6.281 0 001.846-4.454 6.281 6.281 0 00-1.846-4.455 6.28 6.28 0 00-4.455-1.846zm0 2.116c1.154 0 2.2.469 2.958 1.226a4.171 4.171 0 011.226 2.959c0 1.154-.469 2.2-1.226 2.958a4.172 4.172 0 01-2.959 1.226 4.17 4.17 0 01-2.958-1.226 4.171 4.171 0 01-1.226-2.958c0-1.155.469-2.201 1.226-2.959a4.17 4.17 0 012.958-1.226z"
  />
  <path
    d="M158.577 679.112a6.281 6.281 0 00-4.454 1.846 6.28 6.28 0 00-1.846 4.455 6.28 6.28 0 001.846 4.454 6.281 6.281 0 004.454 1.846 6.28 6.28 0 004.455-1.846 6.281 6.281 0 001.846-4.454 6.281 6.281 0 00-1.846-4.455 6.28 6.28 0 00-4.455-1.846zm0 2.116c1.155 0 2.201.469 2.959 1.226a4.171 4.171 0 011.226 2.959c0 1.154-.469 2.2-1.226 2.958a4.172 4.172 0 01-2.959 1.226 4.17 4.17 0 01-2.958-1.226 4.171 4.171 0 01-1.226-2.958c0-1.155.469-2.201 1.226-2.959a4.17 4.17 0 012.958-1.226zM179.562 679.112a6.281 6.281 0 00-4.455 1.846 6.28 6.28 0 00-1.846 4.455 6.28 6.28 0 001.846 4.454 6.281 6.281 0 004.455 1.846 6.28 6.28 0 004.454-1.846 6.281 6.281 0 001.847-4.454 6.281 6.281 0 00-1.847-4.455 6.28 6.28 0 00-4.454-1.846zm0 2.116c1.154 0 2.2.469 2.958 1.226a4.171 4.171 0 011.227 2.959c0 1.154-.47 2.2-1.227 2.958a4.172 4.172 0 01-2.958 1.226 4.17 4.17 0 01-2.958-1.226 4.171 4.171 0 01-1.227-2.958c0-1.155.469-2.201 1.227-2.959a4.17 4.17 0 012.958-1.226zM121.88 663.382a21.962 21.962 0 00-15.576 6.456 21.966 21.966 0 00-6.457 15.577c0 6.08 2.469 11.588 6.457 15.577a21.961 21.961 0 0015.576 6.456c6.08 0 11.59-2.468 15.578-6.456a21.964 21.964 0 006.455-15.577c0-6.08-2.467-11.589-6.455-15.577a21.967 21.967 0 00-15.578-6.456zm0 2.116a19.86 19.86 0 0114.081 5.836 19.86 19.86 0 015.836 14.081 19.859 19.859 0 01-5.836 14.08 19.859 19.859 0 01-14.081 5.837 19.85 19.85 0 01-14.08-5.837 19.85 19.85 0 01-5.836-14.08c0-5.496 2.23-10.475 5.836-14.08a19.851 19.851 0 0114.08-5.837z"
  />
  <path
    d="M132.355 673.867a11.513 11.513 0 00-8.163 3.384 11.511 11.511 0 00-3.383 8.163c0 3.186 1.293 6.073 3.383 8.163a11.513 11.513 0 008.163 3.383 11.51 11.51 0 008.164-3.383 11.512 11.512 0 003.383-8.163c0-3.187-1.293-6.073-3.383-8.163a11.51 11.51 0 00-8.164-3.384zm0 2.116a9.4 9.4 0 016.667 2.764 9.4 9.4 0 012.765 6.667 9.4 9.4 0 01-2.765 6.667 9.399 9.399 0 01-6.667 2.763 9.402 9.402 0 01-6.667-2.763 9.403 9.403 0 01-2.763-6.667 9.403 9.403 0 012.763-6.667 9.403 9.403 0 016.667-2.764z"
  />
  <path
    d="M111.396 673.867a11.513 11.513 0 00-8.164 3.384 11.511 11.511 0 00-3.383 8.163c0 3.186 1.293 6.073 3.383 8.163a11.513 11.513 0 008.164 3.383 11.51 11.51 0 008.163-3.383 11.512 11.512 0 003.384-8.163c0-3.187-1.294-6.073-3.384-8.163a11.51 11.51 0 00-8.163-3.384zm0 2.116a9.4 9.4 0 016.666 2.764 9.4 9.4 0 012.765 6.667 9.4 9.4 0 01-2.765 6.667 9.399 9.399 0 01-6.666 2.763 9.402 9.402 0 01-6.667-2.763 9.403 9.403 0 01-2.764-6.667 9.403 9.403 0 012.764-6.667 9.403 9.403 0 016.667-2.764z"
  />
  <path
    d="M106.14 679.112a6.281 6.281 0 00-4.454 1.846 6.28 6.28 0 00-1.846 4.455 6.28 6.28 0 001.846 4.454 6.281 6.281 0 004.455 1.846 6.28 6.28 0 004.454-1.846 6.281 6.281 0 001.847-4.454 6.281 6.281 0 00-1.847-4.455 6.28 6.28 0 00-4.454-1.846zm0 2.116c1.156 0 2.202.469 2.96 1.226a4.171 4.171 0 011.226 2.959c0 1.154-.47 2.2-1.227 2.958a4.172 4.172 0 01-2.958 1.226 4.17 4.17 0 01-2.958-1.226 4.171 4.171 0 01-1.227-2.958c0-1.155.47-2.201 1.227-2.959a4.17 4.17 0 012.958-1.226zM127.1 679.112a6.281 6.281 0 00-4.454 1.846 6.28 6.28 0 00-1.846 4.455 6.28 6.28 0 001.846 4.454 6.281 6.281 0 004.455 1.846 6.28 6.28 0 004.454-1.846 6.281 6.281 0 001.847-4.454 6.281 6.281 0 00-1.847-4.455 6.28 6.28 0 00-4.454-1.846zm0 2.116c1.155 0 2.201.469 2.959 1.226a4.171 4.171 0 011.227 2.959c0 1.154-.47 2.2-1.227 2.958a4.172 4.172 0 01-2.958 1.226 4.17 4.17 0 01-2.958-1.226 4.171 4.171 0 01-1.227-2.958c0-1.155.469-2.201 1.227-2.959a4.17 4.17 0 012.958-1.226z"
  />
  <path
    d="M116.633 679.112a6.281 6.281 0 00-4.455 1.846 6.28 6.28 0 00-1.846 4.455 6.28 6.28 0 001.846 4.454 6.281 6.281 0 004.455 1.846 6.28 6.28 0 004.454-1.846 6.281 6.281 0 001.847-4.454 6.281 6.281 0 00-1.847-4.455 6.28 6.28 0 00-4.454-1.846zm0 2.116c1.155 0 2.2.469 2.958 1.226a4.171 4.171 0 011.227 2.959c0 1.154-.47 2.2-1.227 2.958a4.172 4.172 0 01-2.958 1.226 4.17 4.17 0 01-2.958-1.226 4.171 4.171 0 01-1.227-2.958c0-1.155.47-2.201 1.227-2.959a4.17 4.17 0 012.958-1.226zM137.593 679.112a6.281 6.281 0 00-4.455 1.846 6.28 6.28 0 00-1.846 4.455 6.28 6.28 0 001.846 4.454 6.281 6.281 0 004.455 1.846 6.28 6.28 0 004.454-1.846 6.281 6.281 0 001.847-4.454 6.281 6.281 0 00-1.847-4.455 6.28 6.28 0 00-4.454-1.846zm0 2.116c1.155 0 2.2.469 2.958 1.226a4.171 4.171 0 011.227 2.959c0 1.154-.47 2.2-1.227 2.958a4.172 4.172 0 01-2.958 1.226 4.17 4.17 0 01-2.958-1.226 4.171 4.171 0 01-1.227-2.958c0-1.155.47-2.201 1.227-2.959a4.17 4.17 0 012.958-1.226z"
  />
  <path
    d="M393.803 642.405c-11.867 0-22.618 4.817-30.404 12.603-7.785 7.785-12.605 18.537-12.605 30.406s4.82 22.621 12.605 30.407c7.786 7.784 18.537 12.602 30.404 12.602 11.871 0 22.622-4.818 30.407-12.602 7.786-7.786 12.601-18.538 12.601-30.407s-4.815-22.621-12.6-30.406c-7.786-7.786-18.537-12.603-30.408-12.603zm0 2.116c11.286 0 21.51 4.58 28.91 11.983 7.402 7.402 11.985 17.625 11.985 28.91s-4.583 21.508-11.986 28.91c-7.399 7.402-17.623 11.983-28.909 11.983-11.282 0-21.506-4.58-28.91-11.983-7.403-7.402-11.981-17.625-11.981-28.91s4.578-21.508 11.982-28.91c7.403-7.402 17.627-11.983 28.909-11.983z"
    fill-opacity=".13"
  />
  <path
    d="M435.747 642.405c-11.867 0-22.618 4.817-30.404 12.603-7.785 7.785-12.604 18.537-12.604 30.406s4.82 22.621 12.604 30.407c7.786 7.784 18.537 12.602 30.404 12.602 11.871 0 22.622-4.818 30.408-12.602 7.785-7.786 12.6-18.538 12.6-30.407s-4.815-22.621-12.6-30.406c-7.786-7.786-18.537-12.603-30.408-12.603zm0 2.116c11.286 0 21.51 4.58 28.91 11.983 7.403 7.402 11.985 17.625 11.985 28.91s-4.582 21.508-11.985 28.91c-7.4 7.402-17.624 11.983-28.91 11.983-11.282 0-21.506-4.58-28.91-11.983-7.402-7.402-11.981-17.625-11.981-28.91s4.579-21.508 11.982-28.91c7.403-7.402 17.627-11.983 28.91-11.983z"
  />
  <path
    d="M519.636 642.405c-11.868 0-22.619 4.817-30.404 12.603-7.785 7.785-12.605 18.537-12.605 30.406s4.82 22.621 12.605 30.407c7.785 7.784 18.536 12.602 30.404 12.602 11.87 0 22.622-4.818 30.407-12.602 7.786-7.786 12.601-18.538 12.601-30.407s-4.815-22.621-12.6-30.406c-7.786-7.786-18.537-12.603-30.408-12.603zm0 2.116c11.286 0 21.51 4.58 28.909 11.983 7.403 7.402 11.986 17.625 11.986 28.91s-4.583 21.508-11.986 28.91c-7.4 7.402-17.623 11.983-28.91 11.983-11.282 0-21.506-4.58-28.909-11.983-7.403-7.402-11.982-17.625-11.982-28.91s4.58-21.508 11.982-28.91c7.403-7.402 17.627-11.983 28.91-11.983zM351.834 642.405c-11.867 0-22.618 4.817-30.404 12.603-7.785 7.785-12.604 18.537-12.604 30.406s4.82 22.621 12.604 30.407c7.786 7.784 18.537 12.602 30.404 12.602 11.871 0 22.622-4.818 30.408-12.602 7.785-7.786 12.6-18.538 12.6-30.407s-4.815-22.621-12.6-30.406c-7.786-7.786-18.537-12.603-30.408-12.603zm0 2.116c11.286 0 21.51 4.58 28.91 11.983 7.403 7.402 11.985 17.625 11.985 28.91s-4.582 21.508-11.986 28.91c-7.399 7.402-17.623 11.983-28.909 11.983-11.282 0-21.506-4.58-28.91-11.983-7.402-7.402-11.981-17.625-11.981-28.91s4.579-21.508 11.982-28.91c7.403-7.402 17.627-11.983 28.91-11.983zM58.937 642.405c-11.867 0-22.618 4.817-30.404 12.603-7.785 7.785-12.604 18.537-12.604 30.406s4.82 22.621 12.604 30.407c7.786 7.784 18.537 12.602 30.404 12.602 11.871 0 22.622-4.818 30.408-12.602 7.785-7.786 12.6-18.538 12.6-30.407s-4.815-22.621-12.6-30.406c-7.786-7.786-18.537-12.603-30.408-12.603zm0 2.116c11.286 0 21.51 4.58 28.91 11.983 7.403 7.402 11.985 17.625 11.985 28.91s-4.582 21.508-11.986 28.91c-7.399 7.402-17.623 11.983-28.909 11.983-11.282 0-21.506-4.58-28.91-11.983-7.402-7.402-11.981-17.625-11.981-28.91s4.579-21.508 11.982-28.91c7.403-7.402 17.627-11.983 28.91-11.983z"
  />
  <path
    d="M79.936 663.382a21.962 21.962 0 00-15.576 6.456 21.966 21.966 0 00-6.457 15.577c0 6.08 2.469 11.588 6.457 15.577a21.961 21.961 0 0015.576 6.456c6.08 0 11.59-2.468 15.577-6.456a21.964 21.964 0 006.456-15.577c0-6.08-2.467-11.589-6.456-15.577a21.967 21.967 0 00-15.577-6.456zm0 2.116a19.86 19.86 0 0114.081 5.836 19.86 19.86 0 015.836 14.081 19.859 19.859 0 01-5.836 14.08 19.859 19.859 0 01-14.081 5.837 19.85 19.85 0 01-14.08-5.837 19.85 19.85 0 01-5.836-14.08c0-5.496 2.23-10.475 5.836-14.08a19.851 19.851 0 0114.08-5.837z"
  />
  <path
    d="M90.411 673.867a11.513 11.513 0 00-8.163 3.384 11.511 11.511 0 00-3.383 8.163c0 3.186 1.293 6.073 3.383 8.163a11.513 11.513 0 008.163 3.383 11.51 11.51 0 008.163-3.383 11.512 11.512 0 003.384-8.163c0-3.187-1.294-6.073-3.384-8.163a11.51 11.51 0 00-8.163-3.384zm0 2.116a9.4 9.4 0 016.667 2.764 9.4 9.4 0 012.765 6.667 9.4 9.4 0 01-2.765 6.667 9.399 9.399 0 01-6.667 2.763 9.402 9.402 0 01-6.667-2.763 9.403 9.403 0 01-2.763-6.667 9.403 9.403 0 012.763-6.667 9.403 9.403 0 016.667-2.764z"
  />
  <path
    d="M69.451 673.867a11.513 11.513 0 00-8.163 3.384 11.511 11.511 0 00-3.383 8.163c0 3.186 1.293 6.073 3.383 8.163a11.513 11.513 0 008.163 3.383 11.51 11.51 0 008.164-3.383 11.512 11.512 0 003.383-8.163c0-3.187-1.294-6.073-3.383-8.163a11.51 11.51 0 00-8.164-3.384zm0 2.116a9.4 9.4 0 016.667 2.764 9.4 9.4 0 012.765 6.667 9.4 9.4 0 01-2.765 6.667 9.399 9.399 0 01-6.667 2.763 9.402 9.402 0 01-6.667-2.763 9.403 9.403 0 01-2.763-6.667 9.403 9.403 0 012.763-6.667 9.403 9.403 0 016.667-2.764z"
  />
  <path
    d="M64.196 679.112a6.281 6.281 0 00-4.454 1.846 6.28 6.28 0 00-1.846 4.455 6.28 6.28 0 001.846 4.454 6.281 6.281 0 004.454 1.846 6.28 6.28 0 004.455-1.846 6.281 6.281 0 001.846-4.454 6.281 6.281 0 00-1.846-4.455 6.28 6.28 0 00-4.455-1.846zm0 2.116c1.155 0 2.201.469 2.959 1.226a4.171 4.171 0 011.227 2.959c0 1.154-.47 2.2-1.227 2.958a4.172 4.172 0 01-2.959 1.226 4.17 4.17 0 01-2.958-1.226 4.171 4.171 0 01-1.226-2.958c0-1.155.469-2.201 1.226-2.959a4.17 4.17 0 012.958-1.226zM85.156 679.112a6.281 6.281 0 00-4.454 1.846 6.28 6.28 0 00-1.846 4.455 6.28 6.28 0 001.846 4.454 6.281 6.281 0 004.454 1.846 6.28 6.28 0 004.455-1.846 6.281 6.281 0 001.846-4.454 6.281 6.281 0 00-1.846-4.455 6.28 6.28 0 00-4.455-1.846zm0 2.116c1.155 0 2.201.469 2.959 1.226a4.171 4.171 0 011.226 2.959c0 1.154-.469 2.2-1.226 2.958a4.172 4.172 0 01-2.959 1.226 4.17 4.17 0 01-2.958-1.226 4.171 4.171 0 01-1.226-2.958c0-1.155.469-2.201 1.226-2.959a4.17 4.17 0 012.958-1.226z"
  />
  <path
    d="M74.689 679.112a6.281 6.281 0 00-4.455 1.846 6.28 6.28 0 00-1.846 4.455 6.28 6.28 0 001.846 4.454 6.281 6.281 0 004.455 1.846 6.28 6.28 0 004.454-1.846 6.281 6.281 0 001.847-4.454 6.281 6.281 0 00-1.847-4.455 6.28 6.28 0 00-4.454-1.846zm0 2.116c1.155 0 2.2.469 2.958 1.226a4.171 4.171 0 011.227 2.959c0 1.154-.47 2.2-1.227 2.958a4.172 4.172 0 01-2.958 1.226 4.17 4.17 0 01-2.958-1.226 4.171 4.171 0 01-1.227-2.958c0-1.155.47-2.201 1.227-2.959a4.17 4.17 0 012.958-1.226zM95.648 679.112a6.281 6.281 0 00-4.454 1.846 6.28 6.28 0 00-1.846 4.455 6.28 6.28 0 001.846 4.454 6.281 6.281 0 004.454 1.846 6.28 6.28 0 004.455-1.846 6.281 6.281 0 001.847-4.454 6.281 6.281 0 00-1.847-4.455 6.28 6.28 0 00-4.455-1.846zm0 2.116c1.155 0 2.201.469 2.959 1.226a4.171 4.171 0 011.227 2.959c0 1.154-.47 2.2-1.227 2.958a4.172 4.172 0 01-2.959 1.226 4.17 4.17 0 01-2.958-1.226 4.171 4.171 0 01-1.226-2.958c0-1.155.469-2.201 1.226-2.959a4.17 4.17 0 012.958-1.226zM37.967 663.382a21.962 21.962 0 00-15.576 6.456 21.966 21.966 0 00-6.457 15.577c0 6.08 2.469 11.588 6.457 15.577a21.961 21.961 0 0015.576 6.456c6.08 0 11.59-2.468 15.578-6.456A21.964 21.964 0 0060 685.415c0-6.08-2.467-11.589-6.455-15.577a21.967 21.967 0 00-15.578-6.456zm0 2.116a19.86 19.86 0 0114.081 5.836 19.86 19.86 0 015.836 14.081 19.859 19.859 0 01-5.836 14.08 19.859 19.859 0 01-14.081 5.837 19.85 19.85 0 01-14.08-5.837 19.85 19.85 0 01-5.836-14.08c0-5.496 2.23-10.475 5.836-14.08a19.851 19.851 0 0114.08-5.837z"
  />
  <path
    d="M498.665 663.382a21.962 21.962 0 00-15.575 6.456 21.966 21.966 0 00-6.457 15.577c0 6.08 2.468 11.588 6.457 15.577a21.961 21.961 0 0015.575 6.456c6.081 0 11.59-2.468 15.578-6.456a21.964 21.964 0 006.455-15.577c0-6.08-2.467-11.589-6.455-15.577a21.967 21.967 0 00-15.578-6.456zm0 2.116a19.86 19.86 0 0114.082 5.836 19.86 19.86 0 015.836 14.081 19.859 19.859 0 01-5.836 14.08 19.859 19.859 0 01-14.082 5.837 19.85 19.85 0 01-14.08-5.837 19.85 19.85 0 01-5.835-14.08c0-5.496 2.23-10.475 5.836-14.08a19.851 19.851 0 0114.08-5.837z"
    fill-opacity=".13"
  />
  <path
    d="M456.721 663.382a21.962 21.962 0 00-15.576 6.456 21.966 21.966 0 00-6.457 15.577c0 6.08 2.47 11.588 6.457 15.577a21.961 21.961 0 0015.576 6.456c6.08 0 11.59-2.468 15.578-6.456a21.964 21.964 0 006.455-15.577c0-6.08-2.467-11.589-6.455-15.577a21.967 21.967 0 00-15.578-6.456zm0 2.116a19.86 19.86 0 0114.082 5.836 19.86 19.86 0 015.836 14.081 19.859 19.859 0 01-5.836 14.08 19.859 19.859 0 01-14.082 5.837 19.85 19.85 0 01-14.08-5.837 19.85 19.85 0 01-5.835-14.08c0-5.496 2.23-10.475 5.836-14.08a19.851 19.851 0 0114.08-5.837z"
    fill-opacity=".13"
  />
  <path
    d="M414.777 663.382a21.962 21.962 0 00-15.576 6.456 21.966 21.966 0 00-6.457 15.577c0 6.08 2.469 11.588 6.457 15.577a21.961 21.961 0 0015.576 6.456c6.08 0 11.59-2.468 15.578-6.456a21.964 21.964 0 006.455-15.577c0-6.08-2.467-11.589-6.455-15.577a21.967 21.967 0 00-15.578-6.456zm0 2.116a19.86 19.86 0 0114.082 5.836 19.86 19.86 0 015.835 14.081 19.859 19.859 0 01-5.835 14.08 19.859 19.859 0 01-14.082 5.837 19.85 19.85 0 01-14.08-5.837 19.85 19.85 0 01-5.836-14.08c0-5.496 2.23-10.475 5.836-14.08a19.851 19.851 0 0114.08-5.837z"
    fill-opacity=".13"
  />
  <path
    d="M372.808 663.382a21.962 21.962 0 00-15.576 6.456 21.966 21.966 0 00-6.457 15.577c0 6.08 2.47 11.588 6.457 15.577a21.961 21.961 0 0015.576 6.456c6.08 0 11.59-2.468 15.578-6.456a21.964 21.964 0 006.455-15.577c0-6.08-2.467-11.589-6.455-15.577a21.967 21.967 0 00-15.578-6.456zm0 2.116a19.86 19.86 0 0114.082 5.836 19.86 19.86 0 015.836 14.081 19.859 19.859 0 01-5.836 14.08 19.859 19.859 0 01-14.082 5.837 19.85 19.85 0 01-14.08-5.837 19.85 19.85 0 01-5.835-14.08c0-5.496 2.23-10.475 5.836-14.08a19.851 19.851 0 0114.08-5.837z"
    fill-opacity=".13"
  />
  <path
    d="M393.67 663.382a21.962 21.962 0 00-15.576 6.456 21.966 21.966 0 00-6.457 15.577c0 6.08 2.469 11.588 6.457 15.577a21.961 21.961 0 0015.576 6.456c6.08 0 11.59-2.468 15.577-6.456a21.964 21.964 0 006.456-15.577c0-6.08-2.467-11.589-6.456-15.577a21.967 21.967 0 00-15.577-6.456zm0 2.116a19.86 19.86 0 0114.081 5.836 19.86 19.86 0 015.836 14.081 19.859 19.859 0 01-5.836 14.08 19.859 19.859 0 01-14.081 5.837 19.85 19.85 0 01-14.08-5.837 19.85 19.85 0 01-5.836-14.08c0-5.496 2.23-10.475 5.836-14.08a19.851 19.851 0 0114.08-5.837z"
  />
  <path
    d="M435.737 663.382a21.962 21.962 0 00-15.576 6.456 21.966 21.966 0 00-6.457 15.577c0 6.08 2.469 11.588 6.457 15.577a21.961 21.961 0 0015.576 6.456c6.08 0 11.59-2.468 15.578-6.456a21.964 21.964 0 006.455-15.577c0-6.08-2.467-11.589-6.455-15.577a21.967 21.967 0 00-15.578-6.456zm0 2.116a19.86 19.86 0 0114.081 5.836 19.86 19.86 0 015.836 14.081 19.859 19.859 0 01-5.836 14.08 19.859 19.859 0 01-14.081 5.837 19.85 19.85 0 01-14.08-5.837 19.85 19.85 0 01-5.836-14.08c0-5.496 2.23-10.475 5.836-14.08a19.851 19.851 0 0114.08-5.837z"
  />
  <path
    d="M477.681 663.382a21.962 21.962 0 00-15.576 6.456 21.966 21.966 0 00-6.457 15.577c0 6.08 2.47 11.588 6.457 15.577a21.961 21.961 0 0015.576 6.456c6.08 0 11.59-2.468 15.578-6.456a21.964 21.964 0 006.455-15.577c0-6.08-2.467-11.589-6.455-15.577a21.967 21.967 0 00-15.578-6.456zm0 2.116a19.86 19.86 0 0114.082 5.836 19.86 19.86 0 015.836 14.081 19.859 19.859 0 01-5.836 14.08 19.859 19.859 0 01-14.082 5.837 19.85 19.85 0 01-14.08-5.837 19.85 19.85 0 01-5.836-14.08c0-5.496 2.23-10.475 5.836-14.08a19.851 19.851 0 0114.08-5.837zM48.467 673.867a11.513 11.513 0 00-8.163 3.384 11.511 11.511 0 00-3.383 8.163c0 3.186 1.293 6.073 3.383 8.163a11.513 11.513 0 008.163 3.383 11.51 11.51 0 008.163-3.383 11.512 11.512 0 003.384-8.163c0-3.187-1.294-6.073-3.384-8.163a11.51 11.51 0 00-8.163-3.384zm0 2.116a9.4 9.4 0 016.667 2.764 9.4 9.4 0 012.764 6.667 9.4 9.4 0 01-2.764 6.667 9.399 9.399 0 01-6.667 2.763 9.402 9.402 0 01-6.667-2.763 9.403 9.403 0 01-2.764-6.667 9.403 9.403 0 012.764-6.667 9.403 9.403 0 016.667-2.764z"
  />
  <path
    d="M27.482 673.867a11.513 11.513 0 00-8.163 3.384 11.511 11.511 0 00-3.383 8.163c0 3.186 1.293 6.073 3.383 8.163a11.513 11.513 0 008.163 3.383 11.51 11.51 0 008.164-3.383 11.512 11.512 0 003.383-8.163c0-3.187-1.293-6.073-3.383-8.163a11.51 11.51 0 00-8.164-3.384zm0 2.116a9.4 9.4 0 016.667 2.764 9.4 9.4 0 012.765 6.667 9.4 9.4 0 01-2.765 6.667 9.399 9.399 0 01-6.667 2.763 9.402 9.402 0 01-6.666-2.763 9.403 9.403 0 01-2.764-6.667 9.403 9.403 0 012.764-6.667 9.403 9.403 0 016.666-2.764z"
  />
  <path
    d="M22.252 679.112a6.281 6.281 0 00-4.454 1.846 6.28 6.28 0 00-1.846 4.455 6.28 6.28 0 001.846 4.454 6.281 6.281 0 004.454 1.846 6.28 6.28 0 004.455-1.846 6.281 6.281 0 001.846-4.454 6.281 6.281 0 00-1.846-4.455 6.28 6.28 0 00-4.455-1.846zm0 2.116c1.155 0 2.201.469 2.959 1.226a4.171 4.171 0 011.226 2.959c0 1.154-.469 2.2-1.226 2.958a4.172 4.172 0 01-2.959 1.226 4.17 4.17 0 01-2.958-1.226 4.171 4.171 0 01-1.226-2.958c0-1.155.469-2.201 1.226-2.959a4.17 4.17 0 012.958-1.226zM43.212 679.112a6.281 6.281 0 00-4.454 1.846 6.28 6.28 0 00-1.846 4.455 6.28 6.28 0 001.846 4.454 6.281 6.281 0 004.454 1.846 6.28 6.28 0 004.455-1.846 6.281 6.281 0 001.846-4.454 6.281 6.281 0 00-1.846-4.455 6.28 6.28 0 00-4.455-1.846zm0 2.116c1.155 0 2.201.469 2.959 1.226a4.171 4.171 0 011.226 2.959c0 1.154-.469 2.2-1.226 2.958a4.172 4.172 0 01-2.959 1.226 4.17 4.17 0 01-2.958-1.226 4.171 4.171 0 01-1.227-2.958c0-1.155.47-2.201 1.227-2.959a4.17 4.17 0 012.958-1.226z"
  />
  <path
    d="M32.744 679.112a6.281 6.281 0 00-4.454 1.846 6.28 6.28 0 00-1.846 4.455 6.28 6.28 0 001.846 4.454 6.281 6.281 0 004.454 1.846 6.28 6.28 0 004.455-1.846 6.281 6.281 0 001.846-4.454 6.281 6.281 0 00-1.846-4.455 6.28 6.28 0 00-4.455-1.846zm0 2.116c1.155 0 2.201.469 2.959 1.226a4.171 4.171 0 011.226 2.959c0 1.154-.469 2.2-1.226 2.958a4.172 4.172 0 01-2.959 1.226 4.17 4.17 0 01-2.958-1.226 4.171 4.171 0 01-1.226-2.958c0-1.155.469-2.201 1.226-2.959a4.17 4.17 0 012.958-1.226zM53.704 679.112a6.281 6.281 0 00-4.454 1.846 6.28 6.28 0 00-1.846 4.455 6.28 6.28 0 001.846 4.454 6.281 6.281 0 004.454 1.846 6.28 6.28 0 004.455-1.846 6.281 6.281 0 001.846-4.454 6.281 6.281 0 00-1.846-4.455 6.28 6.28 0 00-4.455-1.846zm0 2.116c1.155 0 2.201.469 2.959 1.226a4.171 4.171 0 011.226 2.959c0 1.154-.469 2.2-1.226 2.958a4.172 4.172 0 01-2.959 1.226 4.17 4.17 0 01-2.958-1.226 4.171 4.171 0 01-1.226-2.958c0-1.155.469-2.201 1.226-2.959a4.17 4.17 0 012.958-1.226z"
  />
  <path
    d="M2357.14 1411.86h-166.19"
    fill="none"
    stroke="#000"
    stroke-width="3"
    transform="matrix(1 0 0 1 -2172.34 -726.451)"
  />
  <path
    d="M1048.545 302.247c-23.443 0-44.685 9.518-60.064 24.895-15.371 15.379-24.895 36.619-24.895 60.064 0 23.444 9.524 44.684 24.895 60.062 15.38 15.379 36.621 24.896 60.064 24.896 23.443 0 44.685-9.517 60.064-24.896 15.38-15.378 24.896-36.618 24.896-60.062 0-23.445-9.517-44.685-24.896-60.064-15.379-15.377-36.62-24.895-60.064-24.895zm0 2.116c22.863 0 43.577 9.28 58.566 24.276 14.997 14.995 24.276 35.706 24.276 58.567 0 22.86-9.279 43.571-24.276 58.567-14.99 14.994-35.703 24.275-58.566 24.275-22.862 0-43.569-9.28-58.565-24.275-14.997-14.996-24.277-35.706-24.277-58.567 0-22.861 9.28-43.572 24.277-58.567 14.996-14.996 35.703-24.276 58.565-24.276z"
  />
  <path
    d="M1095.737 380.905a6.281 6.281 0 00-4.455 1.846 6.28 6.28 0 00-1.846 4.454 6.28 6.28 0 001.846 4.455 6.281 6.281 0 004.455 1.846 6.28 6.28 0 004.454-1.846 6.281 6.281 0 001.847-4.455 6.281 6.281 0 00-1.847-4.454 6.28 6.28 0 00-4.454-1.846zm0 2.115c1.155 0 2.2.47 2.958 1.227a4.171 4.171 0 011.227 2.958c0 1.155-.469 2.201-1.227 2.959a4.172 4.172 0 01-2.958 1.226 4.17 4.17 0 01-2.958-1.226 4.172 4.172 0 01-1.227-2.959c0-1.155.47-2.2 1.227-2.958a4.17 4.17 0 012.958-1.227zM1116.715 380.905a6.281 6.281 0 00-4.454 1.846 6.28 6.28 0 00-1.846 4.454 6.28 6.28 0 001.846 4.455 6.281 6.281 0 004.454 1.846 6.28 6.28 0 004.455-1.846 6.281 6.281 0 001.846-4.455 6.281 6.281 0 00-1.846-4.454 6.28 6.28 0 00-4.455-1.846zm0 2.115c1.155 0 2.201.47 2.959 1.227a4.171 4.171 0 011.226 2.958c0 1.155-.469 2.201-1.226 2.959a4.172 4.172 0 01-2.959 1.226 4.17 4.17 0 01-2.958-1.226 4.172 4.172 0 01-1.226-2.959c0-1.155.469-2.2 1.226-2.958a4.17 4.17 0 012.958-1.227z"
  />
  <path
    d="M1106.226 380.905a6.281 6.281 0 00-4.454 1.846 6.28 6.28 0 00-1.846 4.454 6.28 6.28 0 001.846 4.455 6.281 6.281 0 004.454 1.846 6.28 6.28 0 004.455-1.846 6.281 6.281 0 001.846-4.455 6.281 6.281 0 00-1.846-4.454 6.28 6.28 0 00-4.455-1.846zm0 2.115c1.155 0 2.201.47 2.959 1.227a4.171 4.171 0 011.226 2.958c0 1.155-.469 2.201-1.226 2.959a4.172 4.172 0 01-2.959 1.226 4.17 4.17 0 01-2.958-1.226 4.172 4.172 0 01-1.226-2.959c0-1.155.469-2.2 1.226-2.958a4.17 4.17 0 012.958-1.227zM1127.204 380.905a6.281 6.281 0 00-4.454 1.846 6.28 6.28 0 00-1.846 4.454 6.28 6.28 0 001.846 4.455 6.281 6.281 0 004.454 1.846 6.28 6.28 0 004.455-1.846 6.281 6.281 0 001.846-4.455 6.281 6.281 0 00-1.846-4.454 6.28 6.28 0 00-4.455-1.846zm0 2.115c1.155 0 2.201.47 2.959 1.227a4.171 4.171 0 011.227 2.958c0 1.155-.47 2.201-1.227 2.959a4.172 4.172 0 01-2.959 1.226 4.17 4.17 0 01-2.958-1.226 4.172 4.172 0 01-1.226-2.959c0-1.155.469-2.2 1.226-2.958a4.17 4.17 0 012.958-1.227zM1053.796 380.905a6.281 6.281 0 00-4.454 1.846 6.28 6.28 0 00-1.846 4.454 6.28 6.28 0 001.846 4.455 6.281 6.281 0 004.454 1.846 6.28 6.28 0 004.455-1.846 6.281 6.281 0 001.846-4.455 6.281 6.281 0 00-1.846-4.454 6.28 6.28 0 00-4.455-1.846zm0 2.115c1.155 0 2.201.47 2.959 1.227a4.171 4.171 0 011.226 2.958c0 1.155-.469 2.201-1.226 2.959a4.172 4.172 0 01-2.959 1.226 4.17 4.17 0 01-2.958-1.226 4.172 4.172 0 01-1.226-2.959c0-1.155.469-2.2 1.226-2.958a4.17 4.17 0 012.958-1.227zM1074.759 380.905a6.281 6.281 0 00-4.455 1.846 6.28 6.28 0 00-1.846 4.454 6.28 6.28 0 001.846 4.455 6.281 6.281 0 004.455 1.846 6.28 6.28 0 004.454-1.846 6.281 6.281 0 001.847-4.455 6.281 6.281 0 00-1.847-4.454 6.28 6.28 0 00-4.454-1.846zm0 2.115c1.155 0 2.2.47 2.958 1.227a4.171 4.171 0 011.227 2.958c0 1.155-.47 2.201-1.227 2.959a4.172 4.172 0 01-2.958 1.226 4.17 4.17 0 01-2.958-1.226 4.172 4.172 0 01-1.227-2.959c0-1.155.47-2.2 1.227-2.958a4.17 4.17 0 012.958-1.227z"
  />
  <path
    d="M1064.286 380.905a6.281 6.281 0 00-4.455 1.846 6.28 6.28 0 00-1.846 4.454 6.28 6.28 0 001.846 4.455 6.281 6.281 0 004.455 1.846 6.28 6.28 0 004.454-1.846 6.281 6.281 0 001.847-4.455 6.281 6.281 0 00-1.847-4.454 6.28 6.28 0 00-4.454-1.846zm0 2.115c1.154 0 2.2.47 2.958 1.227a4.171 4.171 0 011.227 2.958c0 1.155-.47 2.201-1.227 2.959a4.172 4.172 0 01-2.958 1.226 4.17 4.17 0 01-2.958-1.226 4.172 4.172 0 01-1.227-2.959c0-1.155.469-2.2 1.227-2.958a4.17 4.17 0 012.958-1.227zM1085.248 380.905a6.281 6.281 0 00-4.455 1.846 6.28 6.28 0 00-1.846 4.454 6.28 6.28 0 001.846 4.455 6.281 6.281 0 004.455 1.846 6.28 6.28 0 004.454-1.846 6.281 6.281 0 001.847-4.455 6.281 6.281 0 00-1.847-4.454 6.28 6.28 0 00-4.454-1.846zm0 2.115c1.155 0 2.2.47 2.958 1.227a4.171 4.171 0 011.227 2.958c0 1.155-.47 2.201-1.227 2.959a4.172 4.172 0 01-2.958 1.226 4.17 4.17 0 01-2.958-1.226 4.172 4.172 0 01-1.227-2.959c0-1.155.47-2.2 1.227-2.958a4.17 4.17 0 012.958-1.227zM1011.84 380.905a6.281 6.281 0 00-4.455 1.846 6.28 6.28 0 00-1.846 4.454 6.28 6.28 0 001.846 4.455 6.281 6.281 0 004.455 1.846 6.28 6.28 0 004.454-1.846 6.281 6.281 0 001.847-4.455 6.281 6.281 0 00-1.847-4.454 6.28 6.28 0 00-4.454-1.846zm0 2.115c1.155 0 2.2.47 2.958 1.227a4.171 4.171 0 011.227 2.958c0 1.155-.47 2.201-1.227 2.959a4.172 4.172 0 01-2.958 1.226 4.17 4.17 0 01-2.958-1.226 4.172 4.172 0 01-1.227-2.959c0-1.155.47-2.2 1.227-2.958a4.17 4.17 0 012.958-1.227zM1032.818 380.905a6.281 6.281 0 00-4.454 1.846 6.28 6.28 0 00-1.846 4.454 6.28 6.28 0 001.846 4.455 6.281 6.281 0 004.454 1.846 6.28 6.28 0 004.455-1.846 6.281 6.281 0 001.846-4.455 6.281 6.281 0 00-1.846-4.454 6.28 6.28 0 00-4.455-1.846zm0 2.115c1.155 0 2.201.47 2.959 1.227a4.171 4.171 0 011.226 2.958c0 1.155-.469 2.201-1.226 2.959a4.172 4.172 0 01-2.959 1.226 4.17 4.17 0 01-2.958-1.226 4.172 4.172 0 01-1.227-2.959c0-1.155.47-2.2 1.227-2.958a4.17 4.17 0 012.958-1.227z"
  />
  <path
    d="M1022.329 380.905a6.281 6.281 0 00-4.455 1.846 6.28 6.28 0 00-1.846 4.454 6.28 6.28 0 001.846 4.455 6.281 6.281 0 004.455 1.846 6.28 6.28 0 004.454-1.846 6.281 6.281 0 001.847-4.455 6.281 6.281 0 00-1.847-4.454 6.28 6.28 0 00-4.454-1.846zm0 2.115c1.155 0 2.2.47 2.958 1.227a4.171 4.171 0 011.227 2.958c0 1.155-.469 2.201-1.227 2.959a4.172 4.172 0 01-2.958 1.226 4.17 4.17 0 01-2.958-1.226 4.172 4.172 0 01-1.227-2.959c0-1.155.47-2.2 1.227-2.958a4.17 4.17 0 012.958-1.227zM1043.307 380.905a6.281 6.281 0 00-4.454 1.846 6.28 6.28 0 00-1.846 4.454 6.28 6.28 0 001.846 4.455 6.281 6.281 0 004.454 1.846 6.28 6.28 0 004.455-1.846 6.281 6.281 0 001.846-4.455 6.281 6.281 0 00-1.846-4.454 6.28 6.28 0 00-4.455-1.846zm0 2.115c1.155 0 2.201.47 2.959 1.227a4.171 4.171 0 011.226 2.958c0 1.155-.469 2.201-1.226 2.959a4.172 4.172 0 01-2.959 1.226 4.17 4.17 0 01-2.958-1.226 4.172 4.172 0 01-1.226-2.959c0-1.155.469-2.2 1.226-2.958a4.17 4.17 0 012.958-1.227zM969.9 380.905a6.281 6.281 0 00-4.455 1.846 6.28 6.28 0 00-1.846 4.454 6.28 6.28 0 001.846 4.455 6.281 6.281 0 004.454 1.846 6.28 6.28 0 004.455-1.846 6.281 6.281 0 001.846-4.455 6.281 6.281 0 00-1.846-4.454 6.28 6.28 0 00-4.455-1.846zm0 2.115c1.154 0 2.2.47 2.958 1.227a4.171 4.171 0 011.226 2.958c0 1.155-.469 2.201-1.226 2.959a4.172 4.172 0 01-2.959 1.226 4.17 4.17 0 01-2.958-1.226 4.172 4.172 0 01-1.226-2.959c0-1.155.469-2.2 1.226-2.958a4.17 4.17 0 012.958-1.227zM990.861 380.905a6.281 6.281 0 00-4.454 1.846 6.28 6.28 0 00-1.846 4.454 6.28 6.28 0 001.846 4.455 6.281 6.281 0 004.454 1.846 6.28 6.28 0 004.455-1.846 6.281 6.281 0 001.846-4.455 6.281 6.281 0 00-1.846-4.454 6.28 6.28 0 00-4.455-1.846zm0 2.115c1.155 0 2.201.47 2.959 1.227a4.171 4.171 0 011.227 2.958c0 1.155-.47 2.201-1.227 2.959a4.172 4.172 0 01-2.959 1.226 4.17 4.17 0 01-2.958-1.226 4.172 4.172 0 01-1.226-2.959c0-1.155.469-2.2 1.226-2.958a4.17 4.17 0 012.958-1.227z"
  />
  <path
    d="M980.388 380.905a6.281 6.281 0 00-4.454 1.846 6.28 6.28 0 00-1.846 4.454 6.28 6.28 0 001.846 4.455 6.281 6.281 0 004.454 1.846 6.28 6.28 0 004.455-1.846 6.281 6.281 0 001.846-4.455 6.281 6.281 0 00-1.846-4.454 6.28 6.28 0 00-4.455-1.846zm0 2.115c1.155 0 2.201.47 2.959 1.227a4.171 4.171 0 011.226 2.958c0 1.155-.469 2.201-1.226 2.959a4.172 4.172 0 01-2.959 1.226 4.17 4.17 0 01-2.958-1.226 4.172 4.172 0 01-1.226-2.959c0-1.155.469-2.2 1.226-2.958a4.17 4.17 0 012.958-1.227zM1001.35 380.905a6.281 6.281 0 00-4.454 1.846 6.28 6.28 0 00-1.846 4.454 6.28 6.28 0 001.846 4.455 6.281 6.281 0 004.455 1.846 6.28 6.28 0 004.454-1.846 6.281 6.281 0 001.847-4.455 6.281 6.281 0 00-1.847-4.454 6.28 6.28 0 00-4.454-1.846zm0 2.115c1.156 0 2.202.47 2.96 1.227a4.171 4.171 0 011.226 2.958c0 1.155-.47 2.201-1.227 2.959a4.172 4.172 0 01-2.958 1.226 4.17 4.17 0 01-2.958-1.226 4.172 4.172 0 01-1.227-2.959c0-1.155.47-2.2 1.227-2.958a4.17 4.17 0 012.958-1.227zM104.286 302.242c-23.443 0-44.685 9.517-60.064 24.895-15.372 15.378-24.896 36.618-24.896 60.063 0 23.444 9.524 44.684 24.896 60.062 15.379 15.378 36.62 24.896 60.064 24.896 23.443 0 44.685-9.518 60.064-24.896 15.379-15.378 24.895-36.618 24.895-60.062 0-23.445-9.516-44.685-24.895-60.063-15.38-15.378-36.621-24.895-60.064-24.895zm0 2.116c22.862 0 43.576 9.28 58.566 24.275 14.996 14.995 24.276 35.706 24.276 58.567 0 22.86-9.28 43.57-24.276 58.566-14.99 14.995-35.704 24.276-58.566 24.276-22.863 0-43.57-9.281-58.566-24.276-14.997-14.995-24.277-35.706-24.277-58.566 0-22.861 9.28-43.572 24.277-58.567 14.997-14.995 35.703-24.275 58.566-24.275z"
  />
  <path
    d="M146.241 344.19c-11.867 0-22.618 4.818-30.404 12.604-7.785 7.785-12.604 18.537-12.604 30.406s4.819 22.621 12.604 30.406c7.786 7.785 18.537 12.603 30.404 12.603 11.871 0 22.622-4.818 30.408-12.603 7.785-7.785 12.6-18.537 12.6-30.406s-4.815-22.621-12.6-30.406c-7.786-7.786-18.537-12.603-30.408-12.603zm0 2.116c11.286 0 21.51 4.581 28.91 11.984 7.403 7.402 11.985 17.625 11.985 28.91s-4.582 21.508-11.986 28.91c-7.399 7.402-17.623 11.983-28.909 11.983-11.282 0-21.506-4.58-28.91-11.983-7.402-7.402-11.981-17.625-11.981-28.91s4.579-21.508 11.982-28.91c7.403-7.403 17.627-11.984 28.91-11.984z"
  />
  <path
    d="M62.328 344.19c-11.867 0-22.618 4.818-30.404 12.604C24.14 364.579 19.32 375.33 19.32 387.2s4.82 22.621 12.605 30.406c7.786 7.785 18.537 12.603 30.404 12.603 11.871 0 22.622-4.818 30.408-12.603 7.785-7.785 12.6-18.537 12.6-30.406s-4.815-22.621-12.6-30.406c-7.786-7.786-18.537-12.603-30.408-12.603zm0 2.116c11.286 0 21.51 4.581 28.91 11.984 7.402 7.402 11.985 17.625 11.985 28.91s-4.583 21.508-11.986 28.91c-7.399 7.402-17.623 11.983-28.909 11.983-11.282 0-21.506-4.58-28.91-11.983-7.402-7.402-11.981-17.625-11.981-28.91s4.579-21.508 11.982-28.91c7.403-7.403 17.627-11.984 28.909-11.984zM433.525 302.242c-23.444 0-44.685 9.517-60.064 24.895-15.372 15.378-24.896 36.618-24.896 60.063 0 23.444 9.524 44.684 24.896 60.062 15.379 15.378 36.62 24.896 60.064 24.896 23.443 0 44.685-9.518 60.064-24.896 15.379-15.378 24.895-36.618 24.895-60.062 0-23.445-9.516-44.685-24.895-60.063-15.38-15.378-36.621-24.895-60.064-24.895zm0 2.116c22.862 0 43.576 9.28 58.565 24.275 14.997 14.995 24.277 35.706 24.277 58.567 0 22.86-9.28 43.57-24.277 58.566-14.989 14.995-35.703 24.276-58.565 24.276-22.863 0-43.57-9.281-58.566-24.276-14.997-14.995-24.277-35.706-24.277-58.566 0-22.861 9.28-43.572 24.277-58.567 14.997-14.995 35.703-24.275 58.566-24.275z"
  />
  <path
    d="M496.454 365.168a21.962 21.962 0 00-15.576 6.456 21.966 21.966 0 00-6.457 15.577c0 6.08 2.469 11.588 6.457 15.577a21.961 21.961 0 0015.576 6.456c6.08 0 11.59-2.468 15.578-6.456a21.964 21.964 0 006.455-15.577c0-6.08-2.467-11.589-6.455-15.577a21.967 21.967 0 00-15.578-6.456zm0 2.116a19.86 19.86 0 0114.082 5.836 19.86 19.86 0 015.835 14.08 19.859 19.859 0 01-5.835 14.081 19.859 19.859 0 01-14.082 5.837 19.85 19.85 0 01-14.08-5.837 19.85 19.85 0 01-5.836-14.08c0-5.496 2.23-10.476 5.836-14.08a19.851 19.851 0 0114.08-5.837z"
  />
  <path
    d="M454.485 365.168a21.962 21.962 0 00-15.576 6.456 21.966 21.966 0 00-6.457 15.577c0 6.08 2.47 11.588 6.457 15.577a21.961 21.961 0 0015.576 6.456c6.08 0 11.59-2.468 15.578-6.456a21.964 21.964 0 006.455-15.577c0-6.08-2.467-11.589-6.455-15.577a21.967 21.967 0 00-15.578-6.456zm0 2.116a19.86 19.86 0 0114.082 5.836 19.86 19.86 0 015.836 14.08 19.859 19.859 0 01-5.836 14.081 19.859 19.859 0 01-14.082 5.837 19.85 19.85 0 01-14.08-5.837 19.85 19.85 0 01-5.835-14.08c0-5.496 2.23-10.476 5.836-14.08a19.851 19.851 0 0114.08-5.837z"
  />
  <path
    d="M412.54 365.168a21.962 21.962 0 00-15.575 6.456 21.966 21.966 0 00-6.457 15.577c0 6.08 2.469 11.588 6.457 15.577a21.961 21.961 0 0015.576 6.456c6.08 0 11.59-2.468 15.578-6.456a21.964 21.964 0 006.455-15.577c0-6.08-2.467-11.589-6.455-15.577a21.967 21.967 0 00-15.578-6.456zm0 2.116a19.86 19.86 0 0114.082 5.836 19.86 19.86 0 015.836 14.08 19.859 19.859 0 01-5.836 14.081 19.859 19.859 0 01-14.081 5.837 19.85 19.85 0 01-14.08-5.837 19.85 19.85 0 01-5.836-14.08c0-5.496 2.23-10.476 5.836-14.08a19.851 19.851 0 0114.08-5.837z"
  />
  <path
    d="M370.597 365.168a21.962 21.962 0 00-15.576 6.456 21.966 21.966 0 00-6.457 15.577c0 6.08 2.469 11.588 6.457 15.577a21.961 21.961 0 0015.576 6.456c6.08 0 11.59-2.468 15.577-6.456a21.964 21.964 0 006.456-15.577c0-6.08-2.467-11.589-6.456-15.577a21.967 21.967 0 00-15.577-6.456zm0 2.116a19.86 19.86 0 0114.081 5.836 19.86 19.86 0 015.836 14.08 19.859 19.859 0 01-5.836 14.081 19.859 19.859 0 01-14.081 5.837 19.85 19.85 0 01-14.08-5.837 19.85 19.85 0 01-5.836-14.08c0-5.496 2.23-10.476 5.836-14.08a19.851 19.851 0 0114.08-5.837zM740.108 302.242c-23.443 0-44.685 9.517-60.064 24.895-15.371 15.378-24.895 36.618-24.895 60.063 0 23.444 9.524 44.684 24.895 60.062 15.38 15.378 36.621 24.896 60.064 24.896 23.443 0 44.685-9.518 60.064-24.896 15.38-15.378 24.896-36.618 24.896-60.062 0-23.445-9.517-44.685-24.896-60.063-15.379-15.378-36.62-24.895-60.064-24.895zm0 2.116c22.862 0 43.577 9.28 58.566 24.275 14.997 14.995 24.276 35.706 24.276 58.567 0 22.86-9.28 43.57-24.276 58.566-14.99 14.995-35.704 24.276-58.566 24.276-22.862 0-43.569-9.281-58.566-24.276s-24.276-35.706-24.276-58.566c0-22.861 9.28-43.572 24.276-58.567 14.997-14.995 35.704-24.275 58.566-24.275z"
  />
  <path
    d="M813.538 375.653a11.513 11.513 0 00-8.164 3.383 11.511 11.511 0 00-3.382 8.164c0 3.186 1.292 6.073 3.382 8.163a11.513 11.513 0 008.164 3.383 11.51 11.51 0 008.163-3.383 11.512 11.512 0 003.384-8.163c0-3.187-1.294-6.073-3.384-8.164a11.51 11.51 0 00-8.163-3.383zm0 2.116a9.4 9.4 0 016.667 2.764 9.4 9.4 0 012.764 6.667 9.4 9.4 0 01-2.764 6.667 9.399 9.399 0 01-6.667 2.763 9.402 9.402 0 01-6.667-2.763 9.403 9.403 0 01-2.764-6.667 9.403 9.403 0 012.764-6.667 9.403 9.403 0 016.667-2.764z"
  />
  <path
    d="M792.553 375.653a11.513 11.513 0 00-8.163 3.383 11.511 11.511 0 00-3.383 8.164c0 3.186 1.293 6.073 3.383 8.163a11.513 11.513 0 008.163 3.383 11.51 11.51 0 008.164-3.383 11.512 11.512 0 003.383-8.163c0-3.187-1.294-6.073-3.383-8.164a11.51 11.51 0 00-8.164-3.383zm0 2.116a9.4 9.4 0 016.667 2.764 9.4 9.4 0 012.765 6.667 9.4 9.4 0 01-2.765 6.667 9.399 9.399 0 01-6.667 2.763 9.402 9.402 0 01-6.667-2.763 9.403 9.403 0 01-2.763-6.667 9.403 9.403 0 012.763-6.667 9.403 9.403 0 016.667-2.764z"
  />
  <path
    d="M771.569 375.653a11.513 11.513 0 00-8.164 3.383 11.511 11.511 0 00-3.382 8.164c0 3.186 1.293 6.073 3.382 8.163a11.513 11.513 0 008.164 3.383 11.51 11.51 0 008.163-3.383 11.512 11.512 0 003.384-8.163c0-3.187-1.294-6.073-3.384-8.164a11.51 11.51 0 00-8.163-3.383zm0 2.116a9.4 9.4 0 016.667 2.764A9.4 9.4 0 01781 387.2a9.4 9.4 0 01-2.764 6.667 9.399 9.399 0 01-6.667 2.763 9.402 9.402 0 01-6.667-2.763 9.403 9.403 0 01-2.764-6.667 9.403 9.403 0 012.764-6.667 9.403 9.403 0 016.667-2.764z"
  />
  <path
    d="M750.609 375.653a11.513 11.513 0 00-8.163 3.383 11.511 11.511 0 00-3.383 8.164c0 3.186 1.293 6.073 3.383 8.163a11.513 11.513 0 008.163 3.383 11.51 11.51 0 008.163-3.383 11.512 11.512 0 003.384-8.163c0-3.187-1.294-6.073-3.384-8.164a11.51 11.51 0 00-8.163-3.383zm0 2.116a9.4 9.4 0 016.667 2.764 9.4 9.4 0 012.764 6.667 9.4 9.4 0 01-2.764 6.667 9.399 9.399 0 01-6.667 2.763 9.402 9.402 0 01-6.667-2.763 9.403 9.403 0 01-2.764-6.667 9.403 9.403 0 012.764-6.667 9.403 9.403 0 016.667-2.764z"
  />
  <path
    d="M729.625 375.653a11.513 11.513 0 00-8.164 3.383 11.511 11.511 0 00-3.383 8.164c0 3.186 1.293 6.073 3.383 8.163a11.513 11.513 0 008.164 3.383 11.51 11.51 0 008.163-3.383 11.512 11.512 0 003.384-8.163c0-3.187-1.294-6.073-3.384-8.164a11.51 11.51 0 00-8.163-3.383zm0 2.116a9.4 9.4 0 016.666 2.764 9.4 9.4 0 012.765 6.667 9.4 9.4 0 01-2.765 6.667 9.399 9.399 0 01-6.666 2.763 9.402 9.402 0 01-6.667-2.763 9.403 9.403 0 01-2.764-6.667 9.403 9.403 0 012.764-6.667 9.403 9.403 0 016.667-2.764z"
  />
  <path
    d="M708.665 375.653a11.513 11.513 0 00-8.164 3.383 11.511 11.511 0 00-3.382 8.164c0 3.186 1.293 6.073 3.382 8.163a11.513 11.513 0 008.164 3.383 11.51 11.51 0 008.163-3.383 11.512 11.512 0 003.384-8.163c0-3.187-1.294-6.073-3.384-8.164a11.51 11.51 0 00-8.163-3.383zm0 2.116a9.4 9.4 0 016.667 2.764 9.4 9.4 0 012.764 6.667 9.4 9.4 0 01-2.764 6.667 9.399 9.399 0 01-6.667 2.763 9.402 9.402 0 01-6.667-2.763 9.403 9.403 0 01-2.764-6.667 9.403 9.403 0 012.764-6.667 9.403 9.403 0 016.667-2.764z"
  />
  <path
    d="M687.68 375.653a11.513 11.513 0 00-8.163 3.383 11.511 11.511 0 00-3.383 8.164c0 3.186 1.293 6.073 3.383 8.163a11.513 11.513 0 008.163 3.383 11.51 11.51 0 008.164-3.383 11.512 11.512 0 003.383-8.163c0-3.187-1.294-6.073-3.383-8.164a11.51 11.51 0 00-8.164-3.383zm0 2.116a9.4 9.4 0 016.667 2.764 9.4 9.4 0 012.765 6.667 9.4 9.4 0 01-2.765 6.667 9.399 9.399 0 01-6.667 2.763 9.402 9.402 0 01-6.667-2.763 9.403 9.403 0 01-2.763-6.667 9.403 9.403 0 012.763-6.667 9.403 9.403 0 016.667-2.764z"
  />
  <path
    d="M666.72 375.653a11.513 11.513 0 00-8.163 3.383 11.511 11.511 0 00-3.383 8.164c0 3.186 1.293 6.073 3.383 8.163a11.513 11.513 0 008.163 3.383 11.51 11.51 0 008.164-3.383 11.512 11.512 0 003.383-8.163c0-3.187-1.293-6.073-3.383-8.164a11.51 11.51 0 00-8.164-3.383zm0 2.116a9.4 9.4 0 016.667 2.764 9.4 9.4 0 012.765 6.667 9.4 9.4 0 01-2.765 6.667 9.399 9.399 0 01-6.667 2.763 9.402 9.402 0 01-6.667-2.763 9.403 9.403 0 01-2.763-6.667 9.403 9.403 0 012.763-6.667 9.403 9.403 0 016.667-2.764zM439.274 6.62c-23.443 0-44.685 9.517-60.064 24.895-15.371 15.378-24.895 36.618-24.895 60.063 0 23.444 9.524 44.684 24.895 60.062 15.38 15.378 36.621 24.896 60.064 24.896 23.444 0 44.685-9.518 60.064-24.896 15.38-15.378 24.896-36.618 24.896-60.062 0-23.445-9.517-44.685-24.896-60.063C483.96 16.137 462.718 6.62 439.274 6.62zm0 2.116c22.863 0 43.577 9.28 58.566 24.275 14.997 14.996 24.277 35.706 24.277 58.567 0 22.86-9.28 43.57-24.277 58.566-14.989 14.995-35.703 24.276-58.566 24.276-22.862 0-43.569-9.281-58.565-24.276-14.997-14.995-24.277-35.706-24.277-58.566 0-22.861 9.28-43.571 24.277-58.567 14.996-14.995 35.703-24.275 58.565-24.275z"
  />
  <path
    d="M481.23 48.569c-11.867 0-22.619 4.817-30.404 12.603-7.785 7.785-12.605 18.537-12.605 30.406s4.82 22.621 12.605 30.406 18.537 12.603 30.404 12.603c11.87 0 22.622-4.818 30.407-12.603 7.786-7.785 12.601-18.537 12.601-30.406s-4.815-22.621-12.6-30.406c-7.786-7.786-18.537-12.603-30.408-12.603zm0 2.115c11.286 0 21.51 4.582 28.91 11.984 7.402 7.402 11.985 17.625 11.985 28.91s-4.583 21.508-11.986 28.91c-7.4 7.402-17.623 11.983-28.91 11.983-11.282 0-21.505-4.58-28.909-11.983-7.403-7.402-11.981-17.625-11.981-28.91s4.578-21.508 11.981-28.91c7.404-7.402 17.627-11.984 28.91-11.984z"
  />
  <path
    d="M502.204 69.546a21.962 21.962 0 00-15.576 6.456 21.966 21.966 0 00-6.457 15.577c0 6.08 2.469 11.588 6.457 15.577a21.961 21.961 0 0015.576 6.456c6.08 0 11.59-2.468 15.578-6.456a21.964 21.964 0 006.455-15.577c0-6.08-2.467-11.589-6.455-15.577a21.967 21.967 0 00-15.578-6.456zm0 2.116a19.86 19.86 0 0114.081 5.836 19.86 19.86 0 015.836 14.08 19.859 19.859 0 01-5.836 14.081 19.859 19.859 0 01-14.081 5.837 19.85 19.85 0 01-14.08-5.837 19.85 19.85 0 01-5.836-14.08c0-5.496 2.23-10.476 5.836-14.08a19.851 19.851 0 0114.08-5.837z"
  />
  <path
    d="M512.704 80.031a11.513 11.513 0 00-8.164 3.383 11.511 11.511 0 00-3.382 8.164c0 3.186 1.293 6.073 3.382 8.163a11.513 11.513 0 008.164 3.383 11.51 11.51 0 008.163-3.383 11.512 11.512 0 003.384-8.163c0-3.187-1.294-6.073-3.384-8.164a11.51 11.51 0 00-8.163-3.383zm0 2.116a9.4 9.4 0 016.667 2.764 9.4 9.4 0 012.764 6.667 9.4 9.4 0 01-2.764 6.667 9.399 9.399 0 01-6.667 2.763 9.402 9.402 0 01-6.667-2.763 9.403 9.403 0 01-2.764-6.667 9.403 9.403 0 012.764-6.667 9.403 9.403 0 016.667-2.764z"
  />
  <path
    d="M491.72 80.031a11.513 11.513 0 00-8.164 3.383 11.511 11.511 0 00-3.383 8.164c0 3.186 1.293 6.073 3.383 8.163a11.513 11.513 0 008.163 3.383 11.51 11.51 0 008.164-3.383 11.512 11.512 0 003.383-8.163c0-3.187-1.293-6.073-3.383-8.164a11.51 11.51 0 00-8.164-3.383zm0 2.116a9.4 9.4 0 016.666 2.764 9.4 9.4 0 012.765 6.667 9.4 9.4 0 01-2.765 6.667 9.399 9.399 0 01-6.667 2.763 9.402 9.402 0 01-6.667-2.763 9.403 9.403 0 01-2.763-6.667 9.403 9.403 0 012.763-6.667 9.403 9.403 0 016.667-2.764z"
  />
  <path
    d="M460.26 69.546a21.962 21.962 0 00-15.576 6.456 21.966 21.966 0 00-6.457 15.577c0 6.08 2.469 11.588 6.457 15.577a21.961 21.961 0 0015.576 6.456c6.08 0 11.59-2.468 15.577-6.456a21.964 21.964 0 006.455-15.577c0-6.08-2.467-11.589-6.455-15.577a21.967 21.967 0 00-15.577-6.456zm0 2.116a19.86 19.86 0 0114.081 5.836 19.86 19.86 0 015.836 14.08 19.859 19.859 0 01-5.836 14.081 19.859 19.859 0 01-14.081 5.837 19.85 19.85 0 01-14.08-5.837 19.85 19.85 0 01-5.836-14.08c0-5.496 2.23-10.476 5.836-14.08a19.851 19.851 0 0114.08-5.837z"
  />
  <path
    d="M470.735 80.031a11.513 11.513 0 00-8.163 3.383 11.511 11.511 0 00-3.383 8.164c0 3.186 1.293 6.073 3.383 8.163a11.513 11.513 0 008.163 3.383 11.51 11.51 0 008.163-3.383 11.512 11.512 0 003.384-8.163c0-3.187-1.294-6.073-3.384-8.164a11.51 11.51 0 00-8.163-3.383zm0 2.116a9.4 9.4 0 016.667 2.764 9.4 9.4 0 012.764 6.667 9.4 9.4 0 01-2.764 6.667 9.399 9.399 0 01-6.667 2.763 9.402 9.402 0 01-6.667-2.763 9.403 9.403 0 01-2.763-6.667 9.403 9.403 0 012.763-6.667 9.403 9.403 0 016.667-2.764z"
  />
  <path
    d="M449.775 80.031a11.513 11.513 0 00-8.163 3.383 11.511 11.511 0 00-3.383 8.164c0 3.186 1.293 6.073 3.383 8.163a11.513 11.513 0 008.163 3.383 11.51 11.51 0 008.164-3.383 11.512 11.512 0 003.383-8.163c0-3.187-1.294-6.073-3.383-8.164a11.51 11.51 0 00-8.164-3.383zm0 2.116a9.4 9.4 0 016.667 2.764 9.4 9.4 0 012.765 6.667 9.4 9.4 0 01-2.765 6.667 9.399 9.399 0 01-6.667 2.763 9.402 9.402 0 01-6.667-2.763 9.403 9.403 0 01-2.763-6.667 9.403 9.403 0 012.763-6.667 9.403 9.403 0 016.667-2.764z"
  />
  <path
    d="M397.341 48.569c-11.867 0-22.618 4.817-30.403 12.603-7.786 7.785-12.605 18.537-12.605 30.406s4.82 22.621 12.605 30.406 18.536 12.603 30.403 12.603c11.871 0 22.623-4.818 30.408-12.603s12.6-18.537 12.6-30.406-4.815-22.621-12.6-30.406c-7.785-7.786-18.537-12.603-30.408-12.603zm0 2.115c11.287 0 21.51 4.582 28.91 11.984 7.403 7.402 11.985 17.625 11.985 28.91s-4.582 21.508-11.985 28.91c-7.4 7.402-17.623 11.983-28.91 11.983-11.282 0-21.506-4.58-28.909-11.983-7.403-7.402-11.982-17.625-11.982-28.91s4.579-21.508 11.982-28.91c7.403-7.402 17.627-11.984 28.91-11.984z"
  />
  <path
    d="M418.315 69.546a21.962 21.962 0 00-15.576 6.456 21.966 21.966 0 00-6.457 15.577c0 6.08 2.47 11.588 6.457 15.577a21.961 21.961 0 0015.576 6.456c6.08 0 11.59-2.468 15.578-6.456a21.964 21.964 0 006.455-15.577c0-6.08-2.467-11.589-6.455-15.577a21.967 21.967 0 00-15.578-6.456zm0 2.116a19.86 19.86 0 0114.082 5.836 19.86 19.86 0 015.836 14.08 19.859 19.859 0 01-5.836 14.081 19.859 19.859 0 01-14.082 5.837 19.85 19.85 0 01-14.08-5.837 19.85 19.85 0 01-5.835-14.08c0-5.496 2.23-10.476 5.836-14.08a19.851 19.851 0 0114.08-5.837z"
  />
  <path
    d="M428.79 80.031a11.513 11.513 0 00-8.163 3.383 11.511 11.511 0 00-3.382 8.164c0 3.186 1.293 6.073 3.382 8.163a11.513 11.513 0 008.164 3.383 11.51 11.51 0 008.163-3.383 11.512 11.512 0 003.384-8.163c0-3.187-1.294-6.073-3.384-8.164a11.51 11.51 0 00-8.163-3.383zm0 2.116a9.4 9.4 0 016.668 2.764 9.4 9.4 0 012.764 6.667 9.4 9.4 0 01-2.764 6.667 9.399 9.399 0 01-6.667 2.763 9.402 9.402 0 01-6.667-2.763 9.403 9.403 0 01-2.764-6.667 9.403 9.403 0 012.764-6.667 9.403 9.403 0 016.667-2.764z"
  />
  <path
    d="M407.83 80.031a11.513 11.513 0 00-8.162 3.383 11.511 11.511 0 00-3.383 8.164c0 3.186 1.293 6.073 3.383 8.163a11.513 11.513 0 008.163 3.383 11.51 11.51 0 008.163-3.383 11.512 11.512 0 003.384-8.163c0-3.187-1.294-6.073-3.384-8.164a11.51 11.51 0 00-8.163-3.383zm0 2.116a9.4 9.4 0 016.668 2.764 9.4 9.4 0 012.764 6.667 9.4 9.4 0 01-2.764 6.667 9.399 9.399 0 01-6.667 2.763 9.402 9.402 0 01-6.667-2.763 9.403 9.403 0 01-2.764-6.667 9.403 9.403 0 012.764-6.667 9.403 9.403 0 016.667-2.764z"
  />
  <path
    d="M376.347 69.546a21.962 21.962 0 00-15.576 6.456 21.966 21.966 0 00-6.457 15.577c0 6.08 2.469 11.588 6.457 15.577a21.961 21.961 0 0015.576 6.456c6.08 0 11.59-2.468 15.577-6.456a21.964 21.964 0 006.455-15.577c0-6.08-2.467-11.589-6.455-15.577a21.967 21.967 0 00-15.577-6.456zm0 2.116a19.86 19.86 0 0114.081 5.836 19.86 19.86 0 015.836 14.08 19.859 19.859 0 01-5.836 14.081 19.859 19.859 0 01-14.081 5.837 19.85 19.85 0 01-14.08-5.837 19.85 19.85 0 01-5.836-14.08c0-5.496 2.23-10.476 5.836-14.08a19.851 19.851 0 0114.08-5.837z"
  />
  <path
    d="M386.847 80.031a11.513 11.513 0 00-8.164 3.383 11.511 11.511 0 00-3.383 8.164c0 3.186 1.293 6.073 3.383 8.163a11.513 11.513 0 008.164 3.383 11.51 11.51 0 008.163-3.383 11.512 11.512 0 003.384-8.163c0-3.187-1.294-6.073-3.384-8.164a11.51 11.51 0 00-8.163-3.383zm0 2.116a9.4 9.4 0 016.666 2.764 9.4 9.4 0 012.765 6.667 9.4 9.4 0 01-2.765 6.667 9.399 9.399 0 01-6.666 2.763 9.402 9.402 0 01-6.667-2.763 9.403 9.403 0 01-2.764-6.667 9.403 9.403 0 012.764-6.667 9.403 9.403 0 016.667-2.764z"
  />
  <path
    d="M365.862 80.031a11.513 11.513 0 00-8.163 3.383 11.511 11.511 0 00-3.383 8.164c0 3.186 1.293 6.073 3.383 8.163a11.513 11.513 0 008.163 3.383 11.51 11.51 0 008.163-3.383 11.512 11.512 0 003.384-8.163c0-3.187-1.294-6.073-3.384-8.164a11.51 11.51 0 00-8.163-3.383zm0 2.116a9.4 9.4 0 016.667 2.764 9.4 9.4 0 012.765 6.667 9.4 9.4 0 01-2.765 6.667 9.399 9.399 0 01-6.667 2.763 9.402 9.402 0 01-6.667-2.763 9.403 9.403 0 01-2.763-6.667 9.403 9.403 0 012.763-6.667 9.403 9.403 0 016.667-2.764zM111.878 1.436c-23.443 0-44.685 9.517-60.064 24.894C36.443 41.71 26.92 62.95 26.92 86.394c0 23.444 9.524 44.684 24.895 60.062 15.38 15.378 36.621 24.895 60.064 24.895 23.444 0 44.685-9.517 60.064-24.895 15.38-15.378 24.896-36.618 24.896-60.062 0-23.445-9.516-44.685-24.896-60.064-15.379-15.377-36.62-24.894-60.064-24.894zm0 2.115c22.863 0 43.577 9.28 58.566 24.276 14.997 14.995 24.277 35.706 24.277 58.567 0 22.86-9.28 43.57-24.277 58.566-14.989 14.995-35.703 24.276-58.566 24.276-22.862 0-43.569-9.281-58.565-24.276-14.997-14.995-24.277-35.706-24.277-58.566 0-22.861 9.28-43.572 24.277-58.567C68.309 12.832 89.016 3.551 111.878 3.551zM1048.536 1.445c-23.444 0-44.685 9.517-60.064 24.894-15.372 15.379-24.896 36.62-24.896 60.064 0 23.445 9.524 44.684 24.896 60.063 15.379 15.378 36.62 24.895 60.064 24.895 23.443 0 44.684-9.517 60.064-24.895 15.379-15.379 24.895-36.618 24.895-60.063s-9.516-44.685-24.895-60.064c-15.38-15.377-36.621-24.894-60.064-24.894zm0 2.115c22.862 0 43.576 9.28 58.565 24.276 14.997 14.995 24.277 35.706 24.277 58.567 0 22.86-9.28 43.571-24.277 58.567-14.989 14.994-35.703 24.275-58.565 24.275-22.863 0-43.57-9.28-58.566-24.275-14.997-14.996-24.276-35.706-24.276-58.567 0-22.86 9.279-43.572 24.276-58.567 14.997-14.995 35.703-24.276 58.566-24.276z"
  />
  <path
    d="M1006.588 43.393c-11.867 0-22.618 4.818-30.404 12.603-7.785 7.785-12.605 18.538-12.605 30.406 0 11.87 4.82 22.622 12.605 30.407 7.786 7.785 18.537 12.603 30.404 12.603 11.871 0 22.622-4.818 30.408-12.603 7.785-7.785 12.6-18.538 12.6-30.407 0-11.868-4.815-22.621-12.6-30.406-7.786-7.785-18.537-12.603-30.408-12.603zm0 2.116c11.286 0 21.51 4.58 28.91 11.983 7.403 7.402 11.985 17.626 11.985 28.91 0 11.285-4.582 21.509-11.986 28.91-7.399 7.403-17.623 11.984-28.909 11.984-11.282 0-21.506-4.581-28.91-11.983-7.402-7.402-11.981-17.626-11.981-28.91 0-11.285 4.579-21.509 11.982-28.911 7.403-7.402 17.627-11.983 28.909-11.983z"
    fill-opacity=".12"
  />
  <path
    d="M1069.513 64.37a21.962 21.962 0 00-15.576 6.455 21.966 21.966 0 00-6.457 15.577c0 6.08 2.47 11.589 6.457 15.577a21.961 21.961 0 0015.576 6.456c6.08 0 11.59-2.468 15.578-6.456a21.964 21.964 0 006.455-15.577c0-6.08-2.467-11.588-6.455-15.577a21.967 21.967 0 00-15.578-6.456zm0 2.115a19.86 19.86 0 0114.082 5.837 19.86 19.86 0 015.836 14.08 19.859 19.859 0 01-5.836 14.08 19.859 19.859 0 01-14.082 5.837 19.85 19.85 0 01-14.08-5.836 19.851 19.851 0 01-5.835-14.08c0-5.497 2.23-10.476 5.835-14.081a19.852 19.852 0 0114.08-5.837z"
    fill-opacity=".25"
  />
  <path
    d="M1100.978 74.857a11.513 11.513 0 00-8.164 3.383 11.511 11.511 0 00-3.382 8.163c0 3.187 1.292 6.073 3.382 8.164a11.513 11.513 0 008.164 3.383 11.51 11.51 0 008.163-3.383 11.512 11.512 0 003.384-8.164c0-3.186-1.294-6.073-3.384-8.163a11.51 11.51 0 00-8.163-3.383zm0 2.116a9.4 9.4 0 016.667 2.763 9.4 9.4 0 012.764 6.667 9.4 9.4 0 01-2.764 6.667 9.399 9.399 0 01-6.667 2.764 9.402 9.402 0 01-6.667-2.764 9.403 9.403 0 01-2.764-6.667 9.403 9.403 0 012.764-6.667 9.403 9.403 0 016.667-2.763z"
    fill-opacity=".5"
  />
  <path
    d="M1116.706 80.102a6.281 6.281 0 00-4.455 1.846 6.28 6.28 0 00-1.846 4.454 6.28 6.28 0 001.846 4.455 6.281 6.281 0 004.455 1.846 6.28 6.28 0 004.454-1.846 6.281 6.281 0 001.847-4.455 6.281 6.281 0 00-1.847-4.454 6.28 6.28 0 00-4.454-1.846zm0 2.116c1.154 0 2.2.469 2.958 1.226a4.171 4.171 0 011.227 2.958c0 1.155-.47 2.201-1.227 2.959a4.172 4.172 0 01-2.958 1.226 4.17 4.17 0 01-2.958-1.226 4.172 4.172 0 01-1.227-2.959c0-1.154.469-2.2 1.227-2.958a4.17 4.17 0 012.958-1.226zM1131.786 84.69c-.473 0-.901.191-1.211.501-.31.31-.502.738-.502 1.211 0 .473.192.901.502 1.211a1.707 1.707 0 002.422 0c.31-.31.501-.738.501-1.21 0-.474-.191-.902-.501-1.212a1.707 1.707 0 00-1.211-.501zm0 2.115a.402.402 0 01-.285-.688.402.402 0 01.688.285.402.402 0 01-.403.403z"
  />
  <path
    d="M1130.483 84.69c-.473 0-.901.191-1.211.501-.31.31-.502.738-.502 1.211 0 .473.192.901.502 1.211a1.707 1.707 0 002.422 0c.31-.31.501-.738.501-1.21 0-.474-.191-.902-.501-1.212a1.707 1.707 0 00-1.211-.501zm0 2.115a.402.402 0 01-.286-.688.402.402 0 01.69.285.402.402 0 01-.404.403z"
  />
  <path
    d="M1128.505 84.035a2.36 2.36 0 00-1.673.693 2.36 2.36 0 00-.694 1.674c0 .653.265 1.245.694 1.674a2.36 2.36 0 001.673.693 2.36 2.36 0 001.674-.693 2.36 2.36 0 00.693-1.674 2.36 2.36 0 00-.693-1.674 2.36 2.36 0 00-1.674-.693zm0 2.116a.25.25 0 01.252.251.25.25 0 01-.43.178.25.25 0 01.178-.43z"
  />
  <path
    d="M1124.581 82.722a3.67 3.67 0 00-2.602 1.078 3.67 3.67 0 00-1.079 2.603 3.67 3.67 0 001.079 2.602 3.67 3.67 0 002.602 1.079 3.67 3.67 0 002.603-1.079 3.67 3.67 0 001.078-2.602 3.67 3.67 0 00-1.078-2.603 3.67 3.67 0 00-2.603-1.078zm0 2.116c.432 0 .823.175 1.107.458a1.56 1.56 0 010 2.213 1.56 1.56 0 01-2.213 0 1.56 1.56 0 010-2.213 1.56 1.56 0 011.106-.458z"
  />
  <g>
    <path
      d="M733.793 1.436c-23.443 0-44.685 9.517-60.064 24.894-15.371 15.379-24.895 36.619-24.895 60.064 0 23.444 9.524 44.684 24.895 60.062 15.38 15.378 36.621 24.895 60.064 24.895 23.443 0 44.685-9.517 60.064-24.895 15.38-15.378 24.896-36.618 24.896-60.062 0-23.445-9.517-44.685-24.896-60.064-15.379-15.377-36.62-24.894-60.064-24.894zm0 2.115c22.862 0 43.577 9.28 58.566 24.276 14.997 14.995 24.276 35.706 24.276 58.567 0 22.86-9.28 43.57-24.276 58.566-14.99 14.995-35.704 24.276-58.566 24.276-22.862 0-43.569-9.281-58.566-24.276s-24.276-35.706-24.276-58.566c0-22.861 9.28-43.572 24.276-58.567 14.997-14.995 35.704-24.276 58.566-24.276z"
    />
  </g>
  <g>
    <path
      d="M691.836 43.385c-11.868 0-22.619 4.817-30.404 12.602-7.786 7.785-12.605 18.538-12.605 30.407s4.82 22.621 12.605 30.406 18.536 12.603 30.404 12.603c11.87 0 22.622-4.818 30.407-12.603s12.601-18.537 12.601-30.406-4.816-22.622-12.6-30.407c-7.786-7.785-18.537-12.602-30.408-12.602zm0 2.115c11.286 0 21.51 4.581 28.909 11.983 7.403 7.403 11.986 17.626 11.986 28.91 0 11.286-4.583 21.509-11.986 28.911-7.4 7.402-17.623 11.983-28.91 11.983-11.282 0-21.506-4.58-28.909-11.983-7.403-7.402-11.982-17.625-11.982-28.91s4.58-21.508 11.982-28.91c7.403-7.403 17.627-11.984 28.91-11.984z"
    />
  </g>
  <g>
    <path
      d="M754.754 64.362a21.962 21.962 0 00-15.576 6.456 21.966 21.966 0 00-6.457 15.577c0 6.08 2.469 11.588 6.457 15.576a21.961 21.961 0 0015.576 6.457c6.08 0 11.59-2.468 15.578-6.457a21.964 21.964 0 006.455-15.576c0-6.08-2.467-11.589-6.455-15.577a21.967 21.967 0 00-15.578-6.456zm0 2.116a19.86 19.86 0 0114.081 5.836 19.86 19.86 0 015.836 14.08 19.859 19.859 0 01-5.836 14.081 19.859 19.859 0 01-14.081 5.837 19.85 19.85 0 01-14.08-5.837 19.85 19.85 0 01-5.836-14.08c0-5.496 2.23-10.476 5.836-14.08a19.851 19.851 0 0114.08-5.837z"
      fill-opacity=".5"
    />
  </g>
  <g>
    <path
      d="M786.214 74.847a11.513 11.513 0 00-8.164 3.383 11.511 11.511 0 00-3.382 8.164c0 3.186 1.292 6.073 3.382 8.163a11.513 11.513 0 008.164 3.383 11.51 11.51 0 008.163-3.383 11.512 11.512 0 003.384-8.163c0-3.187-1.294-6.074-3.384-8.164a11.51 11.51 0 00-8.163-3.383zm0 2.116a9.4 9.4 0 016.667 2.764 9.4 9.4 0 012.764 6.667 9.4 9.4 0 01-2.764 6.667 9.399 9.399 0 01-6.667 2.763 9.402 9.402 0 01-6.667-2.763 9.403 9.403 0 01-2.764-6.667 9.403 9.403 0 012.764-6.667 9.403 9.403 0 016.667-2.764z"
      fill-opacity=".25"
    />
  </g>
  <g>
    <path
      d="M801.943 80.092a6.281 6.281 0 00-4.454 1.846 6.28 6.28 0 00-1.846 4.454 6.28 6.28 0 001.846 4.455 6.281 6.281 0 004.454 1.846 6.28 6.28 0 004.455-1.846 6.281 6.281 0 001.846-4.455 6.281 6.281 0 00-1.846-4.454 6.28 6.28 0 00-4.455-1.846zm0 2.116c1.155 0 2.201.469 2.959 1.226a4.171 4.171 0 011.226 2.958c0 1.155-.469 2.201-1.226 2.959a4.172 4.172 0 01-2.959 1.226 4.17 4.17 0 01-2.958-1.226 4.171 4.171 0 01-1.226-2.959c0-1.154.469-2.2 1.226-2.958a4.17 4.17 0 012.958-1.226z"
      fill-opacity=".12"
    />
  </g>
  <g>
    <path
      d="M817.036 84.684c-.472 0-.9.192-1.21.502-.31.31-.502.738-.502 1.211 0 .473.192.9.502 1.21a1.707 1.707 0 002.422 0c.31-.31.501-.737.501-1.21s-.192-.9-.502-1.21a1.707 1.707 0 00-1.21-.503zm0 2.116a.402.402 0 01-.285-.688.402.402 0 01.689.285.402.402 0 01-.404.403z"
      fill-opacity=".12"
    />
  </g>
  <g>
    <path
      d="M815.71 84.684c-.473 0-.901.192-1.211.502-.31.31-.502.738-.502 1.211 0 .473.192.9.502 1.21a1.707 1.707 0 002.422 0c.31-.31.501-.737.501-1.21s-.192-.9-.502-1.21a1.707 1.707 0 00-1.21-.503zm0 2.116a.402.402 0 01-.286-.688.402.402 0 01.689.285.402.402 0 01-.403.403z"
      fill-opacity=".12"
    />
  </g>
  <g>
    <path
      d="M813.752 84.027a2.36 2.36 0 00-1.673.693 2.36 2.36 0 00-.694 1.674c0 .653.265 1.245.694 1.674a2.36 2.36 0 001.673.693 2.36 2.36 0 001.674-.693 2.36 2.36 0 00.694-1.674 2.36 2.36 0 00-.694-1.674 2.36 2.36 0 00-1.674-.693zm0 2.116a.25.25 0 01.252.251.25.25 0 01-.43.177.25.25 0 01.178-.428z"
      fill-opacity=".12"
    />
  </g>
  <g>
    <path
      d="M809.827 82.72a3.67 3.67 0 00-2.602 1.078 3.67 3.67 0 00-1.078 2.603 3.67 3.67 0 001.078 2.602 3.67 3.67 0 002.602 1.079 3.67 3.67 0 002.603-1.079 3.67 3.67 0 001.079-2.602 3.67 3.67 0 00-1.079-2.603 3.67 3.67 0 00-2.603-1.078zm0 2.116c.432 0 .823.175 1.107.459a1.56 1.56 0 010 2.212 1.56 1.56 0 01-2.213 0 1.56 1.56 0 010-2.212 1.56 1.56 0 011.106-.46z"
      fill-opacity=".12"
    />
  </g>
  <g>
    <text
      x="104028"
      y="105583"
      font-family="'Montserrat-Light','Montserrat'"
      font-weight="300"
      font-size="14"
      transform="matrix(1 0 0 1 -103343.821 -105366.718)"
    >
      D<tspan
        x="104041px 104046px 104055px 104067px 104076px 104088px 104098px 104103px 104116px"
        y="105583px 105583px 105583px 105583px 105583px 105583px 105583px 105583px 105583px"
      >ISOLUCIN</tspan>
    </text>
  </g>
  <g>
    <text
      x="104037"
      y="105583"
      font-family="'Montserrat-Light','Montserrat'"
      font-weight="300"
      font-size="14"
      transform="matrix(1 0 0 1 -103638.684 -105366.718)"
    >
      A<tspan
        x="104048px 104060px 104071px 104079px 104092px 104103px 104108px"
        y="105583px 105583px 105583px 105583px 105583px 105583px 105583px"
      >NALOGA</tspan>
    </text>
  </g>
  <g>
    <text
      x="104042"
      y="105583"
      font-family="'Montserrat-Light','Montserrat'"
      font-weight="300"
      font-size="14"
      transform="matrix(1 0 0 1 -103032.004 -104761.81)"
    >
      B<tspan
        x="104053px 104063px 104073px 104083px 104087px 104095px 104104px 104108px 104111px"
        y="105583px 105583px 105583px 105583px 105583px 105583px 105583px 105583px 105583px"
      >ASE 32...</tspan>
    </text>
  </g>
  <g>
    <text
      x="104048"
      y="105583"
      font-family="'Montserrat-Light','Montserrat'"
      font-weight="300"
      font-size="14"
      transform="matrix(1 0 0 1 -103032.741 -105062.151)"
    >
      B<tspan
        x="104059px 104070px 104079px 104089px 104093px 104099px"
        y="105583px 105583px 105583px 105583px 105583px 105583px"
      >ASE 16</tspan>
    </text>
  </g>
  <g>
    <text
      x="104070"
      y="105579"
      font-family="'Montserrat-Light','Montserrat'"
      font-weight="300"
      font-size="14"
      transform="matrix(1 0 0 1 -103425.4 -104761.81)"
    >
      P<tspan
        x="104080px 104091px 104104px 104114px 104127px 104137px 104148px 104153px 104165px 104178px 104182px 104187px 104191px 104201px 104205px 104219px 104230px 104238px 104249px 104254px"
        y="105579px 105579px 105579px 105579px 105579px 105579px 105579px 105579px 105579px 105579px 105579px 105579px 105579px 105579px 105579px 105579px 105579px 105579px 105579px 105579px"
      >ROPORCIN / SIMETRA</tspan>
    </text>
  </g>
  <g>
    <text
      x="104051"
      y="105583"
      font-family="'Montserrat-Light','Montserrat'"
      font-weight="300"
      font-size="14"
      transform="matrix(1 0 0 1 -103338.661 -105062.151)"
    >
      B<tspan
        x="104062px 104072px 104082px 104092px 104096px"
        y="105583px 105583px 105583px 105583px 105583px"
      >ASE 8</tspan>
    </text>
  </g>
  <g>
    <text
      x="104051"
      y="105583"
      font-family="'Montserrat-Light','Montserrat'"
      font-weight="300"
      font-size="14"
      transform="matrix(1 0 0 1 -103646.301 -105062.151)"
    >
      B<tspan
        x="104062px 104072px 104082px 104092px 104096px"
        y="105583px 105583px 105583px 105583px 105583px"
      >ASE 4</tspan>
    </text>
  </g>
  <g>
    <text
      x="104051"
      y="105583"
      font-family="'Montserrat-Light','Montserrat'"
      font-weight="300"
      font-size="14"
      transform="matrix(1 0 0 1 -103972.37 -105062.151)"
    >
      B<tspan
        x="104062px 104073px 104082px 104092px 104097px"
        y="105583px 105583px 105583px 105583px 105583px"
      >ASE 2</tspan>
    </text>
  </g>
  <g>
    <text
      x="104043"
      y="105583"
      font-family="'Montserrat-Light','Montserrat'"
      font-weight="300"
      font-size="14"
      transform="matrix(1 0 0 1 -103640.896 -104761.81)"
    >
      V<tspan
        x="104053px 104058px 104070px 104081px 104092px 104101px"
        y="105583px 105583px 105583px 105583px 105583px 105583px"
      >INCULO</tspan>
    </text>
  </g>
  <g>
    <text
      x="104040"
      y="105579"
      font-family="'Montserrat-Light','Montserrat'"
      font-weight="300"
      font-size="14"
      transform="matrix(1 0 0 1 -104041.418 -104761.81)"
    >
      E<tspan
        x="104050px 104059px 104068px 104078px 104090px 104101px 104109px 104121px 104132px 104142px 104147px 104157px 104170px 104182px 104192px 104202px 104213px 104225px 104233px"
        y="105579px 105579px 105579px 105579px 105579px 105579px 105579px 105579px 105579px 105579px 105579px 105579px 105579px 105579px 105579px 105579px 105579px 105579px 105579px"
      >STRUCTURA COHERENTE</tspan>
    </text>
  </g>
  <g>
    <text
      x="104035"
      y="105583"
      font-family="'Montserrat-Light','Montserrat'"
      font-weight="300"
      font-size="14"
      transform="matrix(1 0 0 1 -103969.668 -105369.113)"
    >
      E<tspan
        x="104045px 104055px 104068px 104080px 104092px 104106px 104111px"
        y="105583px 105583px 105583px 105583px 105583px 105583px 105583px"
      >CONOMA</tspan>
    </text>
  </g>
  <g>
    <text
      x="104020"
      y="105583"
      font-family="'Montserrat-Light','Montserrat'"
      font-weight="300"
      font-size="14"
      transform="matrix(1 0 0 1 -103024.14 -105366.718)"
    >
      C<tspan
        x="104031px 104043px 104053px 104065px 104077px 104086px 104096px 104107px 104112px 104124px"
        y="105583px 105583px 105583px 105583px 105583px 105583px 105583px 105583px 105583px 105583px"
      >OAGULACIN</tspan>
    </text>
  </g>
</svg>
