<svg
  viewBox="0 0 357 357"
  xmlns="http://www.w3.org/2000/svg"
  fill-rule="evenodd"
  clip-rule="evenodd"
  stroke-linejoin="round"
  stroke-miterlimit="2"
>
  <path
    d="M178.003.72c-48.926 0-93.245 19.862-125.342 51.955C20.565 84.768.708 129.093.708 178.02c0 48.926 19.857 93.252 51.953 125.345 32.097 32.092 76.416 51.953 125.342 51.953s93.262-19.861 125.342-51.953c32.096-32.093 51.97-76.42 51.97-125.345 0-48.927-19.874-93.252-51.97-125.345C271.265 20.582 226.93.72 178.003.72zm0 1.058c48.636 0 92.698 19.743 124.601 51.644 31.903 31.902 51.648 75.962 51.648 124.598 0 48.634-19.745 92.695-51.648 124.596-31.903 31.902-75.965 51.644-124.6 51.644-48.637 0-92.699-19.742-124.586-51.644C21.515 270.715 1.771 226.654 1.771 178.02c0-48.636 19.744-92.696 51.647-124.598 31.887-31.901 75.95-51.644 124.585-51.644z"
  />
  <path
    d="M310.582 133.298c-12.34 0-23.52 5.01-31.617 13.105-8.093 8.095-13.101 19.276-13.101 31.617 0 12.341 5.008 23.521 13.1 31.616 8.097 8.096 19.278 13.105 31.618 13.105 12.344 0 23.524-5.01 31.617-13.105 8.097-8.095 13.105-19.275 13.105-31.616 0-12.341-5.008-23.522-13.105-31.617-8.093-8.095-19.273-13.105-31.617-13.105zm0 1.058c12.05 0 22.965 4.892 30.868 12.795 7.903 7.904 12.795 18.82 12.795 30.869s-4.892 22.965-12.795 30.868c-7.903 7.904-18.818 12.795-30.868 12.795-12.046 0-22.965-4.89-30.869-12.795-7.903-7.903-12.795-18.819-12.795-30.868 0-12.05 4.892-22.965 12.795-30.869 7.904-7.903 18.823-12.795 30.869-12.795z"
  />
  <path
    d="M222.201 133.298c-12.34 0-23.52 5.01-31.617 13.105-8.092 8.095-13.101 19.276-13.101 31.617 0 12.341 5.009 23.521 13.101 31.616 8.097 8.096 19.277 13.105 31.617 13.105 12.344 0 23.525-5.01 31.618-13.105 8.096-8.095 13.105-19.275 13.105-31.616 0-12.341-5.009-23.522-13.105-31.617-8.093-8.095-19.274-13.105-31.618-13.105zm0 1.058c12.05 0 22.965 4.892 30.869 12.795 7.903 7.904 12.795 18.82 12.795 30.869s-4.892 22.965-12.795 30.868c-7.904 7.904-18.818 12.795-30.869 12.795-12.046 0-22.965-4.89-30.868-12.795-7.903-7.903-12.795-18.819-12.795-30.868 0-12.05 4.892-22.965 12.795-30.869 7.903-7.903 18.822-12.795 30.868-12.795z"
  />
  <path
    d="M133.809 133.298c-12.34 0-23.52 5.01-31.617 13.105-8.093 8.095-13.101 19.276-13.101 31.617 0 12.341 5.008 23.521 13.1 31.616 8.097 8.096 19.278 13.105 31.618 13.105 12.344 0 23.525-5.01 31.617-13.105 8.097-8.095 13.105-19.275 13.105-31.616 0-12.341-5.008-23.522-13.105-31.617-8.092-8.095-19.273-13.105-31.617-13.105zm0 1.058c12.05 0 22.965 4.892 30.868 12.795 7.904 7.904 12.795 18.82 12.795 30.869s-4.891 22.965-12.795 30.868c-7.903 7.904-18.818 12.795-30.868 12.795-12.046 0-22.965-4.89-30.868-12.795-7.904-7.903-12.795-18.819-12.795-30.868 0-12.05 4.891-22.965 12.795-30.869 7.903-7.903 18.822-12.795 30.868-12.795z"
  />
  <path
    d="M89.614 89.1c-24.537 0-46.763 9.96-62.86 26.056C10.654 131.25.693 153.48.693 178.02c0 24.538 9.961 46.768 26.06 62.864 16.097 16.095 38.323 26.055 62.86 26.055s46.771-9.96 62.869-26.055c16.09-16.096 26.051-38.326 26.051-62.864 0-24.539-9.961-46.769-26.051-62.864-16.098-16.096-38.332-26.057-62.87-26.057zm0 1.057c24.247 0 46.215 9.843 62.12 25.747 15.904 15.904 25.745 37.87 25.745 62.116 0 24.246-9.84 46.211-25.745 62.116-15.905 15.903-37.873 25.746-62.12 25.746s-46.208-9.843-62.112-25.746C11.598 224.23 1.757 202.266 1.757 178.02c0-24.247 9.84-46.212 25.745-62.116C43.406 100 65.367 90.157 89.614 90.157z"
  />
  <path
    d="M177.994 89.1c-24.537 0-46.763 9.96-62.86 26.056-16.098 16.095-26.06 38.325-26.06 62.864 0 24.538 9.962 46.768 26.06 62.864 16.097 16.095 38.323 26.055 62.86 26.055 24.538 0 46.772-9.96 62.87-26.055 16.089-16.096 26.05-38.326 26.05-62.864 0-24.539-9.961-46.769-26.05-62.864-16.098-16.096-38.332-26.057-62.87-26.057zm0 1.057c24.248 0 46.216 9.843 62.12 25.747 15.905 15.904 25.746 37.87 25.746 62.116 0 24.246-9.841 46.211-25.746 62.116-15.904 15.903-37.872 25.746-62.12 25.746-24.247 0-46.207-9.843-62.112-25.746-15.904-15.905-25.745-37.87-25.745-62.116 0-24.247 9.841-46.212 25.745-62.116 15.905-15.904 37.865-25.747 62.112-25.747z"
  />
  <path
    d="M266.387 89.1c-24.537 0-46.763 9.96-62.861 26.056-16.098 16.095-26.06 38.325-26.06 62.864 0 24.538 9.962 46.768 26.06 62.864 16.098 16.095 38.324 26.055 62.86 26.055 24.538 0 46.772-9.96 62.87-26.055 16.09-16.096 26.05-38.326 26.05-62.864 0-24.539-9.96-46.769-26.05-62.864-16.098-16.096-38.332-26.057-62.87-26.057zm0 1.057c24.247 0 46.215 9.843 62.12 25.747 15.904 15.904 25.745 37.87 25.745 62.116 0 24.246-9.84 46.211-25.745 62.116-15.905 15.903-37.873 25.746-62.12 25.746s-46.208-9.843-62.112-25.746c-15.905-15.905-25.745-37.87-25.745-62.116 0-24.247 9.84-46.212 25.745-62.116C220.179 100 242.14 90.157 266.387 90.157zM45.428 133.298c-12.34 0-23.52 5.01-31.617 13.105C5.72 154.498.711 165.68.711 178.02c0 12.341 5.008 23.521 13.1 31.616 8.097 8.096 19.277 13.105 31.617 13.105 12.345 0 23.525-5.01 31.618-13.105 8.096-8.095 13.105-19.275 13.105-31.616 0-12.341-5.009-23.522-13.105-31.617-8.093-8.095-19.273-13.105-31.618-13.105zm0 1.058c12.05 0 22.966 4.892 30.869 12.795 7.903 7.904 12.795 18.82 12.795 30.869s-4.892 22.965-12.795 30.868c-7.903 7.904-18.818 12.795-30.869 12.795-12.046 0-22.965-4.89-30.868-12.795-7.903-7.903-12.795-18.819-12.795-30.868 0-12.05 4.892-22.965 12.795-30.869 7.903-7.903 18.822-12.795 30.868-12.795z"
  />
</svg>
