<svg
  viewBox="0 0 252 169"
  xmlns="http://www.w3.org/2000/svg"
  fill-rule="evenodd"
  clip-rule="evenodd"
  stroke-linejoin="round"
  stroke-miterlimit="2"
>
  <g fill="none" stroke="#222" stroke-width="41.01">
    <path
      d="M69823.8 10668.7c501.1-292 1083.2-459.9 1704.4-461.6 1882.8-5.2 3415.5 1519.2 3420.6 3402 5.1 1882.7-1519.3 3415.5-3402 3420.6-621.2 1.7-1204.3-163.1-1706.9-452.3-501.1 291.9-1083.3 459.9-1704.4 461.6-1882.8 5.1-3415.5-1519.3-3420.6-3402.1-5.2-1882.7 1519.2-3415.4 3402-3420.5 621.2-1.7 1204.2 163.1 1706.9 452.3z"
      transform="translate(-1576.976 -247.979) scale(.02438)"
    />
    <path
      d="M69823.7 10650.4c253.8-146.9 528.1-262.3 817.6-340.6 282.8-76.5 580.1-117.7 886.9-118.6 945.7-2.5 1803.5 379.1 2425.6 997.7 622 618.7 1008.2 1474.4 1010.8 2420.2 2.6 945.7-379 1803.5-997.7 2425.6-618.6 622-1474.3 1008.2-2420.1 1010.8-306.8.8-604.3-38.7-887.5-113.7-289.9-76.8-564.8-190.6-819.4-336.2-253.7 147-528 262.3-817.5 340.6-282.8 76.6-580.1 117.8-886.9 118.6-945.7 2.6-1803.6-379-2425.6-997.7-622-618.6-1008.3-1474.4-1010.9-2420.1-2.5-945.8 379.1-1803.6 997.7-2425.6 618.7-622.1 1474.4-1008.3 2420.2-1010.9 306.7-.8 604.2 38.8 887.4 113.8 290 76.7 564.9 190.6 819.4 336.1zm8.1 32c253.5-147.8 528-263.6 817.8-342 280.2-75.9 574.7-116.7 878.6-117.5 937.1-2.6 1787 375.5 2403.3 988.4 616.2 613 998.9 1460.8 1001.5 2397.8 2.5 937-375.5 1787-988.5 2403.2-612.9 616.3-1460.8 999-2397.8 1001.6-303.9.8-598.7-38.4-879.3-112.7-290.2-76.8-565.3-191.2-819.6-337.6l-15.9.1c-253.6 147.7-528 263.6-817.8 342-280.2 75.8-574.7 116.6-878.7 117.4-937 2.6-1786.9-375.5-2403.2-988.4-616.3-613-999-1460.8-1001.5-2397.8-2.6-937 375.5-1786.9 988.4-2403.2 613-616.3 1460.8-999 2397.8-1001.5 304-.9 598.7 38.4 879.3 112.6 290.3 76.9 565.3 191.2 819.7 337.6h15.9z"
      transform="translate(-1576.976 -247.979) scale(.02438)"
    />
  </g>
  <path
    d="M15135.5 1986.61c-304.3 0-580 123.53-779.6 323.13-199.6 199.61-323.1 475.29-323.1 779.6 0 304.3 123.5 579.99 323.1 779.59 199.6 199.61 475.3 323.14 779.6 323.14s580-123.53 779.6-323.14c199.6-199.6 323.2-475.29 323.2-779.59 0-304.31-123.6-579.99-323.2-779.6-199.6-199.6-475.3-323.13-779.6-323.13zm0 10.18c301.5 0 574.7 122.39 772.4 320.15 197.8 197.76 320.2 470.9 320.2 772.4 0 301.49-122.4 574.63-320.2 772.39-197.7 197.77-470.9 320.16-772.4 320.16s-574.6-122.39-772.4-320.16c-197.7-197.76-320.1-470.9-320.1-772.39 0-301.5 122.4-574.64 320.1-772.4 197.8-197.76 470.9-320.15 772.4-320.15z"
    fill="none"
    stroke="#222"
    stroke-width="3.96"
    transform="matrix(.07578 -.0002 .0002 .07578 -1063.466 -146.687)"
  />
  <path
    d="M15135.5 1986.18c-304.4 0-580.2 123.58-779.9 323.26-199.6 199.68-323.2 475.47-323.2 779.9 0 304.42 123.6 580.21 323.2 779.89 199.7 199.68 475.5 323.26 779.9 323.26 304.5 0 580.2-123.58 779.9-323.26 199.7-199.68 323.3-475.47 323.3-779.89 0-304.43-123.6-580.22-323.3-779.9-199.7-199.68-475.4-323.26-779.9-323.26zm0 11.03c301.4 0 574.4 122.34 772.1 320.03 197.7 197.69 320.1 470.72 320.1 772.1s-122.4 574.41-320.1 772.09c-197.7 197.69-470.7 320.03-772.1 320.03-301.4 0-574.4-122.34-772.1-320.03-197.7-197.68-320-470.71-320-772.09 0-301.38 122.3-574.41 320-772.1 197.7-197.69 470.7-320.03 772.1-320.03z"
    fill="none"
    stroke="#222"
    stroke-width="4.29"
    transform="matrix(.06995 -.00019 .00019 .06995 -975.256 -128.93)"
  />
  <path
    d="M15135.5 1986.61c-304.3 0-580 123.53-779.6 323.13-199.6 199.61-323.1 475.29-323.1 779.6 0 304.3 123.5 579.99 323.1 779.59 199.6 199.61 475.3 323.14 779.6 323.14s580-123.53 779.6-323.14c199.6-199.6 323.2-475.29 323.2-779.59 0-304.31-123.6-579.99-323.2-779.6-199.6-199.6-475.3-323.13-779.6-323.13zm0 10.18c301.5 0 574.7 122.39 772.4 320.15 197.8 197.76 320.2 470.9 320.2 772.4 0 301.49-122.4 574.63-320.2 772.39-197.7 197.77-470.9 320.16-772.4 320.16s-574.6-122.39-772.4-320.16c-197.7-197.76-320.1-470.9-320.1-772.39 0-301.5 122.4-574.64 320.1-772.4 197.8-197.76 470.9-320.15 772.4-320.15z"
    fill="none"
    stroke="#222"
    stroke-width="3.96"
    transform="matrix(.07578 -.0002 .0002 .07578 -980.296 -146.913)"
  />
  <path
    d="M15135.5 1986.18c-304.4 0-580.2 123.58-779.9 323.26-199.6 199.68-323.2 475.47-323.2 779.9 0 304.42 123.6 580.21 323.2 779.89 199.7 199.68 475.5 323.26 779.9 323.26 304.5 0 580.2-123.58 779.9-323.26 199.7-199.68 323.3-475.47 323.3-779.89 0-304.43-123.6-580.22-323.3-779.9-199.7-199.68-475.4-323.26-779.9-323.26zm0 11.03c301.4 0 574.4 122.34 772.1 320.03 197.7 197.69 320.1 470.72 320.1 772.1s-122.4 574.41-320.1 772.09c-197.7 197.69-470.7 320.03-772.1 320.03-301.4 0-574.4-122.34-772.1-320.03-197.7-197.68-320-470.71-320-772.09 0-301.38 122.3-574.41 320-772.1 197.7-197.69 470.7-320.03 772.1-320.03z"
    fill="none"
    stroke="#222"
    stroke-width="4.29"
    transform="matrix(.06995 -.00019 .00019 .06995 -892.077 -129.158)"
  />
  <path
    d="M15135.5 1985.68c-304.5 0-580.4 123.64-780.2 323.41-199.8 199.77-323.4 475.69-323.4 780.25s123.6 580.47 323.4 780.25c199.8 199.77 475.7 323.4 780.2 323.4 304.6 0 580.5-123.63 780.3-323.4 199.8-199.78 323.4-475.69 323.4-780.25s-123.6-580.48-323.4-780.25c-199.8-199.77-475.7-323.41-780.3-323.41zm0 12.03c301.3 0 574.2 122.29 771.8 319.89 197.6 197.59 319.8 470.5 319.8 771.74s-122.2 574.14-319.8 771.74c-197.6 197.59-470.5 319.88-771.8 319.88-301.2 0-574.1-122.29-771.7-319.88-197.6-197.6-319.9-470.5-319.9-771.74s122.3-574.15 319.9-771.74c197.6-197.6 470.5-319.89 771.7-319.89z"
    fill="none"
    stroke="#222"
    stroke-width="4.68"
    transform="matrix(.06412 -.00017 .00017 .06412 -886.993 -111.166)"
  />
  <path
    d="M15135.5 1985.68c-304.5 0-580.4 123.64-780.2 323.41-199.8 199.77-323.4 475.69-323.4 780.25s123.6 580.47 323.4 780.25c199.8 199.77 475.7 323.4 780.2 323.4 304.6 0 580.5-123.63 780.3-323.4 199.8-199.78 323.4-475.69 323.4-780.25s-123.6-580.48-323.4-780.25c-199.8-199.77-475.7-323.41-780.3-323.41zm0 12.03c301.3 0 574.2 122.29 771.8 319.89 197.6 197.59 319.8 470.5 319.8 771.74s-122.2 574.14-319.8 771.74c-197.6 197.59-470.5 319.88-771.8 319.88-301.2 0-574.1-122.29-771.7-319.88-197.6-197.6-319.9-470.5-319.9-771.74s122.3-574.15 319.9-771.74c197.6-197.6 470.5-319.89 771.7-319.89z"
    fill="none"
    stroke="#222"
    stroke-width="4.68"
    transform="matrix(.06412 -.00017 .00017 .06412 -803.817 -111.392)"
  />
  <path
    d="M15135.5 1985.08c-304.7 0-580.8 123.7-780.6 323.58-199.9 199.89-323.6 475.95-323.6 780.68 0 304.73 123.7 580.79 323.6 780.67 199.8 199.88 475.9 323.58 780.6 323.58 304.8 0 580.8-123.7 780.7-323.58 199.9-199.88 323.6-475.94 323.6-780.67 0-304.73-123.7-580.79-323.6-780.68-199.9-199.88-475.9-323.58-780.7-323.58zm0 13.24c301.1 0 573.9 122.21 771.3 319.7 197.5 197.49 319.7 470.24 319.7 771.32 0 301.07-122.2 573.83-319.7 771.31-197.4 197.49-470.2 319.71-771.3 319.71-301 0-573.8-122.22-771.3-319.71-197.5-197.48-319.7-470.24-319.7-771.31 0-301.08 122.2-573.83 319.7-771.32s470.3-319.7 771.3-319.7z"
    fill="none"
    stroke="#222"
    stroke-width="5.15"
    transform="matrix(.0583 -.00016 .00016 .0583 -798.506 -93.19)"
  />
  <path
    d="M15135.5 1985.08c-304.7 0-580.8 123.7-780.6 323.58-199.9 199.89-323.6 475.95-323.6 780.68 0 304.73 123.7 580.79 323.6 780.67 199.8 199.88 475.9 323.58 780.6 323.58 304.8 0 580.8-123.7 780.7-323.58 199.9-199.88 323.6-475.94 323.6-780.67 0-304.73-123.7-580.79-323.6-780.68-199.9-199.88-475.9-323.58-780.7-323.58zm0 13.24c301.1 0 573.9 122.21 771.3 319.7 197.5 197.49 319.7 470.24 319.7 771.32 0 301.07-122.2 573.83-319.7 771.31-197.4 197.49-470.2 319.71-771.3 319.71-301 0-573.8-122.22-771.3-319.71-197.5-197.48-319.7-470.24-319.7-771.31 0-301.08 122.2-573.83 319.7-771.32s470.3-319.7 771.3-319.7z"
    fill="none"
    stroke="#222"
    stroke-width="5.15"
    transform="matrix(.0583 -.00016 .00016 .0583 -715.33 -93.418)"
  />
  <path
    d="M84.117 26.553c-15.988.044-30.458 6.574-40.916 17.09-10.458 10.517-16.91 25.02-16.867 41.008.044 15.989 6.575 30.456 17.09 40.915 10.515 10.46 25.02 16.91 41.008 16.867 15.993-.043 30.457-6.573 40.916-17.09 10.458-10.516 16.91-25.018 16.867-41.007-.044-15.989-6.575-30.456-17.09-40.916-10.516-10.46-25.016-16.91-41.008-16.867zm.002.772c15.777-.043 30.088 6.322 40.462 16.642 10.379 10.32 16.82 24.595 16.863 40.37.043 15.777-6.32 30.086-16.643 40.462-10.317 10.377-24.593 16.82-40.371 16.863-15.772.043-30.083-6.323-40.462-16.643-10.374-10.32-16.82-24.594-16.863-40.37-.043-15.776 6.326-30.085 16.643-40.462C54.07 33.81 68.347 27.368 84.118 27.325z"
    fill="none"
    stroke="#222"
    stroke-width=".2998996"
  />
  <path
    d="M167.293 26.326c-15.988.044-30.458 6.574-40.916 17.09-10.458 10.517-16.91 25.02-16.867 41.008.044 15.989 6.575 30.456 17.09 40.915 10.515 10.46 25.02 16.91 41.008 16.867 15.993-.043 30.457-6.573 40.916-17.09 10.458-10.516 16.91-25.018 16.867-41.007-.044-15.989-6.575-30.456-17.09-40.916-10.516-10.46-25.016-16.91-41.008-16.867zm.002.772c15.777-.043 30.088 6.322 40.462 16.642 10.379 10.32 16.82 24.595 16.863 40.37.043 15.777-6.32 30.086-16.643 40.462-10.317 10.377-24.593 16.82-40.371 16.863-15.772.043-30.083-6.323-40.462-16.643-10.374-10.32-16.82-24.594-16.863-40.37-.043-15.776 6.326-30.085 16.643-40.462 10.322-10.376 24.599-16.819 40.37-16.862z"
    fill="none"
    stroke="#222"
    stroke-width=".2998996"
  />
  <path
    d="M84.137 32.894c-14.24.04-27.12 5.855-36.436 15.22-9.315 9.365-15.06 22.28-15.022 36.52.039 14.239 5.855 27.123 15.22 36.438 9.367 9.314 22.28 15.059 36.519 15.02 14.24-.039 27.125-5.854 36.44-15.219 9.311-9.365 15.057-22.28 15.018-36.52-.039-14.24-5.855-27.123-15.216-36.437-9.366-9.315-22.283-15.06-36.523-15.022zm.002.772c14.026-.038 26.75 5.621 35.976 14.796 9.226 9.176 14.953 21.867 14.991 35.893.039 14.026-5.62 26.749-14.795 35.974-9.176 9.225-21.87 14.954-35.895 14.992-14.025.038-26.746-5.621-35.972-14.796-9.226-9.176-14.952-21.867-14.99-35.893-.039-14.026 5.619-26.749 14.795-35.974 9.176-9.225 21.865-14.954 35.89-14.992z"
    fill="none"
    stroke="#222"
    stroke-width=".3000238"
  />
  <path
    d="M167.3 32.667c-14.24.04-27.121 5.855-36.437 15.22-9.315 9.365-15.06 22.28-15.022 36.52.039 14.239 5.855 27.123 15.22 36.438 9.367 9.314 22.28 15.059 36.519 15.02 14.24-.039 27.125-5.854 36.44-15.219 9.311-9.365 15.057-22.28 15.018-36.52-.039-14.24-5.855-27.123-15.216-36.437-9.366-9.315-22.283-15.06-36.523-15.022zm.001.772c14.026-.038 26.75 5.621 35.976 14.796 9.226 9.176 14.953 21.867 14.991 35.893.039 14.026-5.62 26.749-14.795 35.974-9.176 9.225-21.87 14.954-35.895 14.992-14.025.038-26.746-5.621-35.972-14.796-9.226-9.176-14.952-21.867-14.99-35.893-.039-14.026 5.619-26.749 14.795-35.974 9.176-9.225 21.865-14.954 35.89-14.992z"
    fill="none"
    stroke="#222"
    stroke-width=".3000238"
  />
  <path
    d="M84.145 39.337c-12.46.034-23.736 5.124-31.888 13.32-8.151 8.195-13.178 19.498-13.145 31.96.034 12.46 5.123 23.735 13.319 31.887 8.196 8.151 19.5 13.179 31.96 13.145 12.46-.034 23.737-5.123 31.889-13.319 8.151-8.196 13.178-19.499 13.144-31.96-.034-12.46-5.122-23.736-13.318-31.888-8.196-8.15-19.5-13.178-31.96-13.145zm.003.772c12.248-.034 23.36 4.909 31.413 12.92 8.057 8.013 13.059 19.095 13.092 31.344.034 12.248-4.908 23.357-12.921 31.413-8.01 8.056-19.094 13.058-31.343 13.091-12.248.034-23.356-4.908-31.413-12.92-8.057-8.013-13.06-19.095-13.093-31.343-.033-12.248 4.909-23.358 12.922-31.414C60.818 45.145 71.9 40.142 84.148 40.11z"
    fill="none"
    stroke="#222"
    stroke-width=".3002144"
  />
  <path
    d="M15135.5 1980.67c-305.9 0-583.1 124.19-783.8 324.87-200.6 200.68-324.8 477.85-324.8 783.8 0 305.94 124.2 583.11 324.8 783.79 200.7 200.68 477.9 324.88 783.8 324.88 306 0 583.1-124.2 783.8-324.88 200.7-200.68 324.9-477.85 324.9-783.79 0-305.95-124.2-583.12-324.9-783.8-200.7-200.68-477.8-324.87-783.8-324.87zm0 22.06c299.9 0 571.5 121.72 768.2 318.41 196.7 196.69 318.4 468.34 318.4 768.2 0 299.86-121.7 571.51-318.4 768.19-196.7 196.69-468.3 318.42-768.2 318.42-299.8 0-571.5-121.73-768.2-318.42-196.7-196.68-318.4-468.33-318.4-768.19 0-299.86 121.7-571.51 318.4-768.2 196.7-196.69 468.4-318.41 768.2-318.41z"
    fill="none"
    stroke="#222"
    stroke-width="8.58"
    transform="matrix(.03497 -.0001 .0001 .03497 -445.34 -22.106)"
  />
  <path
    d="M167.321 39.111c-12.46.034-23.736 5.123-31.888 13.319-8.151 8.196-13.178 19.499-13.145 31.96.034 12.46 5.123 23.736 13.319 31.887 8.196 8.152 19.5 13.18 31.96 13.145 12.46-.034 23.737-5.122 31.889-13.318 8.151-8.196 13.178-19.499 13.144-31.96-.034-12.46-5.122-23.736-13.318-31.888-8.196-8.151-19.5-13.179-31.96-13.145zm.003.771c12.248-.033 23.36 4.91 31.413 12.921 8.057 8.012 13.059 19.095 13.092 31.343.034 12.248-4.908 23.358-12.921 31.413-8.01 8.057-19.094 13.059-31.343 13.092-12.248.033-23.356-4.908-31.413-12.92-8.057-8.013-13.06-19.095-13.093-31.343-.033-12.248 4.909-23.358 12.922-31.414 8.013-8.056 19.094-13.058 31.343-13.092z"
    fill="none"
    stroke="#222"
    stroke-width=".3002144"
  />
  <path
    d="M15135.5 1978.46c-306.5 0-584.2 124.44-785.3 325.52-201.1 201.08-325.5 478.8-325.5 785.36 0 306.55 124.4 584.27 325.5 785.35 201.1 201.08 478.8 325.52 785.3 325.52 306.6 0 584.3-124.44 785.4-325.52 201.1-201.08 325.5-478.8 325.5-785.35 0-306.56-124.4-584.28-325.5-785.36-201.1-201.08-478.8-325.52-785.4-325.52zm0 26.47c299.3 0 570.4 121.48 766.7 317.77 196.3 196.29 317.7 467.39 317.7 766.64s-121.4 570.35-317.7 766.63c-196.3 196.29-467.4 317.77-766.7 317.77-299.2 0-570.3-121.48-766.6-317.77-196.3-196.28-317.8-467.38-317.8-766.63s121.5-570.35 317.8-766.64c196.3-196.29 467.4-317.77 766.6-317.77z"
    fill="none"
    stroke="#222"
    stroke-width="10.29"
    transform="matrix(.02915 -.00008 .00008 .02915 -357.123 -4.349)"
  />
  <path
    d="M15135.5 1980.67c-305.9 0-583.1 124.19-783.8 324.87-200.6 200.68-324.8 477.85-324.8 783.8 0 305.94 124.2 583.11 324.8 783.79 200.7 200.68 477.9 324.88 783.8 324.88 306 0 583.1-124.2 783.8-324.88 200.7-200.68 324.9-477.85 324.9-783.79 0-305.95-124.2-583.12-324.9-783.8-200.7-200.68-477.8-324.87-783.8-324.87zm0 22.06c299.9 0 571.5 121.72 768.2 318.41 196.7 196.69 318.4 468.34 318.4 768.2 0 299.86-121.7 571.51-318.4 768.19-196.7 196.69-468.3 318.42-768.2 318.42-299.8 0-571.5-121.73-768.2-318.42-196.7-196.68-318.4-468.33-318.4-768.19 0-299.86 121.7-571.51 318.4-768.2 196.7-196.69 468.4-318.41 768.2-318.41z"
    fill="none"
    stroke="#222"
    stroke-width="8.58"
    transform="matrix(.03497 -.0001 .0001 .03497 -362.164 -22.333)"
  />
  <path
    d="M15135.5 1975.16c-307.4 0-586 124.81-787.7 326.48-201.6 201.68-326.5 480.23-326.5 787.7 0 307.46 124.9 586.01 326.5 787.69 201.7 201.68 480.3 326.49 787.7 326.49 307.5 0 586-124.81 787.7-326.49 201.7-201.68 326.5-480.23 326.5-787.69 0-307.47-124.8-586.02-326.5-787.7-201.7-201.67-480.2-326.48-787.7-326.48zm0 33.08c298.4 0 568.6 121.11 764.3 316.8 195.7 195.69 316.8 465.96 316.8 764.3 0 298.33-121.1 568.61-316.8 764.3-195.7 195.68-465.9 316.79-764.3 316.79-298.3 0-568.6-121.11-764.3-316.79-195.7-195.69-316.8-465.97-316.8-764.3 0-298.34 121.1-568.61 316.8-764.3 195.7-195.69 466-316.8 764.3-316.8z"
    fill="none"
    stroke="#222"
    stroke-width="12.87"
    transform="matrix(.02332 -.00006 .00006 .02332 -268.836 13.42)"
  />
  <path
    d="M15135.5 1969.64c-309 0-588.9 125.43-791.6 328.1-202.6 202.68-328.1 482.61-328.1 791.6s125.5 588.91 328.1 791.59c202.7 202.68 482.6 328.1 791.6 328.1s588.9-125.42 791.6-328.1c202.7-202.68 328.1-482.6 328.1-791.59s-125.4-588.92-328.1-791.6c-202.7-202.67-482.6-328.1-791.6-328.1zm0 44.12c296.8 0 565.7 120.49 760.4 315.18 194.7 194.69 315.2 463.58 315.2 760.4 0 296.81-120.5 565.71-315.2 760.4-194.7 194.69-463.6 315.18-760.4 315.18-296.8 0-565.7-120.49-760.4-315.18-194.7-194.69-315.2-463.59-315.2-760.4 0-296.82 120.5-565.71 315.2-760.4 194.7-194.69 463.6-315.18 760.4-315.18z"
    fill="none"
    stroke="#222"
    stroke-width="17.15"
    transform="matrix(.01749 -.00005 .00005 .01749 -180.562 31.187)"
  />
  <path
    d="M15135.5 1978.46c-306.5 0-584.2 124.44-785.3 325.52-201.1 201.08-325.5 478.8-325.5 785.36 0 306.55 124.4 584.27 325.5 785.35 201.1 201.08 478.8 325.52 785.3 325.52 306.6 0 584.3-124.44 785.4-325.52 201.1-201.08 325.5-478.8 325.5-785.35 0-306.56-124.4-584.28-325.5-785.36-201.1-201.08-478.8-325.52-785.4-325.52zm0 26.47c299.3 0 570.4 121.48 766.7 317.77 196.3 196.29 317.7 467.39 317.7 766.64s-121.4 570.35-317.7 766.63c-196.3 196.29-467.4 317.77-766.7 317.77-299.2 0-570.3-121.48-766.6-317.77-196.3-196.28-317.8-467.38-317.8-766.63s121.5-570.35 317.8-766.64c196.3-196.29 467.4-317.77 766.6-317.77z"
    fill="none"
    stroke="#222"
    stroke-width="10.29"
    transform="matrix(.02915 -.00008 .00008 .02915 -273.947 -4.575)"
  />
  <path
    d="M15135.5 1958.61c-311.9 0-594.5 126.59-799.2 331.16-204.7 204.69-331.5 487.45-331.5 799.57 0 312.12 126.8 594.87 331.5 799.56 204.7 204.57 487.3 331.17 799.2 331.17 312 0 594.6-126.6 799.2-331.17 204.8-204.69 331.5-487.44 331.5-799.56 0-312.12-126.7-594.88-331.5-799.57-204.6-204.57-487.2-331.16-799.2-331.16zm0 66.18c293.7 0 559.8 119.2 752.5 311.81 192.8 192.7 312.1 458.89 312.1 752.74 0 293.84-119.3 560.03-312.1 752.74-192.7 192.61-458.8 311.81-752.5 311.81s-559.8-119.2-752.4-311.81c-192.8-192.71-312.1-458.9-312.1-752.74 0-293.85 119.3-560.04 312.1-752.74 192.6-192.61 458.7-311.81 752.4-311.81z"
    fill="none"
    stroke="#222"
    stroke-width="25.73"
    transform="matrix(.01167 -.00003 .00003 .01166 -92.403 48.962)"
  />
  <circle
    cx="15135.5"
    cy="3089.34"
    r="1097.64"
    fill="#222"
    transform="matrix(.00583 -.00002 .00002 .00583 -4.072 66.725)"
  />
  <path
    d="M15135.5 1975.16c-307.4 0-586 124.81-787.7 326.48-201.6 201.68-326.5 480.23-326.5 787.7 0 307.46 124.9 586.01 326.5 787.69 201.7 201.68 480.3 326.49 787.7 326.49 307.5 0 586-124.81 787.7-326.49 201.7-201.68 326.5-480.23 326.5-787.69 0-307.47-124.8-586.02-326.5-787.7-201.7-201.67-480.2-326.48-787.7-326.48zm0 33.08c298.4 0 568.6 121.11 764.3 316.8 195.7 195.69 316.8 465.96 316.8 764.3 0 298.33-121.1 568.61-316.8 764.3-195.7 195.68-465.9 316.79-764.3 316.79-298.3 0-568.6-121.11-764.3-316.79-195.7-195.69-316.8-465.97-316.8-764.3 0-298.34 121.1-568.61 316.8-764.3 195.7-195.69 466-316.8 764.3-316.8z"
    fill="none"
    stroke="#222"
    stroke-width="12.87"
    transform="matrix(.02332 -.00006 .00006 .02332 -185.66 13.193)"
  />
  <path
    d="M15135.5 1969.64c-309 0-588.9 125.43-791.6 328.1-202.6 202.68-328.1 482.61-328.1 791.6s125.5 588.91 328.1 791.59c202.7 202.68 482.6 328.1 791.6 328.1s588.9-125.42 791.6-328.1c202.7-202.68 328.1-482.6 328.1-791.59s-125.4-588.92-328.1-791.6c-202.7-202.67-482.6-328.1-791.6-328.1zm0 44.12c296.8 0 565.7 120.49 760.4 315.18 194.7 194.69 315.2 463.58 315.2 760.4 0 296.81-120.5 565.71-315.2 760.4-194.7 194.69-463.6 315.18-760.4 315.18-296.8 0-565.7-120.49-760.4-315.18-194.7-194.69-315.2-463.59-315.2-760.4 0-296.82 120.5-565.71 315.2-760.4 194.7-194.69 463.6-315.18 760.4-315.18z"
    fill="none"
    stroke="#222"
    stroke-width="17.15"
    transform="matrix(.01749 -.00005 .00005 .01749 -97.386 30.962)"
  />
  <path
    d="M15135.5 1958.61c-311.9 0-594.5 126.59-799.2 331.16-204.7 204.69-331.5 487.45-331.5 799.57 0 312.12 126.8 594.87 331.5 799.56 204.7 204.57 487.3 331.17 799.2 331.17 312 0 594.6-126.6 799.2-331.17 204.8-204.69 331.5-487.44 331.5-799.56 0-312.12-126.7-594.88-331.5-799.57-204.6-204.57-487.2-331.16-799.2-331.16zm0 66.18c293.7 0 559.8 119.2 752.5 311.81 192.8 192.7 312.1 458.89 312.1 752.74 0 293.84-119.3 560.03-312.1 752.74-192.7 192.61-458.8 311.81-752.5 311.81s-559.8-119.2-752.4-311.81c-192.8-192.71-312.1-458.9-312.1-752.74 0-293.85 119.3-560.04 312.1-752.74 192.6-192.61 458.7-311.81 752.4-311.81z"
    fill="none"
    stroke="#222"
    stroke-width="25.73"
    transform="matrix(.01167 -.00003 .00003 .01166 -9.226 48.735)"
  />
  <g
    transform="matrix(.00583 -.00002 .00002 .00583 79.09 66.499)"
    fill="none"
    stroke="#222"
    stroke-width="171.48"
  >
    <circle cx="15135.5" cy="3089.34" r="1097.64" />
    <path
      d="M15135.5 1925.53c-321 0-611.9 130.28-822.5 340.84-210.8 210.68-341.2 501.71-341.2 822.97 0 321.25 130.4 612.29 341.2 822.97 210.6 210.55 501.5 340.84 822.5 340.84 321.1 0 612-130.29 822.6-340.84 210.8-210.68 341.2-501.72 341.2-822.97 0-321.26-130.4-612.29-341.2-822.97-210.6-210.56-501.5-340.84-822.6-340.84zm0 132.34c284.6 0 542.4 115.5 729.1 302.13 186.8 186.72 302.4 444.63 302.4 729.34 0 284.71-115.6 542.62-302.4 729.33-186.7 186.63-444.5 302.13-729.1 302.13s-542.4-115.5-729.1-302.13c-186.8-186.71-302.4-444.62-302.4-729.33 0-284.71 115.6-542.62 302.4-729.34 186.7-186.63 444.5-302.13 729.1-302.13z"
    />
  </g>
</svg>
